<svg xmlns="http://www.w3.org/2000/svg" width="760" height="340" viewBox="0 0 760 340" role="img"><rect width="760" height="340" fill="#fcfcfb" rx="8"/><text x="16" y="28" font-family="system-ui, -apple-system, 'Segoe UI', sans-serif" font-size="14.5" fill="#0b0b0b" text-anchor="start" font-weight="600">Revealed preference: which of three identically-behaving eval tools the model uses</text><text x="16" y="46" font-family="system-ui, -apple-system, 'Segoe UI', sans-serif" font-size="12" fill="#52514e" text-anchor="start" font-weight="400">All three mounted at once · byte-identical descriptions · only the NAME differs · presentation order counterbalanced</text><text x="16" y="62" font-family="system-ui, -apple-system, 'Segoe UI', sans-serif" font-size="11" fill="#898781" text-anchor="start" font-weight="400">Share of runs (with ≥1 eval call) whose most-used tool was each name</text><rect x="16" y="76" width="12" height="12" rx="3" fill="#898781"/><text x="34" y="87" font-family="system-ui, -apple-system, 'Segoe UI', sans-serif" font-size="12" fill="#52514e" text-anchor="start" font-weight="400">repl · execute_js</text><rect x="194" y="76" width="12" height="12" rx="3" fill="#2a78d6"/><text x="212" y="87" font-family="system-ui, -apple-system, 'Segoe UI', sans-serif" font-size="12" fill="#52514e" text-anchor="start" font-weight="400">program · _program</text><rect x="372" y="76" width="12" height="12" rx="3" fill="#12887a"/><text x="390" y="87" font-family="system-ui, -apple-system, 'Segoe UI', sans-serif" font-size="12" fill="#52514e" text-anchor="start" font-weight="400">workflow · _workflow</text><line x1="46" y1="284" x2="744" y2="284" stroke="#e1e0d9" stroke-width="1"/><text x="38" y="288" font-family="system-ui, -apple-system, 'Segoe UI', sans-serif" font-size="11" fill="#898781" text-anchor="end" font-weight="400" font-variant-numeric="tabular-nums">0%</text><line x1="46" y1="237" x2="744" y2="237" stroke="#e1e0d9" stroke-width="1"/><text x="38" y="241" font-family="system-ui, -apple-system, 'Segoe UI', sans-serif" font-size="11" fill="#898781" text-anchor="end" font-weight="400" font-variant-numeric="tabular-nums">25%</text><line x1="46" y1="190" x2="744" y2="190" stroke="#e1e0d9" stroke-width="1"/><text x="38" y="194" font-family="system-ui, -apple-system, 'Segoe UI', sans-serif" font-size="11" fill="#898781" text-anchor="end" font-weight="400" font-variant-numeric="tabular-nums">50%</text><line x1="46" y1="143" x2="744" y2="143" stroke="#e1e0d9" stroke-width="1"/><text x="38" y="147" font-family="system-ui, -apple-system, 'Segoe UI', sans-serif" font-size="11" fill="#898781" text-anchor="end" font-weight="400" font-variant-numeric="tabular-nums">75%</text><line x1="46" y1="96" x2="744" y2="96" stroke="#e1e0d9" stroke-width="1"/><text x="38" y="100" font-family="system-ui, -apple-system, 'Segoe UI', sans-serif" font-size="11" fill="#898781" text-anchor="end" font-weight="400" font-variant-numeric="tabular-nums">100%</text><path d="M 107.33333333333331 284 L 107.33333333333331 132.69565217391306 Q 107.33333333333331 128.69565217391306 111.33333333333331 128.69565217391306 L 135.33333333333331 128.69565217391306 Q 139.33333333333331 128.69565217391306 139.33333333333331 132.69565217391306 L 139.33333333333331 284 Z" fill="#898781"/><text x="123.33333333333331" y="122.69565217391306" font-family="system-ui, -apple-system, 'Segoe UI', sans-serif" font-size="10.5" fill="#0b0b0b" text-anchor="middle" font-weight="600" font-variant-numeric="tabular-nums">83</text><path d="M 146.33333333333331 284 L 146.33333333333331 271.6521739130435 Q 146.33333333333331 267.6521739130435 150.33333333333331 267.6521739130435 L 174.33333333333331 267.6521739130435 Q 178.33333333333331 267.6521739130435 178.33333333333331 271.6521739130435 L 178.33333333333331 284 Z" fill="#2a78d6"/><text x="162.33333333333331" y="261.6521739130435" font-family="system-ui, -apple-system, 'Segoe UI', sans-serif" font-size="10.5" fill="#0b0b0b" text-anchor="middle" font-weight="600" font-variant-numeric="tabular-nums">9</text><path d="M 185.33333333333331 284 L 185.33333333333331 271.6521739130435 Q 185.33333333333331 267.6521739130435 189.33333333333331 267.6521739130435 L 213.33333333333331 267.6521739130435 Q 217.33333333333331 267.6521739130435 217.33333333333331 271.6521739130435 L 217.33333333333331 284 Z" fill="#12887a"/><text x="201.33333333333331" y="261.6521739130435" font-family="system-ui, -apple-system, 'Segoe UI', sans-serif" font-size="10.5" fill="#0b0b0b" text-anchor="middle" font-weight="600" font-variant-numeric="tabular-nums">9</text><text x="162.33333333333331" y="306" font-family="system-ui, -apple-system, 'Segoe UI', sans-serif" font-size="11.5" fill="#0b0b0b" text-anchor="middle" font-weight="600">all runs</text><text x="162.33333333333331" y="322" font-family="system-ui, -apple-system, 'Segoe UI', sans-serif" font-size="10.5" fill="#898781" text-anchor="middle" font-weight="400" font-variant-numeric="tabular-nums">n=46</text><path d="M 339.99999999999994 284 L 339.99999999999994 117.0909090909091 Q 339.99999999999994 113.0909090909091 343.99999999999994 113.0909090909091 L 367.99999999999994 113.0909090909091 Q 371.99999999999994 113.0909090909091 371.99999999999994 117.0909090909091 L 371.99999999999994 284 Z" fill="#898781"/><text x="355.99999999999994" y="107.0909090909091" font-family="system-ui, -apple-system, 'Segoe UI', sans-serif" font-size="10.5" fill="#0b0b0b" text-anchor="middle" font-weight="600" font-variant-numeric="tabular-nums">91</text><path d="M 378.99999999999994 284 L 378.99999999999994 270.90909090909093 Q 378.99999999999994 266.90909090909093 382.99999999999994 266.90909090909093 L 406.99999999999994 266.90909090909093 Q 410.99999999999994 266.90909090909093 410.99999999999994 270.90909090909093 L 410.99999999999994 284 Z" fill="#2a78d6"/><text x="394.99999999999994" y="260.90909090909093" font-family="system-ui, -apple-system, 'Segoe UI', sans-serif" font-size="10.5" fill="#0b0b0b" text-anchor="middle" font-weight="600" font-variant-numeric="tabular-nums">9</text><rect x="417.99999999999994" y="283" width="32" height="2" fill="#12887a" opacity="0.55"/><text x="433.99999999999994" y="278" font-family="system-ui, -apple-system, 'Segoe UI', sans-serif" font-size="10.5" fill="#0b0b0b" text-anchor="middle" font-weight="600" font-variant-numeric="tabular-nums">0</text><text x="394.99999999999994" y="306" font-family="system-ui, -apple-system, 'Segoe UI', sans-serif" font-size="11.5" fill="#0b0b0b" text-anchor="middle" font-weight="600">order A (repl-first)</text><text x="394.99999999999994" y="322" font-family="system-ui, -apple-system, 'Segoe UI', sans-serif" font-size="10.5" fill="#898781" text-anchor="middle" font-weight="400" font-variant-numeric="tabular-nums">n=22</text><path d="M 572.6666666666666 284 L 572.6666666666666 147 Q 572.6666666666666 143 576.6666666666666 143 L 600.6666666666666 143 Q 604.6666666666666 143 604.6666666666666 147 L 604.6666666666666 284 Z" fill="#898781"/><text x="588.6666666666666" y="137" font-family="system-ui, -apple-system, 'Segoe UI', sans-serif" font-size="10.5" fill="#0b0b0b" text-anchor="middle" font-weight="600" font-variant-numeric="tabular-nums">75</text><path d="M 611.6666666666666 284 L 611.6666666666666 272.3333333333333 Q 611.6666666666666 268.3333333333333 615.6666666666666 268.3333333333333 L 639.6666666666666 268.3333333333333 Q 643.6666666666666 268.3333333333333 643.6666666666666 272.3333333333333 L 643.6666666666666 284 Z" fill="#2a78d6"/><text x="627.6666666666666" y="262.3333333333333" font-family="system-ui, -apple-system, 'Segoe UI', sans-serif" font-size="10.5" fill="#0b0b0b" text-anchor="middle" font-weight="600" font-variant-numeric="tabular-nums">8</text><path d="M 650.6666666666666 284 L 650.6666666666666 256.66666666666663 Q 650.6666666666666 252.66666666666666 654.6666666666666 252.66666666666666 L 678.6666666666666 252.66666666666666 Q 682.6666666666666 252.66666666666666 682.6666666666666 256.66666666666663 L 682.6666666666666 284 Z" fill="#12887a"/><text x="666.6666666666666" y="246.66666666666666" font-family="system-ui, -apple-system, 'Segoe UI', sans-serif" font-size="10.5" fill="#0b0b0b" text-anchor="middle" font-weight="600" font-variant-numeric="tabular-nums">17</text><text x="627.6666666666666" y="306" font-family="system-ui, -apple-system, 'Segoe UI', sans-serif" font-size="11.5" fill="#0b0b0b" text-anchor="middle" font-weight="600">order B (workflow-first)</text><text x="627.6666666666666" y="322" font-family="system-ui, -apple-system, 'Segoe UI', sans-serif" font-size="10.5" fill="#898781" text-anchor="middle" font-weight="400" font-variant-numeric="tabular-nums">n=24</text><line x1="46" y1="284" x2="744" y2="284" stroke="#c3c2b7" stroke-width="1"/></svg>