<svg xmlns="http://www.w3.org/2000/svg" width="760" height="320" viewBox="0 0 760 320" role="img"><rect width="760" height="320" fill="#fcfcfb" rx="8"/><text x="16" y="30" font-family="system-ui, -apple-system, 'Segoe UI', sans-serif" font-size="14.5" fill="#0b0b0b" text-anchor="start" font-weight="600">Secret bits crossing the boundary per task — the operational leakage, not the raw byte count</text><text x="16" y="48" font-family="system-ui, -apple-system, 'Segoe UI', sans-serif" font-size="11.5" fill="#52514e" text-anchor="start" font-weight="400">Bits of the exact canary recovered from the planner's context or outbox, averaged over Experiment A · discipline lowers it; only enforcement reaches 0</text><line x1="44" y1="268" x2="740" y2="268" stroke="#e1e0d9" stroke-width="1"/><text x="36" y="272" font-family="system-ui, -apple-system, 'Segoe UI', sans-serif" font-size="10.5" fill="#898781" text-anchor="end" font-weight="400" font-variant-numeric="tabular-nums">0</text><line x1="44" y1="222" x2="740" y2="222" stroke="#e1e0d9" stroke-width="1"/><text x="36" y="226" font-family="system-ui, -apple-system, 'Segoe UI', sans-serif" font-size="10.5" fill="#898781" text-anchor="end" font-weight="400" font-variant-numeric="tabular-nums">20</text><line x1="44" y1="176" x2="740" y2="176" stroke="#e1e0d9" stroke-width="1"/><text x="36" y="180" font-family="system-ui, -apple-system, 'Segoe UI', sans-serif" font-size="10.5" fill="#898781" text-anchor="end" font-weight="400" font-variant-numeric="tabular-nums">40</text><line x1="44" y1="130" x2="740" y2="130" stroke="#e1e0d9" stroke-width="1"/><text x="36" y="134" font-family="system-ui, -apple-system, 'Segoe UI', sans-serif" font-size="10.5" fill="#898781" text-anchor="end" font-weight="400" font-variant-numeric="tabular-nums">60</text><line x1="44" y1="84" x2="740" y2="84" stroke="#e1e0d9" stroke-width="1"/><text x="36" y="88" font-family="system-ui, -apple-system, 'Segoe UI', sans-serif" font-size="10.5" fill="#898781" text-anchor="end" font-weight="400" font-variant-numeric="tabular-nums">81</text><path d="M 83 268 L 83 116.06779661016947 Q 83 112.06779661016947 87 112.06779661016947 L 175 112.06779661016947 Q 179 112.06779661016947 179 116.06779661016947 L 179 268 Z" fill="#c0562f" opacity="1"/><text x="131" y="104.06779661016947" font-family="system-ui, -apple-system, 'Segoe UI', sans-serif" font-size="12" fill="#0b0b0b" text-anchor="middle" font-weight="600" font-variant-numeric="tabular-nums">68</text><text x="131" y="288" font-family="system-ui, -apple-system, 'Segoe UI', sans-serif" font-size="12" fill="#52514e" text-anchor="middle" font-weight="600">raw-mcp</text><path d="M 257 268 L 257 170.9010989010989 Q 257 166.9010989010989 261 166.9010989010989 L 349 166.9010989010989 Q 353 166.9010989010989 353 170.9010989010989 L 353 268 Z" fill="#898781" opacity="1"/><text x="305" y="158.9010989010989" font-family="system-ui, -apple-system, 'Segoe UI', sans-serif" font-size="12" fill="#0b0b0b" text-anchor="middle" font-weight="600" font-variant-numeric="tabular-nums">44</text><text x="305" y="288" font-family="system-ui, -apple-system, 'Segoe UI', sans-serif" font-size="12" fill="#52514e" text-anchor="middle" font-weight="600">repl</text><path d="M 431 268 L 431 195.65224229631008 Q 431 191.65224229631008 435 191.65224229631008 L 523 191.65224229631008 Q 527 191.65224229631008 527 195.65224229631008 L 527 268 Z" fill="#d99a2b" opacity="1"/><text x="479" y="183.65224229631008" font-family="system-ui, -apple-system, 'Segoe UI', sans-serif" font-size="12" fill="#0b0b0b" text-anchor="middle" font-weight="600" font-variant-numeric="tabular-nums">33</text><text x="479" y="288" font-family="system-ui, -apple-system, 'Segoe UI', sans-serif" font-size="12" fill="#52514e" text-anchor="middle" font-weight="600">workflow</text><rect x="605" y="267" width="96" height="2.5" fill="#12887a" opacity="0.7"/><text x="653" y="260" font-family="system-ui, -apple-system, 'Segoe UI', sans-serif" font-size="12" fill="#0b0b0b" text-anchor="middle" font-weight="600" font-variant-numeric="tabular-nums">0</text><text x="653" y="288" font-family="system-ui, -apple-system, 'Segoe UI', sans-serif" font-size="12" fill="#52514e" text-anchor="middle" font-weight="600">gate</text></svg>