<svg xmlns="http://www.w3.org/2000/svg" width="880" height="356" viewBox="0 0 880 356" role="img">
<rect width="880" height="356" fill="#fcfcfb" rx="8"/>
<text x="16" y="28" font-family="system-ui, -apple-system, 'Segoe UI', sans-serif" font-size="15" fill="#0b0b0b" text-anchor="start" font-weight="600">The hard suite: every arm drops to 67–73% — and SQL is worst at its own negation join</text><text x="16" y="46" font-family="system-ui, -apple-system, 'Segoe UI', sans-serif" font-size="12" fill="#52514e" text-anchor="start" font-weight="400">Pass rate per arm, 11 models per cell · complexity, not surface parity, is the open frontier</text><rect x="16" y="58" width="12" height="12" rx="3" fill="#898781"/><text x="34" y="68" font-family="system-ui, -apple-system, 'Segoe UI', sans-serif" font-size="12" fill="#52514e" text-anchor="start" font-weight="400">baseline</text><rect x="146" y="58" width="12" height="12" rx="3" fill="#2a78d6"/><text x="164" y="68" font-family="system-ui, -apple-system, 'Segoe UI', sans-serif" font-size="12" fill="#52514e" text-anchor="start" font-weight="400">SQL</text><rect x="276" y="58" width="12" height="12" rx="3" fill="#1baf7a"/><text x="294" y="68" font-family="system-ui, -apple-system, 'Segoe UI', sans-serif" font-size="12" fill="#52514e" text-anchor="start" font-weight="400">Lisp</text><rect x="406" y="58" width="12" height="12" rx="3" fill="#1c5cab"/><text x="424" y="68" font-family="system-ui, -apple-system, 'Segoe UI', sans-serif" font-size="12" fill="#52514e" text-anchor="start" font-weight="400">both</text><line x1="56" y1="282" x2="856" y2="282" stroke="#e1e0d9" stroke-width="1"/><text x="48" y="286" font-family="system-ui, -apple-system, 'Segoe UI', sans-serif" font-size="11" fill="#898781" text-anchor="end" font-weight="400" font-variant-numeric="tabular-nums">0%</text><line x1="56" y1="235.5" x2="856" y2="235.5" stroke="#e1e0d9" stroke-width="1"/><text x="48" y="239.5" font-family="system-ui, -apple-system, 'Segoe UI', sans-serif" font-size="11" fill="#898781" text-anchor="end" font-weight="400" font-variant-numeric="tabular-nums">25%</text><line x1="56" y1="189" x2="856" y2="189" stroke="#e1e0d9" stroke-width="1"/><text x="48" y="193" font-family="system-ui, -apple-system, 'Segoe UI', sans-serif" font-size="11" fill="#898781" text-anchor="end" font-weight="400" font-variant-numeric="tabular-nums">50%</text><line x1="56" y1="142.5" x2="856" y2="142.5" stroke="#e1e0d9" stroke-width="1"/><text x="48" y="146.5" font-family="system-ui, -apple-system, 'Segoe UI', sans-serif" font-size="11" fill="#898781" text-anchor="end" font-weight="400" font-variant-numeric="tabular-nums">75%</text><line x1="56" y1="96" x2="856" y2="96" stroke="#e1e0d9" stroke-width="1"/><text x="48" y="100" font-family="system-ui, -apple-system, 'Segoe UI', sans-serif" font-size="11" fill="#898781" text-anchor="end" font-weight="400" font-variant-numeric="tabular-nums">100%</text><path d="M 153.33333333333334 282 L 153.33333333333334 167.63636363636363 Q 153.33333333333334 163.63636363636363 157.33333333333334 163.63636363636363 L 171.33333333333334 163.63636363636363 Q 175.33333333333334 163.63636363636363 175.33333333333334 167.63636363636363 L 175.33333333333334 282 Z" fill="#898781"/><text x="164.33333333333334" y="156.63636363636363" font-family="system-ui, -apple-system, 'Segoe UI', sans-serif" font-size="10.5" fill="#0b0b0b" text-anchor="middle" font-weight="600" font-variant-numeric="tabular-nums">7/11</text><path d="M 177.33333333333334 282 L 177.33333333333334 184.54545454545456 Q 177.33333333333334 180.54545454545456 181.33333333333334 180.54545454545456 L 195.33333333333334 180.54545454545456 Q 199.33333333333334 180.54545454545456 199.33333333333334 184.54545454545456 L 199.33333333333334 282 Z" fill="#2a78d6"/><text x="188.33333333333334" y="173.54545454545456" font-family="system-ui, -apple-system, 'Segoe UI', sans-serif" font-size="10.5" fill="#0b0b0b" text-anchor="middle" font-weight="600" font-variant-numeric="tabular-nums">6/11</text><path d="M 201.33333333333334 282 L 201.33333333333334 133.8181818181818 Q 201.33333333333334 129.8181818181818 205.33333333333334 129.8181818181818 L 219.33333333333334 129.8181818181818 Q 223.33333333333334 129.8181818181818 223.33333333333334 133.8181818181818 L 223.33333333333334 282 Z" fill="#1baf7a"/><text x="212.33333333333334" y="122.81818181818181" font-family="system-ui, -apple-system, 'Segoe UI', sans-serif" font-size="10.5" fill="#0b0b0b" text-anchor="middle" font-weight="600" font-variant-numeric="tabular-nums">9/11</text><path d="M 225.33333333333334 282 L 225.33333333333334 167.63636363636363 Q 225.33333333333334 163.63636363636363 229.33333333333334 163.63636363636363 L 243.33333333333334 163.63636363636363 Q 247.33333333333334 163.63636363636363 247.33333333333334 167.63636363636363 L 247.33333333333334 282 Z" fill="#1c5cab"/><text x="236.33333333333334" y="156.63636363636363" font-family="system-ui, -apple-system, 'Segoe UI', sans-serif" font-size="10.5" fill="#0b0b0b" text-anchor="middle" font-weight="600" font-variant-numeric="tabular-nums">7/11</text><text x="189.33333333333334" y="302" font-family="system-ui, -apple-system, 'Segoe UI', sans-serif" font-size="12.5" fill="#0b0b0b" text-anchor="middle" font-weight="600">negation join</text><text x="189.33333333333334" y="318" font-family="system-ui, -apple-system, 'Segoe UI', sans-serif" font-size="10.5" fill="#898781" text-anchor="middle" font-weight="400">reconcile-ghost-issues</text><path d="M 420 282 L 420 167.63636363636363 Q 420 163.63636363636363 424 163.63636363636363 L 438 163.63636363636363 Q 442 163.63636363636363 442 167.63636363636363 L 442 282 Z" fill="#898781"/><text x="431" y="156.63636363636363" font-family="system-ui, -apple-system, 'Segoe UI', sans-serif" font-size="10.5" fill="#0b0b0b" text-anchor="middle" font-weight="600" font-variant-numeric="tabular-nums">7/11</text><path d="M 444 282 L 444 150.72727272727272 Q 444 146.72727272727272 448 146.72727272727272 L 462 146.72727272727272 Q 466 146.72727272727272 466 150.72727272727272 L 466 282 Z" fill="#2a78d6"/><text x="455" y="139.72727272727272" font-family="system-ui, -apple-system, 'Segoe UI', sans-serif" font-size="10.5" fill="#0b0b0b" text-anchor="middle" font-weight="600" font-variant-numeric="tabular-nums">8/11</text><path d="M 468 282 L 468 150.72727272727272 Q 468 146.72727272727272 472 146.72727272727272 L 486 146.72727272727272 Q 490 146.72727272727272 490 150.72727272727272 L 490 282 Z" fill="#1baf7a"/><text x="479" y="139.72727272727272" font-family="system-ui, -apple-system, 'Segoe UI', sans-serif" font-size="10.5" fill="#0b0b0b" text-anchor="middle" font-weight="600" font-variant-numeric="tabular-nums">8/11</text><path d="M 492 282 L 492 150.72727272727272 Q 492 146.72727272727272 496 146.72727272727272 L 510 146.72727272727272 Q 514 146.72727272727272 514 150.72727272727272 L 514 282 Z" fill="#1c5cab"/><text x="503" y="139.72727272727272" font-family="system-ui, -apple-system, 'Segoe UI', sans-serif" font-size="10.5" fill="#0b0b0b" text-anchor="middle" font-weight="600" font-variant-numeric="tabular-nums">8/11</text><text x="456" y="302" font-family="system-ui, -apple-system, 'Segoe UI', sans-serif" font-size="12.5" fill="#0b0b0b" text-anchor="middle" font-weight="600">grouped report</text><text x="456" y="318" font-family="system-ui, -apple-system, 'Segoe UI', sans-serif" font-size="10.5" fill="#898781" text-anchor="middle" font-weight="400">repo-health-report</text><path d="M 686.6666666666667 282 L 686.6666666666667 150.72727272727272 Q 686.6666666666667 146.72727272727272 690.6666666666667 146.72727272727272 L 704.6666666666667 146.72727272727272 Q 708.6666666666667 146.72727272727272 708.6666666666667 150.72727272727272 L 708.6666666666667 282 Z" fill="#898781"/><text x="697.6666666666667" y="139.72727272727272" font-family="system-ui, -apple-system, 'Segoe UI', sans-serif" font-size="10.5" fill="#0b0b0b" text-anchor="middle" font-weight="600" font-variant-numeric="tabular-nums">8/11</text><path d="M 710.6666666666667 282 L 710.6666666666667 150.72727272727272 Q 710.6666666666667 146.72727272727272 714.6666666666667 146.72727272727272 L 728.6666666666667 146.72727272727272 Q 732.6666666666667 146.72727272727272 732.6666666666667 150.72727272727272 L 732.6666666666667 282 Z" fill="#2a78d6"/><text x="721.6666666666667" y="139.72727272727272" font-family="system-ui, -apple-system, 'Segoe UI', sans-serif" font-size="10.5" fill="#0b0b0b" text-anchor="middle" font-weight="600" font-variant-numeric="tabular-nums">8/11</text><path d="M 734.6666666666667 282 L 734.6666666666667 167.63636363636363 Q 734.6666666666667 163.63636363636363 738.6666666666667 163.63636363636363 L 752.6666666666667 163.63636363636363 Q 756.6666666666667 163.63636363636363 756.6666666666667 167.63636363636363 L 756.6666666666667 282 Z" fill="#1baf7a"/><text x="745.6666666666667" y="156.63636363636363" font-family="system-ui, -apple-system, 'Segoe UI', sans-serif" font-size="10.5" fill="#0b0b0b" text-anchor="middle" font-weight="600" font-variant-numeric="tabular-nums">7/11</text><path d="M 758.6666666666667 282 L 758.6666666666667 167.63636363636363 Q 758.6666666666667 163.63636363636363 762.6666666666667 163.63636363636363 L 776.6666666666667 163.63636363636363 Q 780.6666666666667 163.63636363636363 780.6666666666667 167.63636363636363 L 780.6666666666667 282 Z" fill="#1c5cab"/><text x="769.6666666666667" y="156.63636363636363" font-family="system-ui, -apple-system, 'Segoe UI', sans-serif" font-size="10.5" fill="#0b0b0b" text-anchor="middle" font-weight="600" font-variant-numeric="tabular-nums">7/11</text><text x="722.6666666666667" y="302" font-family="system-ui, -apple-system, 'Segoe UI', sans-serif" font-size="12.5" fill="#0b0b0b" text-anchor="middle" font-weight="600">conditional escalation</text><text x="722.6666666666667" y="318" font-family="system-ui, -apple-system, 'Segoe UI', sans-serif" font-size="10.5" fill="#898781" text-anchor="middle" font-weight="400">escalate-hot-services</text><line x1="56" y1="282" x2="856" y2="282" stroke="#c3c2b7" stroke-width="1"/></svg>