<svg xmlns="http://www.w3.org/2000/svg" width="920" height="400" viewBox="0 0 920 400" role="img">
<rect width="920" height="400" fill="#fcfcfb" rx="8"/>
<text x="16" y="28" font-family="system-ui, -apple-system, 'Segoe UI', sans-serif" font-size="15" fill="#0b0b0b" text-anchor="start" font-weight="600">Production scale: the tool baseline inverts — worst accuracy at 12× the context</text><text x="16" y="46" font-family="system-ui, -apple-system, 'Segoe UI', sans-serif" font-size="12" fill="#52514e" text-anchor="start" font-weight="400">40 servers · 367 tools · 72 tables, ~95% noise · 11 models per cell · pass rate + arm economics</text><rect x="16" y="58" width="12" height="12" rx="3" fill="#898781"/><text x="34" y="68" font-family="system-ui, -apple-system, 'Segoe UI', sans-serif" font-size="12" fill="#52514e" text-anchor="start" font-weight="400">baseline (367 tools)</text><rect x="191" y="58" width="12" height="12" rx="3" fill="#2a78d6"/><text x="209" y="68" font-family="system-ui, -apple-system, 'Segoe UI', sans-serif" font-size="12" fill="#52514e" text-anchor="start" font-weight="400">SQL</text><rect x="366" y="58" width="12" height="12" rx="3" fill="#1baf7a"/><text x="384" y="68" font-family="system-ui, -apple-system, 'Segoe UI', sans-serif" font-size="12" fill="#52514e" text-anchor="start" font-weight="400">Lisp</text><rect x="541" y="58" width="12" height="12" rx="3" fill="#1c5cab"/><text x="559" y="68" font-family="system-ui, -apple-system, 'Segoe UI', sans-serif" font-size="12" fill="#52514e" text-anchor="start" font-weight="400">both</text><line x1="56" y1="326" x2="584" y2="326" stroke="#e1e0d9" stroke-width="1"/><text x="48" y="330" font-family="system-ui, -apple-system, 'Segoe UI', sans-serif" font-size="11" fill="#898781" text-anchor="end" font-weight="400" font-variant-numeric="tabular-nums">0%</text><line x1="56" y1="268.5" x2="584" y2="268.5" stroke="#e1e0d9" stroke-width="1"/><text x="48" y="272.5" font-family="system-ui, -apple-system, 'Segoe UI', sans-serif" font-size="11" fill="#898781" text-anchor="end" font-weight="400" font-variant-numeric="tabular-nums">25%</text><line x1="56" y1="211" x2="584" y2="211" stroke="#e1e0d9" stroke-width="1"/><text x="48" y="215" font-family="system-ui, -apple-system, 'Segoe UI', sans-serif" font-size="11" fill="#898781" text-anchor="end" font-weight="400" font-variant-numeric="tabular-nums">50%</text><line x1="56" y1="153.5" x2="584" y2="153.5" stroke="#e1e0d9" stroke-width="1"/><text x="48" y="157.5" font-family="system-ui, -apple-system, 'Segoe UI', sans-serif" font-size="11" fill="#898781" text-anchor="end" font-weight="400" font-variant-numeric="tabular-nums">75%</text><line x1="56" y1="96" x2="584" y2="96" stroke="#e1e0d9" stroke-width="1"/><text x="48" y="100" font-family="system-ui, -apple-system, 'Segoe UI', sans-serif" font-size="11" fill="#898781" text-anchor="end" font-weight="400" font-variant-numeric="tabular-nums">100%</text><path d="M 113.66666666666669 326 L 113.66666666666669 267.27272727272725 Q 113.66666666666669 263.27272727272725 117.66666666666669 263.27272727272725 L 129.66666666666669 263.27272727272725 Q 133.66666666666669 263.27272727272725 133.66666666666669 267.27272727272725 L 133.66666666666669 326 Z" fill="#898781"/><text x="123.66666666666669" y="256.27272727272725" font-family="system-ui, -apple-system, 'Segoe UI', sans-serif" font-size="10.5" fill="#0b0b0b" text-anchor="middle" font-weight="600" font-variant-numeric="tabular-nums">3</text><path d="M 135.66666666666669 326 L 135.66666666666669 162.72727272727272 Q 135.66666666666669 158.72727272727272 139.66666666666669 158.72727272727272 L 151.66666666666669 158.72727272727272 Q 155.66666666666669 158.72727272727272 155.66666666666669 162.72727272727272 L 155.66666666666669 326 Z" fill="#2a78d6"/><text x="145.66666666666669" y="151.72727272727272" font-family="system-ui, -apple-system, 'Segoe UI', sans-serif" font-size="10.5" fill="#0b0b0b" text-anchor="middle" font-weight="600" font-variant-numeric="tabular-nums">8</text><path d="M 157.66666666666669 326 L 157.66666666666669 204.54545454545456 Q 157.66666666666669 200.54545454545456 161.66666666666669 200.54545454545456 L 173.66666666666669 200.54545454545456 Q 177.66666666666669 200.54545454545456 177.66666666666669 204.54545454545456 L 177.66666666666669 326 Z" fill="#1baf7a"/><text x="167.66666666666669" y="193.54545454545456" font-family="system-ui, -apple-system, 'Segoe UI', sans-serif" font-size="10.5" fill="#0b0b0b" text-anchor="middle" font-weight="600" font-variant-numeric="tabular-nums">6</text><path d="M 179.66666666666669 326 L 179.66666666666669 183.63636363636363 Q 179.66666666666669 179.63636363636363 183.66666666666669 179.63636363636363 L 195.66666666666669 179.63636363636363 Q 199.66666666666669 179.63636363636363 199.66666666666669 183.63636363636363 L 199.66666666666669 326 Z" fill="#1c5cab"/><text x="189.66666666666669" y="172.63636363636363" font-family="system-ui, -apple-system, 'Segoe UI', sans-serif" font-size="10.5" fill="#0b0b0b" text-anchor="middle" font-weight="600" font-variant-numeric="tabular-nums">7</text><text x="146.66666666666669" y="346" font-family="system-ui, -apple-system, 'Segoe UI', sans-serif" font-size="12.5" fill="#0b0b0b" text-anchor="middle" font-weight="600">incident commander</text><text x="146.66666666666669" y="362" font-family="system-ui, -apple-system, 'Segoe UI', sans-serif" font-size="10.5" fill="#898781" text-anchor="middle" font-weight="400">5 effects · 4 services</text><path d="M 295 326 L 295 162.72727272727272 Q 295 158.72727272727272 299 158.72727272727272 L 311 158.72727272727272 Q 315 158.72727272727272 315 162.72727272727272 L 315 326 Z" fill="#898781"/><text x="305" y="151.72727272727272" font-family="system-ui, -apple-system, 'Segoe UI', sans-serif" font-size="10.5" fill="#0b0b0b" text-anchor="middle" font-weight="600" font-variant-numeric="tabular-nums">8</text><path d="M 317 326 L 317 141.8181818181818 Q 317 137.8181818181818 321 137.8181818181818 L 333 137.8181818181818 Q 337 137.8181818181818 337 141.8181818181818 L 337 326 Z" fill="#2a78d6"/><text x="327" y="130.8181818181818" font-family="system-ui, -apple-system, 'Segoe UI', sans-serif" font-size="10.5" fill="#0b0b0b" text-anchor="middle" font-weight="600" font-variant-numeric="tabular-nums">9</text><path d="M 339 326 L 339 120.9090909090909 Q 339 116.9090909090909 343 116.9090909090909 L 355 116.9090909090909 Q 359 116.9090909090909 359 120.9090909090909 L 359 326 Z" fill="#1baf7a"/><text x="349" y="109.9090909090909" font-family="system-ui, -apple-system, 'Segoe UI', sans-serif" font-size="10.5" fill="#0b0b0b" text-anchor="middle" font-weight="600" font-variant-numeric="tabular-nums">10</text><path d="M 361 326 L 361 141.8181818181818 Q 361 137.8181818181818 365 137.8181818181818 L 377 137.8181818181818 Q 381 137.8181818181818 381 141.8181818181818 L 381 326 Z" fill="#1c5cab"/><text x="371" y="130.8181818181818" font-family="system-ui, -apple-system, 'Segoe UI', sans-serif" font-size="10.5" fill="#0b0b0b" text-anchor="middle" font-weight="600" font-variant-numeric="tabular-nums">9</text><text x="328" y="346" font-family="system-ui, -apple-system, 'Segoe UI', sans-serif" font-size="12.5" fill="#0b0b0b" text-anchor="middle" font-weight="600">heavy-PR audit</text><text x="328" y="362" font-family="system-ui, -apple-system, 'Segoe UI', sans-serif" font-size="10.5" fill="#898781" text-anchor="middle" font-weight="400">grouped negation</text><path d="M 476.33333333333337 326 L 476.33333333333337 204.54545454545456 Q 476.33333333333337 200.54545454545456 480.33333333333337 200.54545454545456 L 492.33333333333337 200.54545454545456 Q 496.33333333333337 200.54545454545456 496.33333333333337 204.54545454545456 L 496.33333333333337 326 Z" fill="#898781"/><text x="486.33333333333337" y="193.54545454545456" font-family="system-ui, -apple-system, 'Segoe UI', sans-serif" font-size="10.5" fill="#0b0b0b" text-anchor="middle" font-weight="600" font-variant-numeric="tabular-nums">6</text><path d="M 498.33333333333337 326 L 498.33333333333337 204.54545454545456 Q 498.33333333333337 200.54545454545456 502.33333333333337 200.54545454545456 L 514.3333333333334 200.54545454545456 Q 518.3333333333334 200.54545454545456 518.3333333333334 204.54545454545456 L 518.3333333333334 326 Z" fill="#2a78d6"/><text x="508.33333333333337" y="193.54545454545456" font-family="system-ui, -apple-system, 'Segoe UI', sans-serif" font-size="10.5" fill="#0b0b0b" text-anchor="middle" font-weight="600" font-variant-numeric="tabular-nums">6</text><path d="M 520.3333333333334 326 L 520.3333333333334 267.27272727272725 Q 520.3333333333334 263.27272727272725 524.3333333333334 263.27272727272725 L 536.3333333333334 263.27272727272725 Q 540.3333333333334 263.27272727272725 540.3333333333334 267.27272727272725 L 540.3333333333334 326 Z" fill="#1baf7a"/><text x="530.3333333333334" y="256.27272727272725" font-family="system-ui, -apple-system, 'Segoe UI', sans-serif" font-size="10.5" fill="#0b0b0b" text-anchor="middle" font-weight="600" font-variant-numeric="tabular-nums">3</text><path d="M 542.3333333333334 326 L 542.3333333333334 246.36363636363637 Q 542.3333333333334 242.36363636363637 546.3333333333334 242.36363636363637 L 558.3333333333334 242.36363636363637 Q 562.3333333333334 242.36363636363637 562.3333333333334 246.36363636363637 L 562.3333333333334 326 Z" fill="#1c5cab"/><text x="552.3333333333334" y="235.36363636363637" font-family="system-ui, -apple-system, 'Segoe UI', sans-serif" font-size="10.5" fill="#0b0b0b" text-anchor="middle" font-weight="600" font-variant-numeric="tabular-nums">4</text><text x="509.33333333333337" y="346" font-family="system-ui, -apple-system, 'Segoe UI', sans-serif" font-size="12.5" fill="#0b0b0b" text-anchor="middle" font-weight="600">needle sweep</text><text x="509.33333333333337" y="362" font-family="system-ui, -apple-system, 'Segoe UI', sans-serif" font-size="10.5" fill="#898781" text-anchor="middle" font-weight="400">3 of 72 tables matter</text><line x1="56" y1="326" x2="584" y2="326" stroke="#c3c2b7" stroke-width="1"/><text x="608" y="96" font-family="system-ui, -apple-system, 'Segoe UI', sans-serif" font-size="12.5" fill="#0b0b0b" text-anchor="start" font-weight="600">Arm economics (33 tasks each)</text><rect x="608" y="110" width="12" height="12" rx="3" fill="#898781"/><text x="626" y="120" font-family="system-ui, -apple-system, 'Segoe UI', sans-serif" font-size="11.5" fill="#0b0b0b" text-anchor="start" font-weight="600">baseline (367 tools)</text><text x="626" y="136" font-family="system-ui, -apple-system, 'Segoe UI', sans-serif" font-size="11" fill="#52514e" text-anchor="start" font-weight="400" font-variant-numeric="tabular-nums">pass 17/33 · median peak 47,878 tok</text><text x="626" y="152" font-family="system-ui, -apple-system, 'Segoe UI', sans-serif" font-size="11" fill="#d03b3b" text-anchor="start" font-weight="600" font-variant-numeric="tabular-nums">arm cost $1.26</text><rect x="608" y="172" width="12" height="12" rx="3" fill="#2a78d6"/><text x="626" y="182" font-family="system-ui, -apple-system, 'Segoe UI', sans-serif" font-size="11.5" fill="#0b0b0b" text-anchor="start" font-weight="600">SQL</text><text x="626" y="198" font-family="system-ui, -apple-system, 'Segoe UI', sans-serif" font-size="11" fill="#52514e" text-anchor="start" font-weight="400" font-variant-numeric="tabular-nums">pass 23/33 · median peak 4,061 tok</text><text x="626" y="214" font-family="system-ui, -apple-system, 'Segoe UI', sans-serif" font-size="11" fill="#006300" text-anchor="start" font-weight="600" font-variant-numeric="tabular-nums">arm cost $0.23</text><rect x="608" y="234" width="12" height="12" rx="3" fill="#1baf7a"/><text x="626" y="244" font-family="system-ui, -apple-system, 'Segoe UI', sans-serif" font-size="11.5" fill="#0b0b0b" text-anchor="start" font-weight="600">Lisp</text><text x="626" y="260" font-family="system-ui, -apple-system, 'Segoe UI', sans-serif" font-size="11" fill="#52514e" text-anchor="start" font-weight="400" font-variant-numeric="tabular-nums">pass 19/33 · median peak 4,588 tok</text><text x="626" y="276" font-family="system-ui, -apple-system, 'Segoe UI', sans-serif" font-size="11" fill="#006300" text-anchor="start" font-weight="600" font-variant-numeric="tabular-nums">arm cost $0.25</text><rect x="608" y="296" width="12" height="12" rx="3" fill="#1c5cab"/><text x="626" y="306" font-family="system-ui, -apple-system, 'Segoe UI', sans-serif" font-size="11.5" fill="#0b0b0b" text-anchor="start" font-weight="600">both</text><text x="626" y="322" font-family="system-ui, -apple-system, 'Segoe UI', sans-serif" font-size="11" fill="#52514e" text-anchor="start" font-weight="400" font-variant-numeric="tabular-nums">pass 20/33 · median peak 4,288 tok</text><text x="626" y="338" font-family="system-ui, -apple-system, 'Segoe UI', sans-serif" font-size="11" fill="#006300" text-anchor="start" font-weight="600" font-variant-numeric="tabular-nums">arm cost $0.20</text></svg>