<svg xmlns="http://www.w3.org/2000/svg" width="920" height="300" viewBox="0 0 920 300" role="img">
<rect width="920" height="300" fill="#fcfcfb" rx="8"/>
<text x="16" y="28" font-family="system-ui, -apple-system, 'Segoe UI', sans-serif" font-size="15" fill="#0b0b0b" text-anchor="start" font-weight="600">The cost of an answer collapses and stays flat</text><text x="16" y="46" font-family="system-ui, -apple-system, 'Segoe UI', sans-serif" font-size="12" fill="#52514e" text-anchor="start" font-weight="400">Same scratchpad arm across hardening versions — fewer calls, fewer turns, small prompts</text><text x="22" y="68" font-family="system-ui, -apple-system, 'Segoe UI', sans-serif" font-size="12.5" fill="#0b0b0b" text-anchor="start" font-weight="600">Median tool calls</text><line x1="22" y1="260" x2="287.3333333333333" y2="260" stroke="#c3c2b7" stroke-width="1"/><path d="M 37.53333333333333 260 L 37.53333333333333 126 Q 37.53333333333333 122 41.53333333333333 122 L 55.53333333333333 122 Q 59.53333333333333 122 59.53333333333333 126 L 59.53333333333333 260 Z" fill="#2a78d6"/><text x="48.53333333333333" y="115" font-family="system-ui, -apple-system, 'Segoe UI', sans-serif" font-size="11.5" fill="#0b0b0b" text-anchor="middle" font-weight="600" font-variant-numeric="tabular-nums">6</text><text x="48.53333333333333" y="278" font-family="system-ui, -apple-system, 'Segoe UI', sans-serif" font-size="11" fill="#898781" text-anchor="middle" font-weight="400">v1</text><path d="M 90.6 260 L 90.6 195 Q 90.6 191 94.6 191 L 108.6 191 Q 112.6 191 112.6 195 L 112.6 260 Z" fill="#2a78d6"/><text x="101.6" y="184" font-family="system-ui, -apple-system, 'Segoe UI', sans-serif" font-size="11.5" fill="#0b0b0b" text-anchor="middle" font-weight="600" font-variant-numeric="tabular-nums">3</text><text x="101.6" y="278" font-family="system-ui, -apple-system, 'Segoe UI', sans-serif" font-size="11" fill="#898781" text-anchor="middle" font-weight="400">v2</text><path d="M 143.66666666666666 260 L 143.66666666666666 218 Q 143.66666666666666 214 147.66666666666666 214 L 161.66666666666666 214 Q 165.66666666666666 214 165.66666666666666 218 L 165.66666666666666 260 Z" fill="#2a78d6"/><text x="154.66666666666666" y="207" font-family="system-ui, -apple-system, 'Segoe UI', sans-serif" font-size="11.5" fill="#0b0b0b" text-anchor="middle" font-weight="600" font-variant-numeric="tabular-nums">2</text><text x="154.66666666666666" y="278" font-family="system-ui, -apple-system, 'Segoe UI', sans-serif" font-size="11" fill="#898781" text-anchor="middle" font-weight="400">v3</text><path d="M 196.73333333333332 260 L 196.73333333333332 218 Q 196.73333333333332 214 200.73333333333332 214 L 214.73333333333332 214 Q 218.73333333333332 214 218.73333333333332 218 L 218.73333333333332 260 Z" fill="#2a78d6"/><text x="207.73333333333332" y="207" font-family="system-ui, -apple-system, 'Segoe UI', sans-serif" font-size="11.5" fill="#0b0b0b" text-anchor="middle" font-weight="600" font-variant-numeric="tabular-nums">2</text><text x="207.73333333333332" y="278" font-family="system-ui, -apple-system, 'Segoe UI', sans-serif" font-size="11" fill="#898781" text-anchor="middle" font-weight="400">v4</text><path d="M 249.79999999999995 260 L 249.79999999999995 218 Q 249.79999999999995 214 253.79999999999995 214 L 267.79999999999995 214 Q 271.79999999999995 214 271.79999999999995 218 L 271.79999999999995 260 Z" fill="#2a78d6"/><text x="260.79999999999995" y="207" font-family="system-ui, -apple-system, 'Segoe UI', sans-serif" font-size="11.5" fill="#0b0b0b" text-anchor="middle" font-weight="600" font-variant-numeric="tabular-nums">2</text><text x="260.79999999999995" y="278" font-family="system-ui, -apple-system, 'Segoe UI', sans-serif" font-size="11" fill="#898781" text-anchor="middle" font-weight="400">v5</text><text x="327.3333333333333" y="68" font-family="system-ui, -apple-system, 'Segoe UI', sans-serif" font-size="12.5" fill="#0b0b0b" text-anchor="start" font-weight="600">Average turns</text><line x1="327.3333333333333" y1="260" x2="592.6666666666666" y2="260" stroke="#c3c2b7" stroke-width="1"/><path d="M 342.8666666666667 260 L 342.8666666666667 95.33333333333334 Q 342.8666666666667 91.33333333333334 346.8666666666667 91.33333333333334 L 360.8666666666667 91.33333333333334 Q 364.8666666666667 91.33333333333334 364.8666666666667 95.33333333333334 L 364.8666666666667 260 Z" fill="#2a78d6"/><text x="353.8666666666667" y="84.33333333333334" font-family="system-ui, -apple-system, 'Segoe UI', sans-serif" font-size="11.5" fill="#0b0b0b" text-anchor="middle" font-weight="600" font-variant-numeric="tabular-nums">11.0</text><text x="353.8666666666667" y="278" font-family="system-ui, -apple-system, 'Segoe UI', sans-serif" font-size="11" fill="#898781" text-anchor="middle" font-weight="400">v1</text><path d="M 395.9333333333333 260 L 395.9333333333333 201.13333333333333 Q 395.9333333333333 197.13333333333333 399.9333333333333 197.13333333333333 L 413.9333333333333 197.13333333333333 Q 417.9333333333333 197.13333333333333 417.9333333333333 201.13333333333333 L 417.9333333333333 260 Z" fill="#2a78d6"/><text x="406.9333333333333" y="190.13333333333333" font-family="system-ui, -apple-system, 'Segoe UI', sans-serif" font-size="11.5" fill="#0b0b0b" text-anchor="middle" font-weight="600" font-variant-numeric="tabular-nums">4.1</text><text x="406.9333333333333" y="278" font-family="system-ui, -apple-system, 'Segoe UI', sans-serif" font-size="11" fill="#898781" text-anchor="middle" font-weight="400">v2</text><path d="M 449 260 L 449 210.33333333333331 Q 449 206.33333333333331 453 206.33333333333331 L 467 206.33333333333331 Q 471 206.33333333333331 471 210.33333333333331 L 471 260 Z" fill="#2a78d6"/><text x="460" y="199.33333333333331" font-family="system-ui, -apple-system, 'Segoe UI', sans-serif" font-size="11.5" fill="#0b0b0b" text-anchor="middle" font-weight="600" font-variant-numeric="tabular-nums">3.5</text><text x="460" y="278" font-family="system-ui, -apple-system, 'Segoe UI', sans-serif" font-size="11" fill="#898781" text-anchor="middle" font-weight="400">v3</text><path d="M 502.0666666666666 260 L 502.0666666666666 204.2 Q 502.0666666666666 200.2 506.0666666666666 200.2 L 520.0666666666666 200.2 Q 524.0666666666666 200.2 524.0666666666666 204.2 L 524.0666666666666 260 Z" fill="#2a78d6"/><text x="513.0666666666666" y="193.2" font-family="system-ui, -apple-system, 'Segoe UI', sans-serif" font-size="11.5" fill="#0b0b0b" text-anchor="middle" font-weight="600" font-variant-numeric="tabular-nums">3.9</text><text x="513.0666666666666" y="278" font-family="system-ui, -apple-system, 'Segoe UI', sans-serif" font-size="11" fill="#898781" text-anchor="middle" font-weight="400">v4</text><path d="M 555.1333333333332 260 L 555.1333333333332 207.26666666666665 Q 555.1333333333332 203.26666666666665 559.1333333333332 203.26666666666665 L 573.1333333333332 203.26666666666665 Q 577.1333333333332 203.26666666666665 577.1333333333332 207.26666666666665 L 577.1333333333332 260 Z" fill="#2a78d6"/><text x="566.1333333333332" y="196.26666666666665" font-family="system-ui, -apple-system, 'Segoe UI', sans-serif" font-size="11.5" fill="#0b0b0b" text-anchor="middle" font-weight="600" font-variant-numeric="tabular-nums">3.7</text><text x="566.1333333333332" y="278" font-family="system-ui, -apple-system, 'Segoe UI', sans-serif" font-size="11" fill="#898781" text-anchor="middle" font-weight="400">v5</text><text x="632.6666666666666" y="68" font-family="system-ui, -apple-system, 'Segoe UI', sans-serif" font-size="12.5" fill="#0b0b0b" text-anchor="start" font-weight="600">Average peak context (tokens)</text><line x1="632.6666666666666" y1="260" x2="898" y2="260" stroke="#c3c2b7" stroke-width="1"/><path d="M 648.1999999999999 260 L 648.1999999999999 93.7425 Q 648.1999999999999 89.7425 652.1999999999999 89.7425 L 666.1999999999999 89.7425 Q 670.1999999999999 89.7425 670.1999999999999 93.7425 L 670.1999999999999 260 Z" fill="#2a78d6"/><text x="659.1999999999999" y="82.7425" font-family="system-ui, -apple-system, 'Segoe UI', sans-serif" font-size="11.5" fill="#0b0b0b" text-anchor="middle" font-weight="600" font-variant-numeric="tabular-nums">2,961</text><text x="659.1999999999999" y="278" font-family="system-ui, -apple-system, 'Segoe UI', sans-serif" font-size="11" fill="#898781" text-anchor="middle" font-weight="400">v1</text><path d="M 701.2666666666667 260 L 701.2666666666667 140.375 Q 701.2666666666667 136.375 705.2666666666667 136.375 L 719.2666666666667 136.375 Q 723.2666666666667 136.375 723.2666666666667 140.375 L 723.2666666666667 260 Z" fill="#2a78d6"/><text x="712.2666666666667" y="129.375" font-family="system-ui, -apple-system, 'Segoe UI', sans-serif" font-size="11.5" fill="#0b0b0b" text-anchor="middle" font-weight="600" font-variant-numeric="tabular-nums">2,150</text><text x="712.2666666666667" y="278" font-family="system-ui, -apple-system, 'Segoe UI', sans-serif" font-size="11" fill="#898781" text-anchor="middle" font-weight="400">v2</text><path d="M 754.3333333333333 260 L 754.3333333333333 138.765 Q 754.3333333333333 134.765 758.3333333333333 134.765 L 772.3333333333333 134.765 Q 776.3333333333333 134.765 776.3333333333333 138.765 L 776.3333333333333 260 Z" fill="#2a78d6"/><text x="765.3333333333333" y="127.76499999999999" font-family="system-ui, -apple-system, 'Segoe UI', sans-serif" font-size="11.5" fill="#0b0b0b" text-anchor="middle" font-weight="600" font-variant-numeric="tabular-nums">2,178</text><text x="765.3333333333333" y="278" font-family="system-ui, -apple-system, 'Segoe UI', sans-serif" font-size="11" fill="#898781" text-anchor="middle" font-weight="400">v3</text><path d="M 807.3999999999999 260 L 807.3999999999999 135.43 Q 807.3999999999999 131.43 811.3999999999999 131.43 L 825.3999999999999 131.43 Q 829.3999999999999 131.43 829.3999999999999 135.43 L 829.3999999999999 260 Z" fill="#2a78d6"/><text x="818.3999999999999" y="124.43" font-family="system-ui, -apple-system, 'Segoe UI', sans-serif" font-size="11.5" fill="#0b0b0b" text-anchor="middle" font-weight="600" font-variant-numeric="tabular-nums">2,236</text><text x="818.3999999999999" y="278" font-family="system-ui, -apple-system, 'Segoe UI', sans-serif" font-size="11" fill="#898781" text-anchor="middle" font-weight="400">v4</text><path d="M 860.4666666666666 260 L 860.4666666666666 136.1775 Q 860.4666666666666 132.1775 864.4666666666666 132.1775 L 878.4666666666666 132.1775 Q 882.4666666666666 132.1775 882.4666666666666 136.1775 L 882.4666666666666 260 Z" fill="#2a78d6"/><text x="871.4666666666666" y="125.17750000000001" font-family="system-ui, -apple-system, 'Segoe UI', sans-serif" font-size="11.5" fill="#0b0b0b" text-anchor="middle" font-weight="600" font-variant-numeric="tabular-nums">2,223</text><text x="871.4666666666666" y="278" font-family="system-ui, -apple-system, 'Segoe UI', sans-serif" font-size="11" fill="#898781" text-anchor="middle" font-weight="400">v5</text></svg>