<svg xmlns="http://www.w3.org/2000/svg" width="880" height="452" viewBox="0 0 880 452" role="img">
<rect width="880" height="452" fill="#fcfcfb" rx="8"/>
<text x="16" y="28" font-family="system-ui, -apple-system, 'Segoe UI', sans-serif" font-size="15" fill="#0b0b0b" text-anchor="start" font-weight="600">One SQL tool beats 32 folded tools — at every capability tier</text><text x="16" y="46" font-family="system-ui, -apple-system, 'Segoe UI', sans-serif" font-size="12" fill="#52514e" text-anchor="start" font-weight="400">Tasks passed out of 7 per model · same servers, same tasks, same grader in both arms</text><rect x="16" y="58" width="12" height="12" rx="3" fill="#898781"/><text x="34" y="68" font-family="system-ui, -apple-system, 'Segoe UI', sans-serif" font-size="12" fill="#52514e" text-anchor="start" font-weight="400">baseline: 32 MCP tools folded directly</text><rect x="292" y="58" width="12" height="12" rx="3" fill="#2a78d6"/><text x="310" y="68" font-family="system-ui, -apple-system, 'Segoe UI', sans-serif" font-size="12" fill="#52514e" text-anchor="start" font-weight="400">scratchpad: one execute_sql over the same capabilities</text><line x1="172" y1="88" x2="172" y2="388" stroke="#e1e0d9" stroke-width="1"/><text x="172" y="406" font-family="system-ui, -apple-system, 'Segoe UI', sans-serif" font-size="11" fill="#898781" text-anchor="middle" font-weight="400" font-variant-numeric="tabular-nums">0</text><line x1="251.71428571428572" y1="88" x2="251.71428571428572" y2="388" stroke="#e1e0d9" stroke-width="1"/><text x="251.71428571428572" y="406" font-family="system-ui, -apple-system, 'Segoe UI', sans-serif" font-size="11" fill="#898781" text-anchor="middle" font-weight="400" font-variant-numeric="tabular-nums">1</text><line x1="331.42857142857144" y1="88" x2="331.42857142857144" y2="388" stroke="#e1e0d9" stroke-width="1"/><text x="331.42857142857144" y="406" font-family="system-ui, -apple-system, 'Segoe UI', sans-serif" font-size="11" fill="#898781" text-anchor="middle" font-weight="400" font-variant-numeric="tabular-nums">2</text><line x1="411.1428571428571" y1="88" x2="411.1428571428571" y2="388" stroke="#e1e0d9" stroke-width="1"/><text x="411.1428571428571" y="406" font-family="system-ui, -apple-system, 'Segoe UI', sans-serif" font-size="11" fill="#898781" text-anchor="middle" font-weight="400" font-variant-numeric="tabular-nums">3</text><line x1="490.85714285714283" y1="88" x2="490.85714285714283" y2="388" stroke="#e1e0d9" stroke-width="1"/><text x="490.85714285714283" y="406" font-family="system-ui, -apple-system, 'Segoe UI', sans-serif" font-size="11" fill="#898781" text-anchor="middle" font-weight="400" font-variant-numeric="tabular-nums">4</text><line x1="570.5714285714286" y1="88" x2="570.5714285714286" y2="388" stroke="#e1e0d9" stroke-width="1"/><text x="570.5714285714286" y="406" font-family="system-ui, -apple-system, 'Segoe UI', sans-serif" font-size="11" fill="#898781" text-anchor="middle" font-weight="400" font-variant-numeric="tabular-nums">5</text><line x1="650.2857142857142" y1="88" x2="650.2857142857142" y2="388" stroke="#e1e0d9" stroke-width="1"/><text x="650.2857142857142" y="406" font-family="system-ui, -apple-system, 'Segoe UI', sans-serif" font-size="11" fill="#898781" text-anchor="middle" font-weight="400" font-variant-numeric="tabular-nums">6</text><line x1="730" y1="88" x2="730" y2="388" stroke="#e1e0d9" stroke-width="1"/><text x="730" y="406" font-family="system-ui, -apple-system, 'Segoe UI', sans-serif" font-size="11" fill="#898781" text-anchor="middle" font-weight="400" font-variant-numeric="tabular-nums">7</text><text x="162" y="106" font-family="system-ui, -apple-system, 'Segoe UI', sans-serif" font-size="12.5" fill="#0b0b0b" text-anchor="end" font-weight="600">Kimi K2.7 Code</text><text x="162" y="121" font-family="system-ui, -apple-system, 'Segoe UI', sans-serif" font-size="10.5" fill="#898781" text-anchor="end" font-weight="400">OSS frontier</text><path d="M 172 94 L 566.5714285714286 94 Q 570.5714285714286 94 570.5714285714286 98 L 570.5714285714286 106 Q 570.5714285714286 110 566.5714285714286 110 L 172 110 Z" fill="#898781"/><path d="M 172 112 L 726 112 Q 730 112 730 116 L 730 124 Q 730 128 726 128 L 172 128 Z" fill="#2a78d6"/><text x="578.5714285714286" y="106" font-family="system-ui, -apple-system, 'Segoe UI', sans-serif" font-size="11.5" fill="#52514e" text-anchor="start" font-weight="400" font-variant-numeric="tabular-nums">5/7</text><text x="738" y="124" font-family="system-ui, -apple-system, 'Segoe UI', sans-serif" font-size="11.5" fill="#0b0b0b" text-anchor="start" font-weight="600" font-variant-numeric="tabular-nums">7/7</text><text x="162" y="156" font-family="system-ui, -apple-system, 'Segoe UI', sans-serif" font-size="12.5" fill="#0b0b0b" text-anchor="end" font-weight="600">GLM-5</text><text x="162" y="171" font-family="system-ui, -apple-system, 'Segoe UI', sans-serif" font-size="10.5" fill="#898781" text-anchor="end" font-weight="400">OSS frontier</text><path d="M 172 144 L 486.85714285714283 144 Q 490.85714285714283 144 490.85714285714283 148 L 490.85714285714283 156 Q 490.85714285714283 160 486.85714285714283 160 L 172 160 Z" fill="#898781"/><path d="M 172 162 L 726 162 Q 730 162 730 166 L 730 174 Q 730 178 726 178 L 172 178 Z" fill="#2a78d6"/><text x="498.85714285714283" y="156" font-family="system-ui, -apple-system, 'Segoe UI', sans-serif" font-size="11.5" fill="#52514e" text-anchor="start" font-weight="400" font-variant-numeric="tabular-nums">4/7</text><text x="738" y="174" font-family="system-ui, -apple-system, 'Segoe UI', sans-serif" font-size="11.5" fill="#0b0b0b" text-anchor="start" font-weight="600" font-variant-numeric="tabular-nums">7/7</text><text x="162" y="206" font-family="system-ui, -apple-system, 'Segoe UI', sans-serif" font-size="12.5" fill="#0b0b0b" text-anchor="end" font-weight="600">MiniMax M3</text><text x="162" y="221" font-family="system-ui, -apple-system, 'Segoe UI', sans-serif" font-size="10.5" fill="#898781" text-anchor="end" font-weight="400">OSS frontier</text><path d="M 172 194 L 726 194 Q 730 194 730 198 L 730 206 Q 730 210 726 210 L 172 210 Z" fill="#898781"/><path d="M 172 212 L 726 212 Q 730 212 730 216 L 730 224 Q 730 228 726 228 L 172 228 Z" fill="#2a78d6"/><text x="738" y="206" font-family="system-ui, -apple-system, 'Segoe UI', sans-serif" font-size="11.5" fill="#52514e" text-anchor="start" font-weight="400" font-variant-numeric="tabular-nums">7/7</text><text x="738" y="224" font-family="system-ui, -apple-system, 'Segoe UI', sans-serif" font-size="11.5" fill="#0b0b0b" text-anchor="start" font-weight="600" font-variant-numeric="tabular-nums">7/7</text><text x="162" y="256" font-family="system-ui, -apple-system, 'Segoe UI', sans-serif" font-size="12.5" fill="#0b0b0b" text-anchor="end" font-weight="600">DeepSeek V4 Flash</text><text x="162" y="271" font-family="system-ui, -apple-system, 'Segoe UI', sans-serif" font-size="10.5" fill="#898781" text-anchor="end" font-weight="400">cheap / weak</text><path d="M 172 244 L 726 244 Q 730 244 730 248 L 730 256 Q 730 260 726 260 L 172 260 Z" fill="#898781"/><path d="M 172 262 L 726 262 Q 730 262 730 266 L 730 274 Q 730 278 726 278 L 172 278 Z" fill="#2a78d6"/><text x="738" y="256" font-family="system-ui, -apple-system, 'Segoe UI', sans-serif" font-size="11.5" fill="#52514e" text-anchor="start" font-weight="400" font-variant-numeric="tabular-nums">7/7</text><text x="738" y="274" font-family="system-ui, -apple-system, 'Segoe UI', sans-serif" font-size="11.5" fill="#0b0b0b" text-anchor="start" font-weight="600" font-variant-numeric="tabular-nums">7/7</text><text x="162" y="306" font-family="system-ui, -apple-system, 'Segoe UI', sans-serif" font-size="12.5" fill="#0b0b0b" text-anchor="end" font-weight="600">Qwen3 30B A3B</text><text x="162" y="321" font-family="system-ui, -apple-system, 'Segoe UI', sans-serif" font-size="10.5" fill="#898781" text-anchor="end" font-weight="400">cheap / weak</text><path d="M 172 294 L 407.1428571428571 294 Q 411.1428571428571 294 411.1428571428571 298 L 411.1428571428571 306 Q 411.1428571428571 310 407.1428571428571 310 L 172 310 Z" fill="#898781"/><path d="M 172 312 L 646.2857142857142 312 Q 650.2857142857142 312 650.2857142857142 316 L 650.2857142857142 324 Q 650.2857142857142 328 646.2857142857142 328 L 172 328 Z" fill="#2a78d6"/><text x="419.1428571428571" y="306" font-family="system-ui, -apple-system, 'Segoe UI', sans-serif" font-size="11.5" fill="#52514e" text-anchor="start" font-weight="400" font-variant-numeric="tabular-nums">3/7</text><text x="658.2857142857142" y="324" font-family="system-ui, -apple-system, 'Segoe UI', sans-serif" font-size="11.5" fill="#0b0b0b" text-anchor="start" font-weight="600" font-variant-numeric="tabular-nums">6/7</text><text x="162" y="356" font-family="system-ui, -apple-system, 'Segoe UI', sans-serif" font-size="12.5" fill="#0b0b0b" text-anchor="end" font-weight="600">Qwen3 8B</text><text x="162" y="371" font-family="system-ui, -apple-system, 'Segoe UI', sans-serif" font-size="10.5" fill="#898781" text-anchor="end" font-weight="400">cheap / weak</text><path d="M 172 344 L 486.85714285714283 344 Q 490.85714285714283 344 490.85714285714283 348 L 490.85714285714283 356 Q 490.85714285714283 360 486.85714285714283 360 L 172 360 Z" fill="#898781"/><path d="M 172 362 L 566.5714285714286 362 Q 570.5714285714286 362 570.5714285714286 366 L 570.5714285714286 374 Q 570.5714285714286 378 566.5714285714286 378 L 172 378 Z" fill="#2a78d6"/><text x="498.85714285714283" y="356" font-family="system-ui, -apple-system, 'Segoe UI', sans-serif" font-size="11.5" fill="#52514e" text-anchor="start" font-weight="400" font-variant-numeric="tabular-nums">4/7</text><text x="578.5714285714286" y="374" font-family="system-ui, -apple-system, 'Segoe UI', sans-serif" font-size="11.5" fill="#0b0b0b" text-anchor="start" font-weight="600" font-variant-numeric="tabular-nums">5/7</text><line x1="12" y1="235" x2="790" y2="235" stroke="#c3c2b7" stroke-width="1" stroke-dasharray="none"/></svg>