<svg xmlns="http://www.w3.org/2000/svg" width="760" height="392" viewBox="0 0 760 392" role="img">
<rect width="760" height="392" fill="#fcfcfb" rx="8"/>
<text x="16" y="28" font-family="system-ui, -apple-system, 'Segoe UI', sans-serif" font-size="15" fill="#0b0b0b" text-anchor="start" font-weight="600">Under a 16k window, the baseline saturates and miscounts; the scratchpad doesn't notice</text><text x="16" y="46" font-family="system-ui, -apple-system, 'Segoe UI', sans-serif" font-size="12" fill="#52514e" text-anchor="start" font-weight="400">“How many PRs are open?” at scale 8 (~320 PRs) · peak prompt tokens; ✓/✗ = graded answer</text><rect x="16" y="58" width="12" height="12" rx="3" fill="#898781"/><text x="34" y="68" font-family="system-ui, -apple-system, 'Segoe UI', sans-serif" font-size="12" fill="#52514e" text-anchor="start" font-weight="400">baseline</text><rect x="110" y="58" width="12" height="12" rx="3" fill="#2a78d6"/><text x="128" y="68" font-family="system-ui, -apple-system, 'Segoe UI', sans-serif" font-size="12" fill="#52514e" text-anchor="start" font-weight="400">scratchpad</text><line x1="64" y1="316" x2="736" y2="316" stroke="#e1e0d9" stroke-width="1"/><text x="56" y="320" font-family="system-ui, -apple-system, 'Segoe UI', sans-serif" font-size="11" fill="#898781" text-anchor="end" font-weight="400" font-variant-numeric="tabular-nums">0</text><line x1="64" y1="265.3333333333333" x2="736" y2="265.3333333333333" stroke="#e1e0d9" stroke-width="1"/><text x="56" y="269.3333333333333" font-family="system-ui, -apple-system, 'Segoe UI', sans-serif" font-size="11" fill="#898781" text-anchor="end" font-weight="400" font-variant-numeric="tabular-nums">4k</text><line x1="64" y1="214.66666666666669" x2="736" y2="214.66666666666669" stroke="#e1e0d9" stroke-width="1"/><text x="56" y="218.66666666666669" font-family="system-ui, -apple-system, 'Segoe UI', sans-serif" font-size="11" fill="#898781" text-anchor="end" font-weight="400" font-variant-numeric="tabular-nums">8k</text><line x1="64" y1="164" x2="736" y2="164" stroke="#e1e0d9" stroke-width="1"/><text x="56" y="168" font-family="system-ui, -apple-system, 'Segoe UI', sans-serif" font-size="11" fill="#898781" text-anchor="end" font-weight="400" font-variant-numeric="tabular-nums">12k</text><line x1="64" y1="113.33333333333334" x2="736" y2="113.33333333333334" stroke="#e1e0d9" stroke-width="1"/><text x="56" y="117.33333333333334" font-family="system-ui, -apple-system, 'Segoe UI', sans-serif" font-size="11" fill="#898781" text-anchor="end" font-weight="400" font-variant-numeric="tabular-nums">16k</text><line x1="64" y1="113.33333333333334" x2="736" y2="113.33333333333334" stroke="#d03b3b" stroke-width="1"/><text x="736" y="107.33333333333334" font-family="system-ui, -apple-system, 'Segoe UI', sans-serif" font-size="11" fill="#d03b3b" text-anchor="end" font-weight="400">16k context window</text><path d="M 151 316 L 151 112.786 Q 151 108.786 155 108.786 L 171 108.786 Q 175 108.786 175 112.786 L 175 316 Z" fill="#898781"/><path d="M 177 316 L 177 295.88266666666664 Q 177 291.88266666666664 181 291.88266666666664 L 197 291.88266666666664 Q 201 291.88266666666664 201 295.88266666666664 L 201 316 Z" fill="#2a78d6"/><text x="163" y="86.786" font-family="system-ui, -apple-system, 'Segoe UI', sans-serif" font-size="11.5" fill="#d03b3b" text-anchor="middle" font-weight="600">✗ fail</text><text x="163" y="100.786" font-family="system-ui, -apple-system, 'Segoe UI', sans-serif" font-size="11" fill="#52514e" text-anchor="middle" font-weight="400" font-variant-numeric="tabular-nums">16.4k</text><text x="189" y="269.88266666666664" font-family="system-ui, -apple-system, 'Segoe UI', sans-serif" font-size="11.5" fill="#0ca30c" text-anchor="middle" font-weight="600">✓ pass</text><text x="189" y="283.88266666666664" font-family="system-ui, -apple-system, 'Segoe UI', sans-serif" font-size="11" fill="#52514e" text-anchor="middle" font-weight="400" font-variant-numeric="tabular-nums">1.9k</text><text x="176" y="336" font-family="system-ui, -apple-system, 'Segoe UI', sans-serif" font-size="12" fill="#0b0b0b" text-anchor="middle" font-weight="600">DeepSeek V3.2</text><path d="M 375 316 L 375 117.726 Q 375 113.726 379 113.726 L 395 113.726 Q 399 113.726 399 117.726 L 399 316 Z" fill="#898781"/><path d="M 401 316 L 401 302.22866666666664 Q 401 298.22866666666664 405 298.22866666666664 L 421 298.22866666666664 Q 425 298.22866666666664 425 302.22866666666664 L 425 316 Z" fill="#2a78d6"/><text x="387" y="91.726" font-family="system-ui, -apple-system, 'Segoe UI', sans-serif" font-size="11.5" fill="#d03b3b" text-anchor="middle" font-weight="600">✗ fail</text><text x="387" y="105.726" font-family="system-ui, -apple-system, 'Segoe UI', sans-serif" font-size="11" fill="#52514e" text-anchor="middle" font-weight="400" font-variant-numeric="tabular-nums">16.0k</text><text x="413" y="276.22866666666664" font-family="system-ui, -apple-system, 'Segoe UI', sans-serif" font-size="11.5" fill="#0ca30c" text-anchor="middle" font-weight="600">✓ pass</text><text x="413" y="290.22866666666664" font-family="system-ui, -apple-system, 'Segoe UI', sans-serif" font-size="11" fill="#52514e" text-anchor="middle" font-weight="400" font-variant-numeric="tabular-nums">1.4k</text><text x="400" y="336" font-family="system-ui, -apple-system, 'Segoe UI', sans-serif" font-size="12" fill="#0b0b0b" text-anchor="middle" font-weight="600">GLM 4.7 Flash</text><path d="M 599 316 L 599 145.45333333333335 Q 599 141.45333333333335 603 141.45333333333335 L 619 141.45333333333335 Q 623 141.45333333333335 623 145.45333333333335 L 623 316 Z" fill="#898781"/><path d="M 625 316 L 625 304.24266666666665 Q 625 300.24266666666665 629 300.24266666666665 L 645 300.24266666666665 Q 649 300.24266666666665 649 304.24266666666665 L 649 316 Z" fill="#2a78d6"/><text x="611" y="119.45333333333335" font-family="system-ui, -apple-system, 'Segoe UI', sans-serif" font-size="11.5" fill="#0ca30c" text-anchor="middle" font-weight="600">✓ pass</text><text x="611" y="133.45333333333335" font-family="system-ui, -apple-system, 'Segoe UI', sans-serif" font-size="11" fill="#52514e" text-anchor="middle" font-weight="400" font-variant-numeric="tabular-nums">13.8k</text><text x="637" y="278.24266666666665" font-family="system-ui, -apple-system, 'Segoe UI', sans-serif" font-size="11.5" fill="#0ca30c" text-anchor="middle" font-weight="600">✓ pass</text><text x="637" y="292.24266666666665" font-family="system-ui, -apple-system, 'Segoe UI', sans-serif" font-size="11" fill="#52514e" text-anchor="middle" font-weight="400" font-variant-numeric="tabular-nums">1.2k</text><text x="624" y="336" font-family="system-ui, -apple-system, 'Segoe UI', sans-serif" font-size="12" fill="#0b0b0b" text-anchor="middle" font-weight="600">Kimi K2.5</text><line x1="64" y1="316" x2="736" y2="316" stroke="#c3c2b7" stroke-width="1"/></svg>