<svg xmlns="http://www.w3.org/2000/svg" width="880" height="818" viewBox="0 0 880 818" role="img">
<rect width="880" height="818" fill="#fcfcfb" rx="8"/>
<text x="16" y="28" font-family="system-ui, -apple-system, 'Segoe UI', sans-serif" font-size="15" fill="#0b0b0b" text-anchor="start" font-weight="600">Same catalog, three surfaces: the REPL reaches graded parity with SQL</text><text x="16" y="46" font-family="system-ui, -apple-system, 'Segoe UI', sans-serif" font-size="12" fill="#52514e" text-anchor="start" font-weight="400">Tasks passed out of 7 per model · identical servers, tasks, and graders in every arm</text><rect x="16" y="58" width="12" height="12" rx="3" fill="#898781"/><text x="34" y="68" font-family="system-ui, -apple-system, 'Segoe UI', sans-serif" font-size="12" fill="#52514e" text-anchor="start" font-weight="400">baseline: 32 tools</text><rect x="176" y="58" width="12" height="12" rx="3" fill="#2a78d6"/><text x="194" y="68" font-family="system-ui, -apple-system, 'Segoe UI', sans-serif" font-size="12" fill="#52514e" text-anchor="start" font-weight="400">SQL: execute_sql</text><rect x="336" y="58" width="12" height="12" rx="3" fill="#1baf7a"/><text x="354" y="68" font-family="system-ui, -apple-system, 'Segoe UI', sans-serif" font-size="12" fill="#52514e" text-anchor="start" font-weight="400">Lisp: execute_lisp</text><line x1="172" y1="96" x2="172" y2="778" stroke="#e1e0d9" stroke-width="1"/><text x="172" y="796" font-family="system-ui, -apple-system, 'Segoe UI', sans-serif" font-size="11" fill="#898781" text-anchor="middle" font-weight="400" font-variant-numeric="tabular-nums">0</text><line x1="251.71428571428572" y1="96" x2="251.71428571428572" y2="778" stroke="#e1e0d9" stroke-width="1"/><text x="251.71428571428572" y="796" font-family="system-ui, -apple-system, 'Segoe UI', sans-serif" font-size="11" fill="#898781" text-anchor="middle" font-weight="400" font-variant-numeric="tabular-nums">1</text><line x1="331.42857142857144" y1="96" x2="331.42857142857144" y2="778" stroke="#e1e0d9" stroke-width="1"/><text x="331.42857142857144" y="796" font-family="system-ui, -apple-system, 'Segoe UI', sans-serif" font-size="11" fill="#898781" text-anchor="middle" font-weight="400" font-variant-numeric="tabular-nums">2</text><line x1="411.1428571428571" y1="96" x2="411.1428571428571" y2="778" stroke="#e1e0d9" stroke-width="1"/><text x="411.1428571428571" y="796" font-family="system-ui, -apple-system, 'Segoe UI', sans-serif" font-size="11" fill="#898781" text-anchor="middle" font-weight="400" font-variant-numeric="tabular-nums">3</text><line x1="490.85714285714283" y1="96" x2="490.85714285714283" y2="778" stroke="#e1e0d9" stroke-width="1"/><text x="490.85714285714283" y="796" font-family="system-ui, -apple-system, 'Segoe UI', sans-serif" font-size="11" fill="#898781" text-anchor="middle" font-weight="400" font-variant-numeric="tabular-nums">4</text><line x1="570.5714285714286" y1="96" x2="570.5714285714286" y2="778" stroke="#e1e0d9" stroke-width="1"/><text x="570.5714285714286" y="796" font-family="system-ui, -apple-system, 'Segoe UI', sans-serif" font-size="11" fill="#898781" text-anchor="middle" font-weight="400" font-variant-numeric="tabular-nums">5</text><line x1="650.2857142857142" y1="96" x2="650.2857142857142" y2="778" stroke="#e1e0d9" stroke-width="1"/><text x="650.2857142857142" y="796" font-family="system-ui, -apple-system, 'Segoe UI', sans-serif" font-size="11" fill="#898781" text-anchor="middle" font-weight="400" font-variant-numeric="tabular-nums">6</text><line x1="730" y1="96" x2="730" y2="778" stroke="#e1e0d9" stroke-width="1"/><text x="730" y="796" font-family="system-ui, -apple-system, 'Segoe UI', sans-serif" font-size="11" fill="#898781" text-anchor="middle" font-weight="400" font-variant-numeric="tabular-nums">7</text><text x="162" y="118" font-family="system-ui, -apple-system, 'Segoe UI', sans-serif" font-size="12.5" fill="#0b0b0b" text-anchor="end" font-weight="600">Kimi K2.7 Code</text><text x="162" y="133" font-family="system-ui, -apple-system, 'Segoe UI', sans-serif" font-size="10.5" fill="#898781" text-anchor="end" font-weight="400">OSS frontier</text><path d="M 172 102 L 566.5714285714286 102 Q 570.5714285714286 102 570.5714285714286 106 L 570.5714285714286 112 Q 570.5714285714286 116 566.5714285714286 116 L 172 116 Z" fill="#898781"/><path d="M 172 118 L 726 118 Q 730 118 730 122 L 730 128 Q 730 132 726 132 L 172 132 Z" fill="#2a78d6"/><path d="M 172 134 L 726 134 Q 730 134 730 138 L 730 144 Q 730 148 726 148 L 172 148 Z" fill="#1baf7a"/><text x="577.5714285714286" y="113" font-family="system-ui, -apple-system, 'Segoe UI', sans-serif" font-size="11" fill="#52514e" text-anchor="start" font-weight="400" font-variant-numeric="tabular-nums">5/7</text><text x="737" y="129" font-family="system-ui, -apple-system, 'Segoe UI', sans-serif" font-size="11" fill="#0b0b0b" text-anchor="start" font-weight="600" font-variant-numeric="tabular-nums">7/7</text><text x="737" y="145" font-family="system-ui, -apple-system, 'Segoe UI', sans-serif" font-size="11" fill="#0b0b0b" text-anchor="start" font-weight="600" font-variant-numeric="tabular-nums">7/7</text><text x="162" y="180" font-family="system-ui, -apple-system, 'Segoe UI', sans-serif" font-size="12.5" fill="#0b0b0b" text-anchor="end" font-weight="600">GLM-5</text><text x="162" y="195" font-family="system-ui, -apple-system, 'Segoe UI', sans-serif" font-size="10.5" fill="#898781" text-anchor="end" font-weight="400">OSS frontier</text><path d="M 172 164 L 486.85714285714283 164 Q 490.85714285714283 164 490.85714285714283 168 L 490.85714285714283 174 Q 490.85714285714283 178 486.85714285714283 178 L 172 178 Z" fill="#898781"/><path d="M 172 180 L 726 180 Q 730 180 730 184 L 730 190 Q 730 194 726 194 L 172 194 Z" fill="#2a78d6"/><path d="M 172 196 L 726 196 Q 730 196 730 200 L 730 206 Q 730 210 726 210 L 172 210 Z" fill="#1baf7a"/><text x="497.85714285714283" y="175" font-family="system-ui, -apple-system, 'Segoe UI', sans-serif" font-size="11" fill="#52514e" text-anchor="start" font-weight="400" font-variant-numeric="tabular-nums">4/7</text><text x="737" y="191" font-family="system-ui, -apple-system, 'Segoe UI', sans-serif" font-size="11" fill="#0b0b0b" text-anchor="start" font-weight="600" font-variant-numeric="tabular-nums">7/7</text><text x="737" y="207" font-family="system-ui, -apple-system, 'Segoe UI', sans-serif" font-size="11" fill="#0b0b0b" text-anchor="start" font-weight="600" font-variant-numeric="tabular-nums">7/7</text><text x="162" y="242" font-family="system-ui, -apple-system, 'Segoe UI', sans-serif" font-size="12.5" fill="#0b0b0b" text-anchor="end" font-weight="600">MiniMax M3</text><text x="162" y="257" font-family="system-ui, -apple-system, 'Segoe UI', sans-serif" font-size="10.5" fill="#898781" text-anchor="end" font-weight="400">OSS frontier</text><path d="M 172 226 L 726 226 Q 730 226 730 230 L 730 236 Q 730 240 726 240 L 172 240 Z" fill="#898781"/><path d="M 172 242 L 726 242 Q 730 242 730 246 L 730 252 Q 730 256 726 256 L 172 256 Z" fill="#2a78d6"/><path d="M 172 258 L 726 258 Q 730 258 730 262 L 730 268 Q 730 272 726 272 L 172 272 Z" fill="#1baf7a"/><text x="737" y="237" font-family="system-ui, -apple-system, 'Segoe UI', sans-serif" font-size="11" fill="#52514e" text-anchor="start" font-weight="400" font-variant-numeric="tabular-nums">7/7</text><text x="737" y="253" font-family="system-ui, -apple-system, 'Segoe UI', sans-serif" font-size="11" fill="#0b0b0b" text-anchor="start" font-weight="600" font-variant-numeric="tabular-nums">7/7</text><text x="737" y="269" font-family="system-ui, -apple-system, 'Segoe UI', sans-serif" font-size="11" fill="#0b0b0b" text-anchor="start" font-weight="600" font-variant-numeric="tabular-nums">7/7</text><text x="162" y="304" font-family="system-ui, -apple-system, 'Segoe UI', sans-serif" font-size="12.5" fill="#0b0b0b" text-anchor="end" font-weight="600">DeepSeek V3.2</text><text x="162" y="319" font-family="system-ui, -apple-system, 'Segoe UI', sans-serif" font-size="10.5" fill="#898781" text-anchor="end" font-weight="400">OSS frontier</text><path d="M 172 288 L 646.2857142857142 288 Q 650.2857142857142 288 650.2857142857142 292 L 650.2857142857142 298 Q 650.2857142857142 302 646.2857142857142 302 L 172 302 Z" fill="#898781"/><path d="M 172 304 L 726 304 Q 730 304 730 308 L 730 314 Q 730 318 726 318 L 172 318 Z" fill="#2a78d6"/><path d="M 172 320 L 726 320 Q 730 320 730 324 L 730 330 Q 730 334 726 334 L 172 334 Z" fill="#1baf7a"/><text x="657.2857142857142" y="299" font-family="system-ui, -apple-system, 'Segoe UI', sans-serif" font-size="11" fill="#52514e" text-anchor="start" font-weight="400" font-variant-numeric="tabular-nums">6/7</text><text x="737" y="315" font-family="system-ui, -apple-system, 'Segoe UI', sans-serif" font-size="11" fill="#0b0b0b" text-anchor="start" font-weight="600" font-variant-numeric="tabular-nums">7/7</text><text x="737" y="331" font-family="system-ui, -apple-system, 'Segoe UI', sans-serif" font-size="11" fill="#0b0b0b" text-anchor="start" font-weight="600" font-variant-numeric="tabular-nums">7/7</text><text x="162" y="366" font-family="system-ui, -apple-system, 'Segoe UI', sans-serif" font-size="12.5" fill="#0b0b0b" text-anchor="end" font-weight="600">Kimi K2.5</text><text x="162" y="381" font-family="system-ui, -apple-system, 'Segoe UI', sans-serif" font-size="10.5" fill="#898781" text-anchor="end" font-weight="400">mid tier</text><path d="M 172 350 L 646.2857142857142 350 Q 650.2857142857142 350 650.2857142857142 354 L 650.2857142857142 360 Q 650.2857142857142 364 646.2857142857142 364 L 172 364 Z" fill="#898781"/><path d="M 172 366 L 726 366 Q 730 366 730 370 L 730 376 Q 730 380 726 380 L 172 380 Z" fill="#2a78d6"/><path d="M 172 382 L 726 382 Q 730 382 730 386 L 730 392 Q 730 396 726 396 L 172 396 Z" fill="#1baf7a"/><text x="657.2857142857142" y="361" font-family="system-ui, -apple-system, 'Segoe UI', sans-serif" font-size="11" fill="#52514e" text-anchor="start" font-weight="400" font-variant-numeric="tabular-nums">6/7</text><text x="737" y="377" font-family="system-ui, -apple-system, 'Segoe UI', sans-serif" font-size="11" fill="#0b0b0b" text-anchor="start" font-weight="600" font-variant-numeric="tabular-nums">7/7</text><text x="737" y="393" font-family="system-ui, -apple-system, 'Segoe UI', sans-serif" font-size="11" fill="#0b0b0b" text-anchor="start" font-weight="600" font-variant-numeric="tabular-nums">7/7</text><text x="162" y="428" font-family="system-ui, -apple-system, 'Segoe UI', sans-serif" font-size="12.5" fill="#0b0b0b" text-anchor="end" font-weight="600">MiniMax M2.5</text><text x="162" y="443" font-family="system-ui, -apple-system, 'Segoe UI', sans-serif" font-size="10.5" fill="#898781" text-anchor="end" font-weight="400">mid tier</text><path d="M 172 412 L 646.2857142857142 412 Q 650.2857142857142 412 650.2857142857142 416 L 650.2857142857142 422 Q 650.2857142857142 426 646.2857142857142 426 L 172 426 Z" fill="#898781"/><path d="M 172 428 L 726 428 Q 730 428 730 432 L 730 438 Q 730 442 726 442 L 172 442 Z" fill="#2a78d6"/><path d="M 172 444 L 726 444 Q 730 444 730 448 L 730 454 Q 730 458 726 458 L 172 458 Z" fill="#1baf7a"/><text x="657.2857142857142" y="423" font-family="system-ui, -apple-system, 'Segoe UI', sans-serif" font-size="11" fill="#52514e" text-anchor="start" font-weight="400" font-variant-numeric="tabular-nums">6/7</text><text x="737" y="439" font-family="system-ui, -apple-system, 'Segoe UI', sans-serif" font-size="11" fill="#0b0b0b" text-anchor="start" font-weight="600" font-variant-numeric="tabular-nums">7/7</text><text x="737" y="455" font-family="system-ui, -apple-system, 'Segoe UI', sans-serif" font-size="11" fill="#0b0b0b" text-anchor="start" font-weight="600" font-variant-numeric="tabular-nums">7/7</text><text x="162" y="490" font-family="system-ui, -apple-system, 'Segoe UI', sans-serif" font-size="12.5" fill="#0b0b0b" text-anchor="end" font-weight="600">Xiaomi MiMo v2.5</text><text x="162" y="505" font-family="system-ui, -apple-system, 'Segoe UI', sans-serif" font-size="10.5" fill="#898781" text-anchor="end" font-weight="400">mid tier</text><path d="M 172 474 L 646.2857142857142 474 Q 650.2857142857142 474 650.2857142857142 478 L 650.2857142857142 484 Q 650.2857142857142 488 646.2857142857142 488 L 172 488 Z" fill="#898781"/><path d="M 172 490 L 726 490 Q 730 490 730 494 L 730 500 Q 730 504 726 504 L 172 504 Z" fill="#2a78d6"/><path d="M 172 506 L 726 506 Q 730 506 730 510 L 730 516 Q 730 520 726 520 L 172 520 Z" fill="#1baf7a"/><text x="657.2857142857142" y="485" font-family="system-ui, -apple-system, 'Segoe UI', sans-serif" font-size="11" fill="#52514e" text-anchor="start" font-weight="400" font-variant-numeric="tabular-nums">6/7</text><text x="737" y="501" font-family="system-ui, -apple-system, 'Segoe UI', sans-serif" font-size="11" fill="#0b0b0b" text-anchor="start" font-weight="600" font-variant-numeric="tabular-nums">7/7</text><text x="737" y="517" font-family="system-ui, -apple-system, 'Segoe UI', sans-serif" font-size="11" fill="#0b0b0b" text-anchor="start" font-weight="600" font-variant-numeric="tabular-nums">7/7</text><text x="162" y="552" font-family="system-ui, -apple-system, 'Segoe UI', sans-serif" font-size="12.5" fill="#0b0b0b" text-anchor="end" font-weight="600">GLM 4.7 Flash</text><text x="162" y="567" font-family="system-ui, -apple-system, 'Segoe UI', sans-serif" font-size="10.5" fill="#898781" text-anchor="end" font-weight="400">mid tier</text><path d="M 172 536 L 566.5714285714286 536 Q 570.5714285714286 536 570.5714285714286 540 L 570.5714285714286 546 Q 570.5714285714286 550 566.5714285714286 550 L 172 550 Z" fill="#898781"/><path d="M 172 552 L 726 552 Q 730 552 730 556 L 730 562 Q 730 566 726 566 L 172 566 Z" fill="#2a78d6"/><path d="M 172 568 L 726 568 Q 730 568 730 572 L 730 578 Q 730 582 726 582 L 172 582 Z" fill="#1baf7a"/><text x="577.5714285714286" y="547" font-family="system-ui, -apple-system, 'Segoe UI', sans-serif" font-size="11" fill="#52514e" text-anchor="start" font-weight="400" font-variant-numeric="tabular-nums">5/7</text><text x="737" y="563" font-family="system-ui, -apple-system, 'Segoe UI', sans-serif" font-size="11" fill="#0b0b0b" text-anchor="start" font-weight="600" font-variant-numeric="tabular-nums">7/7</text><text x="737" y="579" font-family="system-ui, -apple-system, 'Segoe UI', sans-serif" font-size="11" fill="#0b0b0b" text-anchor="start" font-weight="600" font-variant-numeric="tabular-nums">7/7</text><text x="162" y="614" font-family="system-ui, -apple-system, 'Segoe UI', sans-serif" font-size="12.5" fill="#0b0b0b" text-anchor="end" font-weight="600">DeepSeek V4 Flash</text><text x="162" y="629" font-family="system-ui, -apple-system, 'Segoe UI', sans-serif" font-size="10.5" fill="#898781" text-anchor="end" font-weight="400">cheap / weak</text><path d="M 172 598 L 726 598 Q 730 598 730 602 L 730 608 Q 730 612 726 612 L 172 612 Z" fill="#898781"/><path d="M 172 614 L 726 614 Q 730 614 730 618 L 730 624 Q 730 628 726 628 L 172 628 Z" fill="#2a78d6"/><path d="M 172 630 L 726 630 Q 730 630 730 634 L 730 640 Q 730 644 726 644 L 172 644 Z" fill="#1baf7a"/><text x="737" y="609" font-family="system-ui, -apple-system, 'Segoe UI', sans-serif" font-size="11" fill="#52514e" text-anchor="start" font-weight="400" font-variant-numeric="tabular-nums">7/7</text><text x="737" y="625" font-family="system-ui, -apple-system, 'Segoe UI', sans-serif" font-size="11" fill="#0b0b0b" text-anchor="start" font-weight="600" font-variant-numeric="tabular-nums">7/7</text><text x="737" y="641" font-family="system-ui, -apple-system, 'Segoe UI', sans-serif" font-size="11" fill="#0b0b0b" text-anchor="start" font-weight="600" font-variant-numeric="tabular-nums">7/7</text><text x="162" y="676" font-family="system-ui, -apple-system, 'Segoe UI', sans-serif" font-size="12.5" fill="#0b0b0b" text-anchor="end" font-weight="600">Qwen3 30B A3B</text><text x="162" y="691" font-family="system-ui, -apple-system, 'Segoe UI', sans-serif" font-size="10.5" fill="#898781" text-anchor="end" font-weight="400">cheap / weak</text><path d="M 172 660 L 407.1428571428571 660 Q 411.1428571428571 660 411.1428571428571 664 L 411.1428571428571 670 Q 411.1428571428571 674 407.1428571428571 674 L 172 674 Z" fill="#898781"/><path d="M 172 676 L 726 676 Q 730 676 730 680 L 730 686 Q 730 690 726 690 L 172 690 Z" fill="#2a78d6"/><path d="M 172 692 L 726 692 Q 730 692 730 696 L 730 702 Q 730 706 726 706 L 172 706 Z" fill="#1baf7a"/><text x="418.1428571428571" y="671" font-family="system-ui, -apple-system, 'Segoe UI', sans-serif" font-size="11" fill="#52514e" text-anchor="start" font-weight="400" font-variant-numeric="tabular-nums">3/7</text><text x="737" y="687" font-family="system-ui, -apple-system, 'Segoe UI', sans-serif" font-size="11" fill="#0b0b0b" text-anchor="start" font-weight="600" font-variant-numeric="tabular-nums">7/7</text><text x="737" y="703" font-family="system-ui, -apple-system, 'Segoe UI', sans-serif" font-size="11" fill="#0b0b0b" text-anchor="start" font-weight="600" font-variant-numeric="tabular-nums">7/7</text><text x="162" y="738" font-family="system-ui, -apple-system, 'Segoe UI', sans-serif" font-size="12.5" fill="#0b0b0b" text-anchor="end" font-weight="600">Qwen3 8B</text><text x="162" y="753" font-family="system-ui, -apple-system, 'Segoe UI', sans-serif" font-size="10.5" fill="#898781" text-anchor="end" font-weight="400">cheap / weak</text><path d="M 172 722 L 486.85714285714283 722 Q 490.85714285714283 722 490.85714285714283 726 L 490.85714285714283 732 Q 490.85714285714283 736 486.85714285714283 736 L 172 736 Z" fill="#898781"/><path d="M 172 738 L 646.2857142857142 738 Q 650.2857142857142 738 650.2857142857142 742 L 650.2857142857142 748 Q 650.2857142857142 752 646.2857142857142 752 L 172 752 Z" fill="#2a78d6"/><path d="M 172 754 L 486.85714285714283 754 Q 490.85714285714283 754 490.85714285714283 758 L 490.85714285714283 764 Q 490.85714285714283 768 486.85714285714283 768 L 172 768 Z" fill="#1baf7a"/><text x="497.85714285714283" y="733" font-family="system-ui, -apple-system, 'Segoe UI', sans-serif" font-size="11" fill="#52514e" text-anchor="start" font-weight="400" font-variant-numeric="tabular-nums">4/7</text><text x="657.2857142857142" y="749" font-family="system-ui, -apple-system, 'Segoe UI', sans-serif" font-size="11" fill="#0b0b0b" text-anchor="start" font-weight="600" font-variant-numeric="tabular-nums">6/7</text><text x="497.85714285714283" y="765" font-family="system-ui, -apple-system, 'Segoe UI', sans-serif" font-size="11" fill="#0b0b0b" text-anchor="start" font-weight="600" font-variant-numeric="tabular-nums">4/7 (+2 provider err)</text></svg>