<svg xmlns="http://www.w3.org/2000/svg" width="760" height="330" viewBox="0 0 760 330" role="img">
<rect width="760" height="330" fill="#fcfcfb" rx="8"/>
<text x="16" y="28" font-family="system-ui, -apple-system, 'Segoe UI', sans-serif" font-size="15" fill="#0b0b0b" text-anchor="start" font-weight="600">The scenarios SQL can't shape: the REPL sweeps decide-and-act</text><text x="16" y="46" font-family="system-ui, -apple-system, 'Segoe UI', sans-serif" font-size="12" fill="#52514e" text-anchor="start" font-weight="400">Pass rate per arm · Lisp is the only 10/10 on branching, in one call on three models</text><rect x="16" y="58" width="12" height="12" rx="3" fill="#898781"/><text x="34" y="68" font-family="system-ui, -apple-system, 'Segoe UI', sans-serif" font-size="12" fill="#52514e" text-anchor="start" font-weight="400">baseline</text><rect x="116" y="58" width="12" height="12" rx="3" fill="#2a78d6"/><text x="134" y="68" font-family="system-ui, -apple-system, 'Segoe UI', sans-serif" font-size="12" fill="#52514e" text-anchor="start" font-weight="400">SQL</text><rect x="196" y="58" width="12" height="12" rx="3" fill="#1baf7a"/><text x="214" y="68" font-family="system-ui, -apple-system, 'Segoe UI', sans-serif" font-size="12" fill="#52514e" text-anchor="start" font-weight="400">Lisp</text><line x1="56" y1="274" x2="736" y2="274" stroke="#e1e0d9" stroke-width="1"/><text x="48" y="278" font-family="system-ui, -apple-system, 'Segoe UI', sans-serif" font-size="11" fill="#898781" text-anchor="end" font-weight="400" font-variant-numeric="tabular-nums">0%</text><line x1="56" y1="229.5" x2="736" y2="229.5" stroke="#e1e0d9" stroke-width="1"/><text x="48" y="233.5" font-family="system-ui, -apple-system, 'Segoe UI', sans-serif" font-size="11" fill="#898781" text-anchor="end" font-weight="400" font-variant-numeric="tabular-nums">25%</text><line x1="56" y1="185" x2="736" y2="185" stroke="#e1e0d9" stroke-width="1"/><text x="48" y="189" font-family="system-ui, -apple-system, 'Segoe UI', sans-serif" font-size="11" fill="#898781" text-anchor="end" font-weight="400" font-variant-numeric="tabular-nums">50%</text><line x1="56" y1="140.5" x2="736" y2="140.5" stroke="#e1e0d9" stroke-width="1"/><text x="48" y="144.5" font-family="system-ui, -apple-system, 'Segoe UI', sans-serif" font-size="11" fill="#898781" text-anchor="end" font-weight="400" font-variant-numeric="tabular-nums">75%</text><line x1="56" y1="96" x2="736" y2="96" stroke="#e1e0d9" stroke-width="1"/><text x="48" y="100" font-family="system-ui, -apple-system, 'Segoe UI', sans-serif" font-size="11" fill="#898781" text-anchor="end" font-weight="400" font-variant-numeric="tabular-nums">100%</text><path d="M 188 274 L 188 117.79999999999998 Q 188 113.79999999999998 192 113.79999999999998 L 208 113.79999999999998 Q 212 113.79999999999998 212 117.79999999999998 L 212 274 Z" fill="#898781"/><text x="200" y="105.79999999999998" font-family="system-ui, -apple-system, 'Segoe UI', sans-serif" font-size="11.5" fill="#0b0b0b" text-anchor="middle" font-weight="600" font-variant-numeric="tabular-nums">9/10</text><path d="M 214 274 L 214 117.79999999999998 Q 214 113.79999999999998 218 113.79999999999998 L 234 113.79999999999998 Q 238 113.79999999999998 238 117.79999999999998 L 238 274 Z" fill="#2a78d6"/><text x="226" y="105.79999999999998" font-family="system-ui, -apple-system, 'Segoe UI', sans-serif" font-size="11.5" fill="#0b0b0b" text-anchor="middle" font-weight="600" font-variant-numeric="tabular-nums">9/10</text><path d="M 240 274 L 240 100 Q 240 96 244 96 L 260 96 Q 264 96 264 100 L 264 274 Z" fill="#1baf7a"/><text x="252" y="88" font-family="system-ui, -apple-system, 'Segoe UI', sans-serif" font-size="11.5" fill="#0b0b0b" text-anchor="middle" font-weight="600" font-variant-numeric="tabular-nums">10/10</text><text x="226" y="294" font-family="system-ui, -apple-system, 'Segoe UI', sans-serif" font-size="12.5" fill="#0b0b0b" text-anchor="middle" font-weight="600">incident-branch</text><text x="226" y="310" font-family="system-ui, -apple-system, 'Segoe UI', sans-serif" font-size="11" fill="#898781" text-anchor="middle" font-weight="400">decide-and-act, graded on the correct branch</text><path d="M 528 274 L 528 164.72727272727275 Q 528 160.72727272727275 532 160.72727272727275 L 548 160.72727272727275 Q 552 160.72727272727275 552 164.72727272727275 L 552 274 Z" fill="#898781"/><text x="540" y="152.72727272727275" font-family="system-ui, -apple-system, 'Segoe UI', sans-serif" font-size="11.5" fill="#0b0b0b" text-anchor="middle" font-weight="600" font-variant-numeric="tabular-nums">7/11</text><path d="M 554 274 L 554 100 Q 554 96 558 96 L 574 96 Q 578 96 578 100 L 578 274 Z" fill="#2a78d6"/><text x="566" y="88" font-family="system-ui, -apple-system, 'Segoe UI', sans-serif" font-size="11.5" fill="#0b0b0b" text-anchor="middle" font-weight="600" font-variant-numeric="tabular-nums">11/11</text><path d="M 580 274 L 580 117.79999999999998 Q 580 113.79999999999998 584 113.79999999999998 L 600 113.79999999999998 Q 604 113.79999999999998 604 117.79999999999998 L 604 274 Z" fill="#1baf7a"/><text x="592" y="105.79999999999998" font-family="system-ui, -apple-system, 'Segoe UI', sans-serif" font-size="11.5" fill="#0b0b0b" text-anchor="middle" font-weight="600" font-variant-numeric="tabular-nums">9/10</text><text x="566" y="294" font-family="system-ui, -apple-system, 'Segoe UI', sans-serif" font-size="12.5" fill="#0b0b0b" text-anchor="middle" font-weight="600">open-prs-breakdown</text><text x="566" y="310" font-family="system-ui, -apple-system, 'Segoe UI', sans-serif" font-size="11" fill="#898781" text-anchor="middle" font-weight="400">two-part answer from one read</text><line x1="56" y1="274" x2="736" y2="274" stroke="#c3c2b7" stroke-width="1"/></svg>