<svg xmlns="http://www.w3.org/2000/svg" width="940" height="452" viewBox="0 0 940 452" role="img">
<rect width="940" height="452" fill="#fcfcfb" rx="8"/>
<text x="16" y="28" font-family="system-ui, -apple-system, 'Segoe UI', sans-serif" font-size="15" fill="#0b0b0b" text-anchor="start" font-weight="600">Same catalog, three languages: Python is parity-class with the hardened JS and Lisp arms</text><text x="16" y="46" font-family="system-ui, -apple-system, 'Segoe UI', sans-serif" font-size="12" fill="#52514e" text-anchor="start" font-weight="400">Tasks passed (%) · 6 models × 10 scenarios × 3 function-mode arms · same servers, seed, and graders · graded (0 provider errors)</text><rect x="16" y="58" width="12" height="12" rx="3" fill="#2a78d6"/><text x="34" y="68" font-family="system-ui, -apple-system, 'Segoe UI', sans-serif" font-size="12" fill="#52514e" text-anchor="start" font-weight="400">pyrepl</text><rect x="148" y="58" width="12" height="12" rx="3" fill="#1baf7a"/><text x="166" y="68" font-family="system-ui, -apple-system, 'Segoe UI', sans-serif" font-size="12" fill="#52514e" text-anchor="start" font-weight="400">jsrepl</text><rect x="280" y="58" width="12" height="12" rx="3" fill="#b07820"/><text x="298" y="68" font-family="system-ui, -apple-system, 'Segoe UI', sans-serif" font-size="12" fill="#52514e" text-anchor="start" font-weight="400">lispfns</text><line x1="52" y1="392" x2="916" y2="392" stroke="#e1e0d9" stroke-width="1"/><text x="44" y="396" font-family="system-ui, -apple-system, 'Segoe UI', sans-serif" font-size="11" fill="#898781" text-anchor="end" font-weight="400" font-variant-numeric="tabular-nums">0%</text><line x1="52" y1="318" x2="916" y2="318" stroke="#e1e0d9" stroke-width="1"/><text x="44" y="322" font-family="system-ui, -apple-system, 'Segoe UI', sans-serif" font-size="11" fill="#898781" text-anchor="end" font-weight="400" font-variant-numeric="tabular-nums">25%</text><line x1="52" y1="244" x2="916" y2="244" stroke="#e1e0d9" stroke-width="1"/><text x="44" y="248" font-family="system-ui, -apple-system, 'Segoe UI', sans-serif" font-size="11" fill="#898781" text-anchor="end" font-weight="400" font-variant-numeric="tabular-nums">50%</text><line x1="52" y1="170" x2="916" y2="170" stroke="#e1e0d9" stroke-width="1"/><text x="44" y="174" font-family="system-ui, -apple-system, 'Segoe UI', sans-serif" font-size="11" fill="#898781" text-anchor="end" font-weight="400" font-variant-numeric="tabular-nums">75%</text><line x1="52" y1="96" x2="916" y2="96" stroke="#e1e0d9" stroke-width="1"/><text x="44" y="100" font-family="system-ui, -apple-system, 'Segoe UI', sans-serif" font-size="11" fill="#898781" text-anchor="end" font-weight="400" font-variant-numeric="tabular-nums">100%</text><path d="M 81 392 L 81 129.59999999999997 Q 81 125.59999999999997 85 125.59999999999997 L 103 125.59999999999997 Q 107 125.59999999999997 107 129.59999999999997 L 107 392 Z" fill="#2a78d6"/><text x="94" y="118.59999999999997" font-family="system-ui, -apple-system, 'Segoe UI', sans-serif" font-size="11" fill="#0b0b0b" text-anchor="middle" font-weight="600" font-variant-numeric="tabular-nums">9</text><path d="M 111 392 L 111 129.59999999999997 Q 111 125.59999999999997 115 125.59999999999997 L 133 125.59999999999997 Q 137 125.59999999999997 137 129.59999999999997 L 137 392 Z" fill="#1baf7a"/><text x="124" y="118.59999999999997" font-family="system-ui, -apple-system, 'Segoe UI', sans-serif" font-size="11" fill="#0b0b0b" text-anchor="middle" font-weight="600" font-variant-numeric="tabular-nums">9</text><path d="M 141 392 L 141 100 Q 141 96 145 96 L 163 96 Q 167 96 167 100 L 167 392 Z" fill="#b07820"/><text x="154" y="89" font-family="system-ui, -apple-system, 'Segoe UI', sans-serif" font-size="11" fill="#0b0b0b" text-anchor="middle" font-weight="600" font-variant-numeric="tabular-nums">10</text><text x="124" y="412" font-family="system-ui, -apple-system, 'Segoe UI', sans-serif" font-size="12" fill="#0b0b0b" text-anchor="middle" font-weight="600">DeepSeek V3.2</text><text x="124" y="428" font-family="system-ui, -apple-system, 'Segoe UI', sans-serif" font-size="10.5" fill="#898781" text-anchor="middle" font-weight="400">frontier</text><path d="M 225 392 L 225 129.59999999999997 Q 225 125.59999999999997 229 125.59999999999997 L 247 125.59999999999997 Q 251 125.59999999999997 251 129.59999999999997 L 251 392 Z" fill="#2a78d6"/><text x="238" y="118.59999999999997" font-family="system-ui, -apple-system, 'Segoe UI', sans-serif" font-size="11" fill="#0b0b0b" text-anchor="middle" font-weight="600" font-variant-numeric="tabular-nums">9</text><path d="M 255 392 L 255 129.59999999999997 Q 255 125.59999999999997 259 125.59999999999997 L 277 125.59999999999997 Q 281 125.59999999999997 281 129.59999999999997 L 281 392 Z" fill="#1baf7a"/><text x="268" y="118.59999999999997" font-family="system-ui, -apple-system, 'Segoe UI', sans-serif" font-size="11" fill="#0b0b0b" text-anchor="middle" font-weight="600" font-variant-numeric="tabular-nums">9</text><path d="M 285 392 L 285 100 Q 285 96 289 96 L 307 96 Q 311 96 311 100 L 311 392 Z" fill="#b07820"/><text x="298" y="89" font-family="system-ui, -apple-system, 'Segoe UI', sans-serif" font-size="11" fill="#0b0b0b" text-anchor="middle" font-weight="600" font-variant-numeric="tabular-nums">10</text><text x="268" y="412" font-family="system-ui, -apple-system, 'Segoe UI', sans-serif" font-size="12" fill="#0b0b0b" text-anchor="middle" font-weight="600">MiniMax M3</text><text x="268" y="428" font-family="system-ui, -apple-system, 'Segoe UI', sans-serif" font-size="10.5" fill="#898781" text-anchor="middle" font-weight="400">frontier</text><path d="M 369 392 L 369 129.59999999999997 Q 369 125.59999999999997 373 125.59999999999997 L 391 125.59999999999997 Q 395 125.59999999999997 395 129.59999999999997 L 395 392 Z" fill="#2a78d6"/><text x="382" y="118.59999999999997" font-family="system-ui, -apple-system, 'Segoe UI', sans-serif" font-size="11" fill="#0b0b0b" text-anchor="middle" font-weight="600" font-variant-numeric="tabular-nums">9</text><path d="M 399 392 L 399 100 Q 399 96 403 96 L 421 96 Q 425 96 425 100 L 425 392 Z" fill="#1baf7a"/><text x="412" y="89" font-family="system-ui, -apple-system, 'Segoe UI', sans-serif" font-size="11" fill="#0b0b0b" text-anchor="middle" font-weight="600" font-variant-numeric="tabular-nums">10</text><path d="M 429 392 L 429 129.59999999999997 Q 429 125.59999999999997 433 125.59999999999997 L 451 125.59999999999997 Q 455 125.59999999999997 455 129.59999999999997 L 455 392 Z" fill="#b07820"/><text x="442" y="118.59999999999997" font-family="system-ui, -apple-system, 'Segoe UI', sans-serif" font-size="11" fill="#0b0b0b" text-anchor="middle" font-weight="600" font-variant-numeric="tabular-nums">9</text><text x="412" y="412" font-family="system-ui, -apple-system, 'Segoe UI', sans-serif" font-size="12" fill="#0b0b0b" text-anchor="middle" font-weight="600">GLM-5</text><text x="412" y="428" font-family="system-ui, -apple-system, 'Segoe UI', sans-serif" font-size="10.5" fill="#898781" text-anchor="middle" font-weight="400">frontier</text><path d="M 513 392 L 513 129.59999999999997 Q 513 125.59999999999997 517 125.59999999999997 L 535 125.59999999999997 Q 539 125.59999999999997 539 129.59999999999997 L 539 392 Z" fill="#2a78d6"/><text x="526" y="118.59999999999997" font-family="system-ui, -apple-system, 'Segoe UI', sans-serif" font-size="11" fill="#0b0b0b" text-anchor="middle" font-weight="600" font-variant-numeric="tabular-nums">9</text><path d="M 543 392 L 543 100 Q 543 96 547 96 L 565 96 Q 569 96 569 100 L 569 392 Z" fill="#1baf7a"/><text x="556" y="89" font-family="system-ui, -apple-system, 'Segoe UI', sans-serif" font-size="11" fill="#0b0b0b" text-anchor="middle" font-weight="600" font-variant-numeric="tabular-nums">10</text><path d="M 573 392 L 573 100 Q 573 96 577 96 L 595 96 Q 599 96 599 100 L 599 392 Z" fill="#b07820"/><text x="586" y="89" font-family="system-ui, -apple-system, 'Segoe UI', sans-serif" font-size="11" fill="#0b0b0b" text-anchor="middle" font-weight="600" font-variant-numeric="tabular-nums">10</text><text x="556" y="412" font-family="system-ui, -apple-system, 'Segoe UI', sans-serif" font-size="12" fill="#0b0b0b" text-anchor="middle" font-weight="600">Xiaomi MiMo v2.5</text><text x="556" y="428" font-family="system-ui, -apple-system, 'Segoe UI', sans-serif" font-size="10.5" fill="#898781" text-anchor="middle" font-weight="400">mid</text><path d="M 657 392 L 657 100 Q 657 96 661 96 L 679 96 Q 683 96 683 100 L 683 392 Z" fill="#2a78d6"/><text x="670" y="89" font-family="system-ui, -apple-system, 'Segoe UI', sans-serif" font-size="11" fill="#0b0b0b" text-anchor="middle" font-weight="600" font-variant-numeric="tabular-nums">10</text><path d="M 687 392 L 687 100 Q 687 96 691 96 L 709 96 Q 713 96 713 100 L 713 392 Z" fill="#1baf7a"/><text x="700" y="89" font-family="system-ui, -apple-system, 'Segoe UI', sans-serif" font-size="11" fill="#0b0b0b" text-anchor="middle" font-weight="600" font-variant-numeric="tabular-nums">10</text><path d="M 717 392 L 717 100 Q 717 96 721 96 L 739 96 Q 743 96 743 100 L 743 392 Z" fill="#b07820"/><text x="730" y="89" font-family="system-ui, -apple-system, 'Segoe UI', sans-serif" font-size="11" fill="#0b0b0b" text-anchor="middle" font-weight="600" font-variant-numeric="tabular-nums">10</text><text x="700" y="412" font-family="system-ui, -apple-system, 'Segoe UI', sans-serif" font-size="12" fill="#0b0b0b" text-anchor="middle" font-weight="600">DeepSeek V4 Flash</text><text x="700" y="428" font-family="system-ui, -apple-system, 'Segoe UI', sans-serif" font-size="10.5" fill="#898781" text-anchor="middle" font-weight="400">weak</text><path d="M 801 392 L 801 188.8 Q 801 184.8 805 184.8 L 823 184.8 Q 827 184.8 827 188.8 L 827 392 Z" fill="#2a78d6"/><text x="814" y="177.8" font-family="system-ui, -apple-system, 'Segoe UI', sans-serif" font-size="11" fill="#0b0b0b" text-anchor="middle" font-weight="600" font-variant-numeric="tabular-nums">7</text><path d="M 831 392 L 831 159.2 Q 831 155.2 835 155.2 L 853 155.2 Q 857 155.2 857 159.2 L 857 392 Z" fill="#1baf7a"/><text x="844" y="148.2" font-family="system-ui, -apple-system, 'Segoe UI', sans-serif" font-size="11" fill="#0b0b0b" text-anchor="middle" font-weight="600" font-variant-numeric="tabular-nums">8</text><path d="M 861 392 L 861 188.8 Q 861 184.8 865 184.8 L 883 184.8 Q 887 184.8 887 188.8 L 887 392 Z" fill="#b07820"/><text x="874" y="177.8" font-family="system-ui, -apple-system, 'Segoe UI', sans-serif" font-size="11" fill="#0b0b0b" text-anchor="middle" font-weight="600" font-variant-numeric="tabular-nums">7</text><text x="844" y="412" font-family="system-ui, -apple-system, 'Segoe UI', sans-serif" font-size="12" fill="#0b0b0b" text-anchor="middle" font-weight="600">Qwen3 30B A3B</text><text x="844" y="428" font-family="system-ui, -apple-system, 'Segoe UI', sans-serif" font-size="10.5" fill="#898781" text-anchor="middle" font-weight="400">weak</text><line x1="52" y1="392" x2="916" y2="392" stroke="#c3c2b7" stroke-width="1"/><text x="916" y="68" font-family="system-ui, -apple-system, 'Segoe UI', sans-serif" font-size="12" fill="#0b0b0b" text-anchor="end" font-weight="600" font-variant-numeric="tabular-nums">totals: pyrepl 53/60 (88%)   ·   jsrepl 56/60 (93%)   ·   lispfns 56/60 (93%)</text></svg>