<svg xmlns="http://www.w3.org/2000/svg" width="940" height="320" viewBox="0 0 940 320" role="img">
<rect width="940" height="320" fill="#fcfcfb" rx="8"/>
<text x="16" y="28" font-family="system-ui, -apple-system, 'Segoe UI', sans-serif" font-size="15" fill="#0b0b0b" text-anchor="start" font-weight="600">At 367 tools, every surface holds accuracy — the difference is context</text><text x="16" y="46" font-family="system-ui, -apple-system, 'Segoe UI', sans-serif" font-size="12" fill="#52514e" text-anchor="start" font-weight="400">40 servers · 367 tools · 3 aggressive scenarios × 4 models · baseline folds all 367 schemas; SQL discovers on demand; the fn catalogs are primed</text><text x="16" y="82" font-family="system-ui, -apple-system, 'Segoe UI', sans-serif" font-size="12.5" fill="#0b0b0b" text-anchor="start" font-weight="600">Tasks passed (of 12)</text><line x1="68" y1="276" x2="446" y2="276" stroke="#e1e0d9" stroke-width="1"/><text x="62" y="280" font-family="system-ui, -apple-system, 'Segoe UI', sans-serif" font-size="10.5" fill="#898781" text-anchor="end" font-weight="400" font-variant-numeric="tabular-nums">0%</text><line x1="68" y1="184" x2="446" y2="184" stroke="#e1e0d9" stroke-width="1"/><text x="62" y="188" font-family="system-ui, -apple-system, 'Segoe UI', sans-serif" font-size="10.5" fill="#898781" text-anchor="end" font-weight="400" font-variant-numeric="tabular-nums">50%</text><line x1="68" y1="92" x2="446" y2="92" stroke="#e1e0d9" stroke-width="1"/><text x="62" y="96" font-family="system-ui, -apple-system, 'Segoe UI', sans-serif" font-size="10.5" fill="#898781" text-anchor="end" font-weight="400" font-variant-numeric="tabular-nums">100%</text><path d="M 124.4 276 L 124.4 142 Q 124.4 138 128.4 138 L 146.4 138 Q 150.4 138 150.4 142 L 150.4 276 Z" fill="#898781"/><text x="137.4" y="131" font-family="system-ui, -apple-system, 'Segoe UI', sans-serif" font-size="10.5" fill="#0b0b0b" text-anchor="middle" font-weight="600" font-variant-numeric="tabular-nums">9/12</text><text x="137.4" y="292" font-family="system-ui, -apple-system, 'Segoe UI', sans-serif" font-size="10.5" fill="#0b0b0b" text-anchor="middle" font-weight="600">baseline</text><path d="M 195.20000000000002 276 L 195.20000000000002 142 Q 195.20000000000002 138 199.20000000000002 138 L 217.20000000000002 138 Q 221.20000000000002 138 221.20000000000002 142 L 221.20000000000002 276 Z" fill="#1c5cab"/><text x="208.20000000000002" y="131" font-family="system-ui, -apple-system, 'Segoe UI', sans-serif" font-size="10.5" fill="#0b0b0b" text-anchor="middle" font-weight="600" font-variant-numeric="tabular-nums">9/12</text><text x="208.20000000000002" y="292" font-family="system-ui, -apple-system, 'Segoe UI', sans-serif" font-size="10.5" fill="#0b0b0b" text-anchor="middle" font-weight="600">SQL</text><path d="M 266 276 L 266 126.66666666666663 Q 266 122.66666666666663 270 122.66666666666663 L 288 122.66666666666663 Q 292 122.66666666666663 292 126.66666666666663 L 292 276 Z" fill="#2a78d6"/><text x="279" y="115.66666666666663" font-family="system-ui, -apple-system, 'Segoe UI', sans-serif" font-size="10.5" fill="#0b0b0b" text-anchor="middle" font-weight="600" font-variant-numeric="tabular-nums">10/12</text><text x="279" y="292" font-family="system-ui, -apple-system, 'Segoe UI', sans-serif" font-size="10.5" fill="#0b0b0b" text-anchor="middle" font-weight="600">pyrepl</text><path d="M 336.79999999999995 276 L 336.79999999999995 146.1818181818182 Q 336.79999999999995 142.1818181818182 340.79999999999995 142.1818181818182 L 358.79999999999995 142.1818181818182 Q 362.79999999999995 142.1818181818182 362.79999999999995 146.1818181818182 L 362.79999999999995 276 Z" fill="#1baf7a"/><text x="349.79999999999995" y="135.1818181818182" font-family="system-ui, -apple-system, 'Segoe UI', sans-serif" font-size="10.5" fill="#0b0b0b" text-anchor="middle" font-weight="600" font-variant-numeric="tabular-nums">8/11</text><text x="349.79999999999995" y="292" font-family="system-ui, -apple-system, 'Segoe UI', sans-serif" font-size="10.5" fill="#0b0b0b" text-anchor="middle" font-weight="600">jsrepl</text><path d="M 407.59999999999997 276 L 407.59999999999997 157.33333333333337 Q 407.59999999999997 153.33333333333337 411.59999999999997 153.33333333333337 L 429.59999999999997 153.33333333333337 Q 433.59999999999997 153.33333333333337 433.59999999999997 157.33333333333337 L 433.59999999999997 276 Z" fill="#b07820"/><text x="420.59999999999997" y="146.33333333333337" font-family="system-ui, -apple-system, 'Segoe UI', sans-serif" font-size="10.5" fill="#0b0b0b" text-anchor="middle" font-weight="600" font-variant-numeric="tabular-nums">8/12</text><text x="420.59999999999997" y="292" font-family="system-ui, -apple-system, 'Segoe UI', sans-serif" font-size="10.5" fill="#0b0b0b" text-anchor="middle" font-weight="600">lispfns</text><line x1="68" y1="276" x2="446" y2="276" stroke="#c3c2b7" stroke-width="1"/><text x="494" y="82" font-family="system-ui, -apple-system, 'Segoe UI', sans-serif" font-size="12.5" fill="#0b0b0b" text-anchor="start" font-weight="600">Median peak context (tokens)</text><path d="M 526 276 L 526 124.06779661016947 Q 526 120.06779661016947 530 120.06779661016947 L 548 120.06779661016947 Q 552 120.06779661016947 552 124.06779661016947 L 552 276 Z" fill="#898781"/><text x="539" y="100.06779661016947" font-family="system-ui, -apple-system, 'Segoe UI', sans-serif" font-size="10.5" fill="#0b0b0b" text-anchor="middle" font-weight="700" font-variant-numeric="tabular-nums">47k</text><text x="539" y="292" font-family="system-ui, -apple-system, 'Segoe UI', sans-serif" font-size="10.5" fill="#0b0b0b" text-anchor="middle" font-weight="600">baseline</text><path d="M 616 276 L 616 265.11575789678466 Q 616 261.11575789678466 620 261.11575789678466 L 638 261.11575789678466 Q 642 261.11575789678466 642 265.11575789678466 L 642 276 Z" fill="#1c5cab"/><text x="629" y="241.11575789678466" font-family="system-ui, -apple-system, 'Segoe UI', sans-serif" font-size="10.5" fill="#0b0b0b" text-anchor="middle" font-weight="700" font-variant-numeric="tabular-nums">4.5k</text><text x="629" y="254.11575789678466" font-family="system-ui, -apple-system, 'Segoe UI', sans-serif" font-size="9.5" fill="#006300" text-anchor="middle" font-weight="600" font-variant-numeric="tabular-nums">10.5×</text><text x="629" y="292" font-family="system-ui, -apple-system, 'Segoe UI', sans-serif" font-size="10.5" fill="#0b0b0b" text-anchor="middle" font-weight="600">SQL</text><path d="M 706 276 L 706 210.78943214063915 Q 706 206.78943214063915 710 206.78943214063915 L 728 206.78943214063915 Q 732 206.78943214063915 732 210.78943214063915 L 732 276 Z" fill="#2a78d6"/><text x="719" y="186.78943214063915" font-family="system-ui, -apple-system, 'Segoe UI', sans-serif" font-size="10.5" fill="#0b0b0b" text-anchor="middle" font-weight="700" font-variant-numeric="tabular-nums">21k</text><text x="719" y="199.78943214063915" font-family="system-ui, -apple-system, 'Segoe UI', sans-serif" font-size="9.5" fill="#006300" text-anchor="middle" font-weight="600" font-variant-numeric="tabular-nums">2.3×</text><text x="719" y="292" font-family="system-ui, -apple-system, 'Segoe UI', sans-serif" font-size="10.5" fill="#0b0b0b" text-anchor="middle" font-weight="600">pyrepl</text><path d="M 796 276 L 796 210.81259055244678 Q 796 206.81259055244678 800 206.81259055244678 L 818 206.81259055244678 Q 822 206.81259055244678 822 210.81259055244678 L 822 276 Z" fill="#1baf7a"/><text x="809" y="186.81259055244678" font-family="system-ui, -apple-system, 'Segoe UI', sans-serif" font-size="10.5" fill="#0b0b0b" text-anchor="middle" font-weight="700" font-variant-numeric="tabular-nums">21k</text><text x="809" y="199.81259055244678" font-family="system-ui, -apple-system, 'Segoe UI', sans-serif" font-size="9.5" fill="#006300" text-anchor="middle" font-weight="600" font-variant-numeric="tabular-nums">2.3×</text><text x="809" y="292" font-family="system-ui, -apple-system, 'Segoe UI', sans-serif" font-size="10.5" fill="#0b0b0b" text-anchor="middle" font-weight="600">jsrepl</text><path d="M 886 276 L 886 200.54348908803684 Q 886 196.54348908803684 890 196.54348908803684 L 908 196.54348908803684 Q 912 196.54348908803684 912 200.54348908803684 L 912 276 Z" fill="#b07820"/><text x="899" y="176.54348908803684" font-family="system-ui, -apple-system, 'Segoe UI', sans-serif" font-size="10.5" fill="#0b0b0b" text-anchor="middle" font-weight="700" font-variant-numeric="tabular-nums">24k</text><text x="899" y="189.54348908803684" font-family="system-ui, -apple-system, 'Segoe UI', sans-serif" font-size="9.5" fill="#006300" text-anchor="middle" font-weight="600" font-variant-numeric="tabular-nums">2.0×</text><text x="899" y="292" font-family="system-ui, -apple-system, 'Segoe UI', sans-serif" font-size="10.5" fill="#0b0b0b" text-anchor="middle" font-weight="600">lispfns</text><line x1="486" y1="276" x2="924" y2="276" stroke="#c3c2b7" stroke-width="1"/><text x="16" y="312" font-family="system-ui, -apple-system, 'Segoe UI', sans-serif" font-size="10.5" fill="#898781" text-anchor="start" font-weight="400">Function mode holds accuracy under noise (pyrepl 10/12, the best arm) but its primed catalog costs ~5× SQL's on-demand discovery — still ~2× below the folded baseline.</text></svg>