<svg xmlns="http://www.w3.org/2000/svg" width="760" height="340" viewBox="0 0 760 340" role="img"><rect width="760" height="340" fill="#fcfcfb" rx="8"/><text x="16" y="30" font-family="system-ui, -apple-system, 'Segoe UI', sans-serif" font-size="14.5" fill="#0b0b0b" text-anchor="start" font-weight="600">Delegating the judgement keeps accuracy while the documents never reach the planner</text><text x="16" y="48" font-family="system-ui, -apple-system, 'Segoe UI', sans-serif" font-size="11.5" fill="#52514e" text-anchor="start" font-weight="400">Subjective 'how many are negative?' over a feedback corpus with a PII canary · the planner sees only booleans</text><rect x="16" y="66" width="12" height="12" rx="3" fill="#898781"/><text x="34" y="77" font-family="system-ui, -apple-system, 'Segoe UI', sans-serif" font-size="11.5" fill="#52514e" text-anchor="start" font-weight="400">self-judge</text><rect x="166" y="66" width="12" height="12" rx="3" fill="#12887a"/><text x="184" y="77" font-family="system-ui, -apple-system, 'Segoe UI', sans-serif" font-size="11.5" fill="#52514e" text-anchor="start" font-weight="400">delegate-judge</text><line x1="16" y1="215" x2="234.66666666666666" y2="215" stroke="#e1e0d9" stroke-width="1"/><line x1="16" y1="174" x2="234.66666666666666" y2="174" stroke="#e1e0d9" stroke-width="1"/><line x1="16" y1="133" x2="234.66666666666666" y2="133" stroke="#e1e0d9" stroke-width="1"/><line x1="16" y1="92" x2="234.66666666666666" y2="92" stroke="#e1e0d9" stroke-width="1"/><line x1="16" y1="256" x2="234.66666666666666" y2="256" stroke="#c3c2b7" stroke-width="1"/><path d="M 62.33333333333333 256 L 62.33333333333333 219 Q 62.33333333333333 215 66.33333333333333 215 L 114.33333333333333 215 Q 118.33333333333333 215 118.33333333333333 219 L 118.33333333333333 256 Z" fill="#898781" opacity="1"/><text x="90.33333333333333" y="209" font-family="system-ui, -apple-system, 'Segoe UI', sans-serif" font-size="11" fill="#0b0b0b" text-anchor="middle" font-weight="600" font-variant-numeric="tabular-nums">25%</text><path d="M 132.33333333333331 256 L 132.33333333333331 137 Q 132.33333333333331 133 136.33333333333331 133 L 184.33333333333331 133 Q 188.33333333333331 133 188.33333333333331 137 L 188.33333333333331 256 Z" fill="#12887a" opacity="1"/><text x="160.33333333333331" y="127" font-family="system-ui, -apple-system, 'Segoe UI', sans-serif" font-size="11" fill="#0b0b0b" text-anchor="middle" font-weight="600" font-variant-numeric="tabular-nums">75%</text><text x="125.33333333333333" y="278" font-family="system-ui, -apple-system, 'Segoe UI', sans-serif" font-size="12.5" fill="#0b0b0b" text-anchor="middle" font-weight="600">Judge accuracy</text><line x1="270.66666666666663" y1="215" x2="489.33333333333326" y2="215" stroke="#e1e0d9" stroke-width="1"/><line x1="270.66666666666663" y1="174" x2="489.33333333333326" y2="174" stroke="#e1e0d9" stroke-width="1"/><line x1="270.66666666666663" y1="133" x2="489.33333333333326" y2="133" stroke="#e1e0d9" stroke-width="1"/><line x1="270.66666666666663" y1="92" x2="489.33333333333326" y2="92" stroke="#e1e0d9" stroke-width="1"/><line x1="270.66666666666663" y1="256" x2="489.33333333333326" y2="256" stroke="#c3c2b7" stroke-width="1"/><path d="M 316.99999999999994 256 L 316.99999999999994 219 Q 316.99999999999994 215 320.99999999999994 215 L 368.99999999999994 215 Q 372.99999999999994 215 372.99999999999994 219 L 372.99999999999994 256 Z" fill="#898781" opacity="1"/><text x="344.99999999999994" y="209" font-family="system-ui, -apple-system, 'Segoe UI', sans-serif" font-size="11" fill="#0b0b0b" text-anchor="middle" font-weight="600" font-variant-numeric="tabular-nums">25%</text><rect x="386.99999999999994" y="255" width="56" height="2.5" fill="#12887a" opacity="0.7"/><text x="414.99999999999994" y="250" font-family="system-ui, -apple-system, 'Segoe UI', sans-serif" font-size="11" fill="#0b0b0b" text-anchor="middle" font-weight="600" font-variant-numeric="tabular-nums">0%</text><text x="379.99999999999994" y="278" font-family="system-ui, -apple-system, 'Segoe UI', sans-serif" font-size="12.5" fill="#0b0b0b" text-anchor="middle" font-weight="600">Canary (PII) leak rate</text><line x1="525.3333333333333" y1="215" x2="743.9999999999999" y2="215" stroke="#e1e0d9" stroke-width="1"/><line x1="525.3333333333333" y1="174" x2="743.9999999999999" y2="174" stroke="#e1e0d9" stroke-width="1"/><line x1="525.3333333333333" y1="133" x2="743.9999999999999" y2="133" stroke="#e1e0d9" stroke-width="1"/><line x1="525.3333333333333" y1="92" x2="743.9999999999999" y2="92" stroke="#e1e0d9" stroke-width="1"/><line x1="525.3333333333333" y1="256" x2="743.9999999999999" y2="256" stroke="#c3c2b7" stroke-width="1"/><rect x="571.6666666666666" y="255" width="56" height="2.5" fill="#898781" opacity="0.7"/><text x="599.6666666666666" y="250" font-family="system-ui, -apple-system, 'Segoe UI', sans-serif" font-size="11" fill="#0b0b0b" text-anchor="middle" font-weight="600" font-variant-numeric="tabular-nums">0.0</text><path d="M 641.6666666666666 256 L 641.6666666666666 128.79999999999998 Q 641.6666666666666 124.79999999999998 645.6666666666666 124.79999999999998 L 693.6666666666666 124.79999999999998 Q 697.6666666666666 124.79999999999998 697.6666666666666 128.79999999999998 L 697.6666666666666 256 Z" fill="#12887a" opacity="1"/><text x="669.6666666666666" y="118.79999999999998" font-family="system-ui, -apple-system, 'Segoe UI', sans-serif" font-size="11" fill="#0b0b0b" text-anchor="middle" font-weight="600" font-variant-numeric="tabular-nums">6.0</text><text x="634.6666666666666" y="278" font-family="system-ui, -apple-system, 'Segoe UI', sans-serif" font-size="12.5" fill="#0b0b0b" text-anchor="middle" font-weight="600">Delegated classify calls</text></svg>