<svg xmlns="http://www.w3.org/2000/svg" width="620" height="330" viewBox="0 0 620 330" role="img"><rect width="620" height="330" fill="#fcfcfb" rx="8"/><text x="16" y="28" font-family="system-ui, -apple-system, 'Segoe UI', sans-serif" font-size="14.5" fill="#0b0b0b" text-anchor="start" font-weight="600">Single-call rate by frame — shapes primed vs discover-from-scratch</text><text x="16" y="46" font-family="system-ui, -apple-system, 'Segoe UI', sans-serif" font-size="12" fill="#52514e" text-anchor="start" font-weight="400">The de-REPL framings pull hardest when nothing is primed and a REPL would peek-then-split</text><rect x="16" y="64" width="12" height="12" rx="3" fill="#898781"/><text x="34" y="75" font-family="system-ui, -apple-system, 'Segoe UI', sans-serif" font-size="12" fill="#52514e" text-anchor="start" font-weight="400">repl · execute_js</text><rect x="166" y="64" width="12" height="12" rx="3" fill="#2a78d6"/><text x="184" y="75" font-family="system-ui, -apple-system, 'Segoe UI', sans-serif" font-size="12" fill="#52514e" text-anchor="start" font-weight="400">program · _program</text><rect x="316" y="64" width="12" height="12" rx="3" fill="#12887a"/><text x="334" y="75" font-family="system-ui, -apple-system, 'Segoe UI', sans-serif" font-size="12" fill="#52514e" text-anchor="start" font-weight="400">workflow · _workflow</text><line x1="46" y1="278" x2="604" y2="278" stroke="#e1e0d9" stroke-width="1"/><text x="38" y="282" font-family="system-ui, -apple-system, 'Segoe UI', sans-serif" font-size="11" fill="#898781" text-anchor="end" font-weight="400" font-variant-numeric="tabular-nums">0%</text><line x1="46" y1="231" x2="604" y2="231" stroke="#e1e0d9" stroke-width="1"/><text x="38" y="235" font-family="system-ui, -apple-system, 'Segoe UI', sans-serif" font-size="11" fill="#898781" text-anchor="end" font-weight="400" font-variant-numeric="tabular-nums">25%</text><line x1="46" y1="184" x2="604" y2="184" stroke="#e1e0d9" stroke-width="1"/><text x="38" y="188" font-family="system-ui, -apple-system, 'Segoe UI', sans-serif" font-size="11" fill="#898781" text-anchor="end" font-weight="400" font-variant-numeric="tabular-nums">50%</text><line x1="46" y1="137" x2="604" y2="137" stroke="#e1e0d9" stroke-width="1"/><text x="38" y="141" font-family="system-ui, -apple-system, 'Segoe UI', sans-serif" font-size="11" fill="#898781" text-anchor="end" font-weight="400" font-variant-numeric="tabular-nums">75%</text><line x1="46" y1="90" x2="604" y2="90" stroke="#e1e0d9" stroke-width="1"/><text x="38" y="94" font-family="system-ui, -apple-system, 'Segoe UI', sans-serif" font-size="11" fill="#898781" text-anchor="end" font-weight="400" font-variant-numeric="tabular-nums">100%</text><path d="M 119.5 278 L 119.5 246.75 Q 119.5 242.75 123.5 242.75 L 153.5 242.75 Q 157.5 242.75 157.5 246.75 L 157.5 278 Z" fill="#898781"/><text x="138.5" y="236.75" font-family="system-ui, -apple-system, 'Segoe UI', sans-serif" font-size="10.5" fill="#0b0b0b" text-anchor="middle" font-weight="600" font-variant-numeric="tabular-nums">19</text><path d="M 166.5 278 L 166.5 235 Q 166.5 231 170.5 231 L 200.5 231 Q 204.5 231 204.5 235 L 204.5 278 Z" fill="#2a78d6"/><text x="185.5" y="225" font-family="system-ui, -apple-system, 'Segoe UI', sans-serif" font-size="10.5" fill="#0b0b0b" text-anchor="middle" font-weight="600" font-variant-numeric="tabular-nums">25</text><path d="M 213.5 278 L 213.5 211.5 Q 213.5 207.5 217.5 207.5 L 247.5 207.5 Q 251.5 207.5 251.5 211.5 L 251.5 278 Z" fill="#12887a"/><text x="232.5" y="201.5" font-family="system-ui, -apple-system, 'Segoe UI', sans-serif" font-size="10.5" fill="#0b0b0b" text-anchor="middle" font-weight="600" font-variant-numeric="tabular-nums">38</text><text x="185.5" y="300" font-family="system-ui, -apple-system, 'Segoe UI', sans-serif" font-size="12" fill="#0b0b0b" text-anchor="middle" font-weight="600">full (shapes primed)</text><path d="M 398.5 278 L 398.5 235 Q 398.5 231 402.5 231 L 432.5 231 Q 436.5 231 436.5 235 L 436.5 278 Z" fill="#898781"/><text x="417.5" y="225" font-family="system-ui, -apple-system, 'Segoe UI', sans-serif" font-size="10.5" fill="#0b0b0b" text-anchor="middle" font-weight="600" font-variant-numeric="tabular-nums">25</text><path d="M 445.5 278 L 445.5 199.75 Q 445.5 195.75 449.5 195.75 L 479.5 195.75 Q 483.5 195.75 483.5 199.75 L 483.5 278 Z" fill="#2a78d6"/><text x="464.5" y="189.75" font-family="system-ui, -apple-system, 'Segoe UI', sans-serif" font-size="10.5" fill="#0b0b0b" text-anchor="middle" font-weight="600" font-variant-numeric="tabular-nums">44</text><path d="M 492.5 278 L 492.5 223.25 Q 492.5 219.25 496.5 219.25 L 526.5 219.25 Q 530.5 219.25 530.5 223.25 L 530.5 278 Z" fill="#12887a"/><text x="511.5" y="213.25" font-family="system-ui, -apple-system, 'Segoe UI', sans-serif" font-size="10.5" fill="#0b0b0b" text-anchor="middle" font-weight="600" font-variant-numeric="tabular-nums">31</text><text x="464.5" y="300" font-family="system-ui, -apple-system, 'Segoe UI', sans-serif" font-size="12" fill="#0b0b0b" text-anchor="middle" font-weight="600">progressive (discover)</text><line x1="46" y1="278" x2="604" y2="278" stroke="#c3c2b7" stroke-width="1"/></svg>