<svg xmlns="http://www.w3.org/2000/svg" width="760" height="360" viewBox="0 0 760 360" role="img"><rect width="760" height="360" fill="#fcfcfb" rx="8"/><text x="16" y="28" font-family="system-ui, -apple-system, 'Segoe UI', sans-serif" font-size="14.5" fill="#0b0b0b" text-anchor="start" font-weight="600">Renaming the eval tool shifts single-call rate, correctness, and calls per task</text><text x="16" y="46" font-family="system-ui, -apple-system, 'Segoe UI', sans-serif" font-size="12" fill="#52514e" text-anchor="start" font-weight="400">6 complex tasks × 4 models · same runtime/catalog/scenarios — only the tool's name + priming differ</text><rect x="16" y="62" width="12" height="12" rx="3" fill="#898781"/><text x="34" y="73" font-family="system-ui, -apple-system, 'Segoe UI', sans-serif" font-size="12" fill="#52514e" text-anchor="start" font-weight="400">repl · execute_js</text><rect x="194" y="62" width="12" height="12" rx="3" fill="#2a78d6"/><text x="212" y="73" font-family="system-ui, -apple-system, 'Segoe UI', sans-serif" font-size="12" fill="#52514e" text-anchor="start" font-weight="400">program · _program</text><rect x="372" y="62" width="12" height="12" rx="3" fill="#12887a"/><text x="390" y="73" font-family="system-ui, -apple-system, 'Segoe UI', sans-serif" font-size="12" fill="#52514e" text-anchor="start" font-weight="400">workflow · _workflow</text><line x1="12" y1="261.5" x2="240" y2="261.5" stroke="#e1e0d9" stroke-width="1"/><line x1="12" y1="207" x2="240" y2="207" stroke="#e1e0d9" stroke-width="1"/><line x1="12" y1="152.5" x2="240" y2="152.5" stroke="#e1e0d9" stroke-width="1"/><line x1="12" y1="98" x2="240" y2="98" stroke="#e1e0d9" stroke-width="1"/><line x1="12" y1="316" x2="240" y2="316" stroke="#c3c2b7" stroke-width="1"/><path d="M 49 316 L 49 310.9166666666667 Q 49 306.9166666666667 53 306.9166666666667 L 91 306.9166666666667 Q 95 306.9166666666667 95 310.9166666666667 L 95 316 Z" fill="#898781"/><text x="72" y="300.9166666666667" font-family="system-ui, -apple-system, 'Segoe UI', sans-serif" font-size="11" fill="#0b0b0b" text-anchor="middle" font-weight="600" font-variant-numeric="tabular-nums">4%</text><path d="M 103 316 L 103 292.75 Q 103 288.75 107 288.75 L 145 288.75 Q 149 288.75 149 292.75 L 149 316 Z" fill="#2a78d6"/><text x="126" y="282.75" font-family="system-ui, -apple-system, 'Segoe UI', sans-serif" font-size="11" fill="#0b0b0b" text-anchor="middle" font-weight="600" font-variant-numeric="tabular-nums">13%</text><path d="M 157 316 L 157 247.33333333333334 Q 157 243.33333333333334 161 243.33333333333334 L 199 243.33333333333334 Q 203 243.33333333333334 203 247.33333333333334 L 203 316 Z" fill="#12887a"/><text x="180" y="237.33333333333334" font-family="system-ui, -apple-system, 'Segoe UI', sans-serif" font-size="11" fill="#0b0b0b" text-anchor="middle" font-weight="600" font-variant-numeric="tabular-nums">33%</text><text x="126" y="338" font-family="system-ui, -apple-system, 'Segoe UI', sans-serif" font-size="12.5" fill="#0b0b0b" text-anchor="middle" font-weight="600">Single-call rate</text><line x1="266" y1="261.5" x2="494" y2="261.5" stroke="#e1e0d9" stroke-width="1"/><line x1="266" y1="207" x2="494" y2="207" stroke="#e1e0d9" stroke-width="1"/><line x1="266" y1="152.5" x2="494" y2="152.5" stroke="#e1e0d9" stroke-width="1"/><line x1="266" y1="98" x2="494" y2="98" stroke="#e1e0d9" stroke-width="1"/><line x1="266" y1="316" x2="494" y2="316" stroke="#c3c2b7" stroke-width="1"/><path d="M 303 316 L 303 156.5 Q 303 152.5 307 152.5 L 345 152.5 Q 349 152.5 349 156.5 L 349 316 Z" fill="#898781"/><text x="326" y="146.5" font-family="system-ui, -apple-system, 'Segoe UI', sans-serif" font-size="11" fill="#0b0b0b" text-anchor="middle" font-weight="600" font-variant-numeric="tabular-nums">75%</text><path d="M 357 316 L 357 165.58333333333331 Q 357 161.58333333333331 361 161.58333333333331 L 399 161.58333333333331 Q 403 161.58333333333331 403 165.58333333333331 L 403 316 Z" fill="#2a78d6"/><text x="380" y="155.58333333333331" font-family="system-ui, -apple-system, 'Segoe UI', sans-serif" font-size="11" fill="#0b0b0b" text-anchor="middle" font-weight="600" font-variant-numeric="tabular-nums">71%</text><path d="M 411 316 L 411 156.5 Q 411 152.5 415 152.5 L 453 152.5 Q 457 152.5 457 156.5 L 457 316 Z" fill="#12887a"/><text x="434" y="146.5" font-family="system-ui, -apple-system, 'Segoe UI', sans-serif" font-size="11" fill="#0b0b0b" text-anchor="middle" font-weight="600" font-variant-numeric="tabular-nums">75%</text><text x="380" y="338" font-family="system-ui, -apple-system, 'Segoe UI', sans-serif" font-size="12.5" fill="#0b0b0b" text-anchor="middle" font-weight="600">Pass rate</text><line x1="520" y1="261.5" x2="748" y2="261.5" stroke="#e1e0d9" stroke-width="1"/><line x1="520" y1="207" x2="748" y2="207" stroke="#e1e0d9" stroke-width="1"/><line x1="520" y1="152.5" x2="748" y2="152.5" stroke="#e1e0d9" stroke-width="1"/><line x1="520" y1="98" x2="748" y2="98" stroke="#e1e0d9" stroke-width="1"/><line x1="520" y1="316" x2="748" y2="316" stroke="#c3c2b7" stroke-width="1"/><path d="M 557 316 L 557 135.25423728813558 Q 557 131.25423728813558 561 131.25423728813558 L 599 131.25423728813558 Q 603 131.25423728813558 603 135.25423728813558 L 603 316 Z" fill="#898781"/><text x="580" y="125.25423728813558" font-family="system-ui, -apple-system, 'Segoe UI', sans-serif" font-size="11" fill="#0b0b0b" text-anchor="middle" font-weight="600" font-variant-numeric="tabular-nums">5.7</text><path d="M 611 316 L 611 182.79910269192422 Q 611 178.79910269192422 615 178.79910269192422 L 653 178.79910269192422 Q 657 178.79910269192422 657 182.79910269192422 L 657 316 Z" fill="#2a78d6"/><text x="634" y="172.79910269192422" font-family="system-ui, -apple-system, 'Segoe UI', sans-serif" font-size="11" fill="#0b0b0b" text-anchor="middle" font-weight="600" font-variant-numeric="tabular-nums">4.2</text><path d="M 665 316 L 665 196.38334995014958 Q 665 192.38334995014958 669 192.38334995014958 L 707 192.38334995014958 Q 711 192.38334995014958 711 196.38334995014958 L 711 316 Z" fill="#12887a"/><text x="688" y="186.38334995014958" font-family="system-ui, -apple-system, 'Segoe UI', sans-serif" font-size="11" fill="#0b0b0b" text-anchor="middle" font-weight="600" font-variant-numeric="tabular-nums">3.8</text><text x="634" y="338" font-family="system-ui, -apple-system, 'Segoe UI', sans-serif" font-size="12.5" fill="#0b0b0b" text-anchor="middle" font-weight="600">Avg eval calls / task</text></svg>