<svg xmlns="http://www.w3.org/2000/svg" width="760" height="330" viewBox="0 0 760 330" role="img"><rect width="760" height="330" fill="#fcfcfb" rx="8"/><text x="16" y="28" font-family="system-ui, -apple-system, 'Segoe UI', sans-serif" font-size="14.5" fill="#0b0b0b" text-anchor="start" font-weight="600">Single-call rate by model and frame — the effect is model-dependent</text><text x="16" y="46" font-family="system-ui, -apple-system, 'Segoe UI', sans-serif" font-size="12" fill="#52514e" text-anchor="start" font-weight="400">Share of runs that did the whole task in exactly one eval call · higher = composes one program, not a session</text><rect x="16" y="64" width="12" height="12" rx="3" fill="#898781"/><text x="34" y="75" font-family="system-ui, -apple-system, 'Segoe UI', sans-serif" font-size="12" fill="#52514e" text-anchor="start" font-weight="400">repl · execute_js</text><rect x="194" y="64" width="12" height="12" rx="3" fill="#2a78d6"/><text x="212" y="75" font-family="system-ui, -apple-system, 'Segoe UI', sans-serif" font-size="12" fill="#52514e" text-anchor="start" font-weight="400">program · _program</text><rect x="372" y="64" width="12" height="12" rx="3" fill="#12887a"/><text x="390" y="75" font-family="system-ui, -apple-system, 'Segoe UI', sans-serif" font-size="12" fill="#52514e" text-anchor="start" font-weight="400">workflow · _workflow</text><line x1="46" y1="278" x2="744" y2="278" stroke="#e1e0d9" stroke-width="1"/><text x="38" y="282" font-family="system-ui, -apple-system, 'Segoe UI', sans-serif" font-size="11" fill="#898781" text-anchor="end" font-weight="400" font-variant-numeric="tabular-nums">0%</text><line x1="46" y1="231.5" x2="744" y2="231.5" stroke="#e1e0d9" stroke-width="1"/><text x="38" y="235.5" font-family="system-ui, -apple-system, 'Segoe UI', sans-serif" font-size="11" fill="#898781" text-anchor="end" font-weight="400" font-variant-numeric="tabular-nums">25%</text><line x1="46" y1="185" x2="744" y2="185" stroke="#e1e0d9" stroke-width="1"/><text x="38" y="189" font-family="system-ui, -apple-system, 'Segoe UI', sans-serif" font-size="11" fill="#898781" text-anchor="end" font-weight="400" font-variant-numeric="tabular-nums">50%</text><line x1="46" y1="138.5" x2="744" y2="138.5" stroke="#e1e0d9" stroke-width="1"/><text x="38" y="142.5" font-family="system-ui, -apple-system, 'Segoe UI', sans-serif" font-size="11" fill="#898781" text-anchor="end" font-weight="400" font-variant-numeric="tabular-nums">75%</text><line x1="46" y1="92" x2="744" y2="92" stroke="#e1e0d9" stroke-width="1"/><text x="38" y="96" font-family="system-ui, -apple-system, 'Segoe UI', sans-serif" font-size="11" fill="#898781" text-anchor="end" font-weight="400" font-variant-numeric="tabular-nums">100%</text><path d="M 81.25 278 L 81.25 251 Q 81.25 247 85.25 247 L 107.25 247 Q 111.25 247 111.25 251 L 111.25 278 Z" fill="#898781"/><text x="96.25" y="242" font-family="system-ui, -apple-system, 'Segoe UI', sans-serif" font-size="9.5" fill="#52514e" text-anchor="middle" font-weight="400" font-variant-numeric="tabular-nums">17</text><path d="M 118.25 278 L 118.25 189 Q 118.25 185 122.25 185 L 144.25 185 Q 148.25 185 148.25 189 L 148.25 278 Z" fill="#2a78d6"/><text x="133.25" y="180" font-family="system-ui, -apple-system, 'Segoe UI', sans-serif" font-size="9.5" fill="#52514e" text-anchor="middle" font-weight="400" font-variant-numeric="tabular-nums">50</text><path d="M 155.25 278 L 155.25 220 Q 155.25 216 159.25 216 L 181.25 216 Q 185.25 216 185.25 220 L 185.25 278 Z" fill="#12887a"/><text x="170.25" y="211" font-family="system-ui, -apple-system, 'Segoe UI', sans-serif" font-size="9.5" fill="#52514e" text-anchor="middle" font-weight="400" font-variant-numeric="tabular-nums">33</text><text x="133.25" y="300" font-family="system-ui, -apple-system, 'Segoe UI', sans-serif" font-size="12" fill="#0b0b0b" text-anchor="middle" font-weight="600">glm</text><rect x="255.75" y="277" width="30" height="2" fill="#898781" opacity="0.55"/><text x="270.75" y="273" font-family="system-ui, -apple-system, 'Segoe UI', sans-serif" font-size="9.5" fill="#52514e" text-anchor="middle" font-weight="400" font-variant-numeric="tabular-nums">0</text><rect x="292.75" y="277" width="30" height="2" fill="#2a78d6" opacity="0.55"/><text x="307.75" y="273" font-family="system-ui, -apple-system, 'Segoe UI', sans-serif" font-size="9.5" fill="#52514e" text-anchor="middle" font-weight="400" font-variant-numeric="tabular-nums">0</text><path d="M 329.75 278 L 329.75 220 Q 329.75 216 333.75 216 L 355.75 216 Q 359.75 216 359.75 220 L 359.75 278 Z" fill="#12887a"/><text x="344.75" y="211" font-family="system-ui, -apple-system, 'Segoe UI', sans-serif" font-size="9.5" fill="#52514e" text-anchor="middle" font-weight="400" font-variant-numeric="tabular-nums">33</text><text x="307.75" y="300" font-family="system-ui, -apple-system, 'Segoe UI', sans-serif" font-size="12" fill="#0b0b0b" text-anchor="middle" font-weight="600">deepseek</text><rect x="430.25" y="277" width="30" height="2" fill="#898781" opacity="0.55"/><text x="445.25" y="273" font-family="system-ui, -apple-system, 'Segoe UI', sans-serif" font-size="9.5" fill="#52514e" text-anchor="middle" font-weight="400" font-variant-numeric="tabular-nums">0</text><rect x="467.25" y="277" width="30" height="2" fill="#2a78d6" opacity="0.55"/><text x="482.25" y="273" font-family="system-ui, -apple-system, 'Segoe UI', sans-serif" font-size="9.5" fill="#52514e" text-anchor="middle" font-weight="400" font-variant-numeric="tabular-nums">0</text><path d="M 504.25 278 L 504.25 220 Q 504.25 216 508.25 216 L 530.25 216 Q 534.25 216 534.25 220 L 534.25 278 Z" fill="#12887a"/><text x="519.25" y="211" font-family="system-ui, -apple-system, 'Segoe UI', sans-serif" font-size="9.5" fill="#52514e" text-anchor="middle" font-weight="400" font-variant-numeric="tabular-nums">33</text><text x="482.25" y="300" font-family="system-ui, -apple-system, 'Segoe UI', sans-serif" font-size="12" fill="#0b0b0b" text-anchor="middle" font-weight="600">xiaomi</text><rect x="604.75" y="277" width="30" height="2" fill="#898781" opacity="0.55"/><text x="619.75" y="273" font-family="system-ui, -apple-system, 'Segoe UI', sans-serif" font-size="9.5" fill="#52514e" text-anchor="middle" font-weight="400" font-variant-numeric="tabular-nums">0</text><rect x="641.75" y="277" width="30" height="2" fill="#2a78d6" opacity="0.55"/><text x="656.75" y="273" font-family="system-ui, -apple-system, 'Segoe UI', sans-serif" font-size="9.5" fill="#52514e" text-anchor="middle" font-weight="400" font-variant-numeric="tabular-nums">0</text><path d="M 678.75 278 L 678.75 220 Q 678.75 216 682.75 216 L 704.75 216 Q 708.75 216 708.75 220 L 708.75 278 Z" fill="#12887a"/><text x="693.75" y="211" font-family="system-ui, -apple-system, 'Segoe UI', sans-serif" font-size="9.5" fill="#52514e" text-anchor="middle" font-weight="400" font-variant-numeric="tabular-nums">33</text><text x="656.75" y="300" font-family="system-ui, -apple-system, 'Segoe UI', sans-serif" font-size="12" fill="#0b0b0b" text-anchor="middle" font-weight="600">qwen30b</text><line x1="46" y1="278" x2="744" y2="278" stroke="#c3c2b7" stroke-width="1"/></svg>