<svg xmlns="http://www.w3.org/2000/svg" width="760" height="380" viewBox="0 0 760 380" role="img"><rect width="760" height="380" fill="#fcfcfb" rx="8"/><text x="16" y="30" font-family="system-ui, -apple-system, 'Segoe UI', sans-serif" font-size="14.5" fill="#0b0b0b" text-anchor="start" font-weight="600">The leak only closes when the boundary is enforced — not when the model is merely asked</text><text x="16" y="48" font-family="system-ui, -apple-system, 'Segoe UI', sans-serif" font-size="12" fill="#52514e" text-anchor="start" font-weight="400">Same canary-salted org · leak = the exact secret reached the planner's context or the outbox · task pass held alongside</text><rect x="16" y="66" width="12" height="12" rx="3" fill="#c0562f"/><text x="34" y="77" font-family="system-ui, -apple-system, 'Segoe UI', sans-serif" font-size="11.5" fill="#52514e" text-anchor="start" font-weight="400">raw-mcp · tools folded</text><rect x="184" y="66" width="12" height="12" rx="3" fill="#898781"/><text x="202" y="77" font-family="system-ui, -apple-system, 'Segoe UI', sans-serif" font-size="11.5" fill="#52514e" text-anchor="start" font-weight="400">repl · execute_js</text><rect x="352" y="66" width="12" height="12" rx="3" fill="#d99a2b"/><text x="370" y="77" font-family="system-ui, -apple-system, 'Segoe UI', sans-serif" font-size="11.5" fill="#52514e" text-anchor="start" font-weight="400">workflow · voluntary</text><rect x="520" y="66" width="12" height="12" rx="3" fill="#12887a"/><text x="538" y="77" font-family="system-ui, -apple-system, 'Segoe UI', sans-serif" font-size="11.5" fill="#52514e" text-anchor="start" font-weight="400">gate · enforced</text><line x1="16" y1="240" x2="358" y2="240" stroke="#e1e0d9" stroke-width="1"/><line x1="16" y1="192" x2="358" y2="192" stroke="#e1e0d9" stroke-width="1"/><line x1="16" y1="144" x2="358" y2="144" stroke="#e1e0d9" stroke-width="1"/><line x1="16" y1="96" x2="358" y2="96" stroke="#e1e0d9" stroke-width="1"/><line x1="16" y1="288" x2="358" y2="288" stroke="#c3c2b7" stroke-width="1"/><path d="M 49 288 L 49 148 Q 49 144 53 144 L 105 144 Q 109 144 109 148 L 109 288 Z" fill="#c0562f" opacity="1"/><text x="79" y="138" font-family="system-ui, -apple-system, 'Segoe UI', sans-serif" font-size="11.5" fill="#0b0b0b" text-anchor="middle" font-weight="600" font-variant-numeric="tabular-nums">75%</text><text x="79" y="304" font-family="system-ui, -apple-system, 'Segoe UI', sans-serif" font-size="10" fill="#52514e" text-anchor="middle" font-weight="400">raw-mcp</text><path d="M 121 288 L 121 196 Q 121 192 125 192 L 177 192 Q 181 192 181 196 L 181 288 Z" fill="#898781" opacity="1"/><text x="151" y="186" font-family="system-ui, -apple-system, 'Segoe UI', sans-serif" font-size="11.5" fill="#0b0b0b" text-anchor="middle" font-weight="600" font-variant-numeric="tabular-nums">50%</text><text x="151" y="304" font-family="system-ui, -apple-system, 'Segoe UI', sans-serif" font-size="10" fill="#52514e" text-anchor="middle" font-weight="400">repl</text><path d="M 193 288 L 193 228 Q 193 224 197 224 L 249 224 Q 253 224 253 228 L 253 288 Z" fill="#d99a2b" opacity="1"/><text x="223" y="218" font-family="system-ui, -apple-system, 'Segoe UI', sans-serif" font-size="11.5" fill="#0b0b0b" text-anchor="middle" font-weight="600" font-variant-numeric="tabular-nums">33%</text><text x="223" y="304" font-family="system-ui, -apple-system, 'Segoe UI', sans-serif" font-size="10" fill="#52514e" text-anchor="middle" font-weight="400">workflow</text><rect x="265" y="287" width="60" height="2.5" fill="#12887a" opacity="0.7"/><text x="295" y="282" font-family="system-ui, -apple-system, 'Segoe UI', sans-serif" font-size="11.5" fill="#0b0b0b" text-anchor="middle" font-weight="600" font-variant-numeric="tabular-nums">0%</text><text x="295" y="304" font-family="system-ui, -apple-system, 'Segoe UI', sans-serif" font-size="10" fill="#52514e" text-anchor="middle" font-weight="400">gate</text><text x="187" y="330" font-family="system-ui, -apple-system, 'Segoe UI', sans-serif" font-size="13" fill="#0b0b0b" text-anchor="middle" font-weight="600">Canary leak rate</text><line x1="402" y1="240" x2="744" y2="240" stroke="#e1e0d9" stroke-width="1"/><line x1="402" y1="192" x2="744" y2="192" stroke="#e1e0d9" stroke-width="1"/><line x1="402" y1="144" x2="744" y2="144" stroke="#e1e0d9" stroke-width="1"/><line x1="402" y1="96" x2="744" y2="96" stroke="#e1e0d9" stroke-width="1"/><line x1="402" y1="288" x2="744" y2="288" stroke="#c3c2b7" stroke-width="1"/><path d="M 435 288 L 435 116.00000000000003 Q 435 112.00000000000003 439 112.00000000000003 L 491 112.00000000000003 Q 495 112.00000000000003 495 116.00000000000003 L 495 288 Z" fill="#c0562f" opacity="1"/><text x="465" y="106.00000000000003" font-family="system-ui, -apple-system, 'Segoe UI', sans-serif" font-size="11.5" fill="#0b0b0b" text-anchor="middle" font-weight="600" font-variant-numeric="tabular-nums">92%</text><text x="465" y="304" font-family="system-ui, -apple-system, 'Segoe UI', sans-serif" font-size="10" fill="#52514e" text-anchor="middle" font-weight="400">raw-mcp</text><path d="M 507 288 L 507 131.99999999999997 Q 507 127.99999999999997 511 127.99999999999997 L 563 127.99999999999997 Q 567 127.99999999999997 567 131.99999999999997 L 567 288 Z" fill="#898781" opacity="1"/><text x="537" y="121.99999999999997" font-family="system-ui, -apple-system, 'Segoe UI', sans-serif" font-size="11.5" fill="#0b0b0b" text-anchor="middle" font-weight="600" font-variant-numeric="tabular-nums">83%</text><text x="537" y="304" font-family="system-ui, -apple-system, 'Segoe UI', sans-serif" font-size="10" fill="#52514e" text-anchor="middle" font-weight="400">repl</text><path d="M 579 288 L 579 148 Q 579 144 583 144 L 635 144 Q 639 144 639 148 L 639 288 Z" fill="#d99a2b" opacity="1"/><text x="609" y="138" font-family="system-ui, -apple-system, 'Segoe UI', sans-serif" font-size="11.5" fill="#0b0b0b" text-anchor="middle" font-weight="600" font-variant-numeric="tabular-nums">75%</text><text x="609" y="304" font-family="system-ui, -apple-system, 'Segoe UI', sans-serif" font-size="10" fill="#52514e" text-anchor="middle" font-weight="400">workflow</text><path d="M 651 288 L 651 212 Q 651 208 655 208 L 707 208 Q 711 208 711 212 L 711 288 Z" fill="#12887a" opacity="1"/><text x="681" y="202" font-family="system-ui, -apple-system, 'Segoe UI', sans-serif" font-size="11.5" fill="#0b0b0b" text-anchor="middle" font-weight="600" font-variant-numeric="tabular-nums">42%</text><text x="681" y="304" font-family="system-ui, -apple-system, 'Segoe UI', sans-serif" font-size="10" fill="#52514e" text-anchor="middle" font-weight="400">gate</text><text x="573" y="330" font-family="system-ui, -apple-system, 'Segoe UI', sans-serif" font-size="13" fill="#0b0b0b" text-anchor="middle" font-weight="600">Task pass rate</text></svg>