<svg xmlns="http://www.w3.org/2000/svg" width="720" height="348" viewBox="0 0 720 348" role="img"><rect width="720" height="348" fill="#fcfcfb" rx="8"/><text x="16" y="28" font-family="system-ui, -apple-system, 'Segoe UI', sans-serif" font-size="14.5" fill="#0b0b0b" text-anchor="start" font-weight="600">Told they are the same, the model avoids workflow; told they differ, it routes to it</text><text x="16" y="46" font-family="system-ui, -apple-system, 'Segoe UI', sans-serif" font-size="12" fill="#52514e" text-anchor="start" font-weight="400">execute_js + execute_js_workflow mounted together · which surface each run used · 6 complex tasks × 4 models</text><rect x="16" y="62" width="12" height="12" rx="3" fill="#12887a"/><text x="34" y="73" font-family="system-ui, -apple-system, 'Segoe UI', sans-serif" font-size="12" fill="#52514e" text-anchor="start" font-weight="400">used execute_js_workflow</text><rect x="226" y="62" width="12" height="12" rx="3" fill="#898781"/><text x="244" y="73" font-family="system-ui, -apple-system, 'Segoe UI', sans-serif" font-size="12" fill="#52514e" text-anchor="start" font-weight="400">used execute_js</text><rect x="436" y="62" width="12" height="12" rx="3" fill="#2a78d6"/><text x="454" y="73" font-family="system-ui, -apple-system, 'Segoe UI', sans-serif" font-size="12" fill="#52514e" text-anchor="start" font-weight="400">used both</text><line x1="46" y1="292" x2="704" y2="292" stroke="#e1e0d9" stroke-width="1"/><text x="38" y="296" font-family="system-ui, -apple-system, 'Segoe UI', sans-serif" font-size="11" fill="#898781" text-anchor="end" font-weight="400" font-variant-numeric="tabular-nums">0%</text><line x1="46" y1="243" x2="704" y2="243" stroke="#e1e0d9" stroke-width="1"/><text x="38" y="247" font-family="system-ui, -apple-system, 'Segoe UI', sans-serif" font-size="11" fill="#898781" text-anchor="end" font-weight="400" font-variant-numeric="tabular-nums">25%</text><line x1="46" y1="194" x2="704" y2="194" stroke="#e1e0d9" stroke-width="1"/><text x="38" y="198" font-family="system-ui, -apple-system, 'Segoe UI', sans-serif" font-size="11" fill="#898781" text-anchor="end" font-weight="400" font-variant-numeric="tabular-nums">50%</text><line x1="46" y1="145" x2="704" y2="145" stroke="#e1e0d9" stroke-width="1"/><text x="38" y="149" font-family="system-ui, -apple-system, 'Segoe UI', sans-serif" font-size="11" fill="#898781" text-anchor="end" font-weight="400" font-variant-numeric="tabular-nums">75%</text><line x1="46" y1="96" x2="704" y2="96" stroke="#e1e0d9" stroke-width="1"/><text x="38" y="100" font-family="system-ui, -apple-system, 'Segoe UI', sans-serif" font-size="11" fill="#898781" text-anchor="end" font-weight="400" font-variant-numeric="tabular-nums">100%</text><path d="M 141.5 292 L 141.5 271.5 Q 141.5 267.5 145.5 267.5 L 177.5 267.5 Q 181.5 267.5 181.5 271.5 L 181.5 292 Z" fill="#12887a"/><text x="161.5" y="261.5" font-family="system-ui, -apple-system, 'Segoe UI', sans-serif" font-size="10.5" fill="#0b0b0b" text-anchor="middle" font-weight="600" font-variant-numeric="tabular-nums">13</text><path d="M 190.5 292 L 190.5 140.83333333333331 Q 190.5 136.83333333333331 194.5 136.83333333333331 L 226.5 136.83333333333331 Q 230.5 136.83333333333331 230.5 140.83333333333331 L 230.5 292 Z" fill="#898781"/><text x="210.5" y="130.83333333333331" font-family="system-ui, -apple-system, 'Segoe UI', sans-serif" font-size="10.5" fill="#0b0b0b" text-anchor="middle" font-weight="600" font-variant-numeric="tabular-nums">79</text><path d="M 239.5 292 L 239.5 287.8333333333333 Q 239.5 283.8333333333333 243.5 283.8333333333333 L 275.5 283.8333333333333 Q 279.5 283.8333333333333 279.5 287.8333333333333 L 279.5 292 Z" fill="#2a78d6"/><text x="259.5" y="277.8333333333333" font-family="system-ui, -apple-system, 'Segoe UI', sans-serif" font-size="10.5" fill="#0b0b0b" text-anchor="middle" font-weight="600" font-variant-numeric="tabular-nums">4</text><text x="210.5" y="314" font-family="system-ui, -apple-system, 'Segoe UI', sans-serif" font-size="12" fill="#0b0b0b" text-anchor="middle" font-weight="600">identical descriptions</text><text x="210.5" y="330" font-family="system-ui, -apple-system, 'Segoe UI', sans-serif" font-size="10.5" fill="#898781" text-anchor="middle" font-weight="400" font-variant-numeric="tabular-nums">n=48</text><path d="M 470.5 292 L 470.5 128.58333333333331 Q 470.5 124.58333333333331 474.5 124.58333333333331 L 506.5 124.58333333333331 Q 510.5 124.58333333333331 510.5 128.58333333333331 L 510.5 292 Z" fill="#12887a"/><text x="490.5" y="118.58333333333331" font-family="system-ui, -apple-system, 'Segoe UI', sans-serif" font-size="10.5" fill="#0b0b0b" text-anchor="middle" font-weight="600" font-variant-numeric="tabular-nums">85</text><path d="M 519.5 292 L 519.5 189.83333333333334 Q 519.5 185.83333333333334 523.5 185.83333333333334 L 555.5 185.83333333333334 Q 559.5 185.83333333333334 559.5 189.83333333333334 L 559.5 292 Z" fill="#898781"/><text x="539.5" y="179.83333333333334" font-family="system-ui, -apple-system, 'Segoe UI', sans-serif" font-size="10.5" fill="#0b0b0b" text-anchor="middle" font-weight="600" font-variant-numeric="tabular-nums">54</text><path d="M 568.5 292 L 568.5 198 Q 568.5 194 572.5 194 L 604.5 194 Q 608.5 194 608.5 198 L 608.5 292 Z" fill="#2a78d6"/><text x="588.5" y="188" font-family="system-ui, -apple-system, 'Segoe UI', sans-serif" font-size="10.5" fill="#0b0b0b" text-anchor="middle" font-weight="600" font-variant-numeric="tabular-nums">50</text><text x="539.5" y="314" font-family="system-ui, -apple-system, 'Segoe UI', sans-serif" font-size="12" fill="#0b0b0b" text-anchor="middle" font-weight="600">distinct roles (explore vs do)</text><text x="539.5" y="330" font-family="system-ui, -apple-system, 'Segoe UI', sans-serif" font-size="10.5" fill="#898781" text-anchor="middle" font-weight="400" font-variant-numeric="tabular-nums">n=48</text><line x1="46" y1="292" x2="704" y2="292" stroke="#c3c2b7" stroke-width="1"/></svg>