<svg xmlns="http://www.w3.org/2000/svg" width="760" height="360" viewBox="0 0 760 360" role="img"><rect width="760" height="360" fill="#fcfcfb" rx="8"/><text x="16" y="30" font-family="system-ui, -apple-system, 'Segoe UI', sans-serif" font-size="14.5" fill="#0b0b0b" text-anchor="start" font-weight="600">Shannon averages a catastrophic reveal away; min-entropy does not — pick the security ruler</text><text x="16" y="48" font-family="system-ui, -apple-system, 'Segoe UI', sans-serif" font-size="11.5" fill="#52514e" text-anchor="start" font-weight="400">A channel that with probability q leaks the whole secret (|S|=10 000). Shannon 'bits crossed' stays tiny; min-entropy leakage tracks the real one-guess risk.</text><rect x="16" y="64" width="12" height="12" rx="3" fill="#898781"/><text x="34" y="75" font-family="system-ui, -apple-system, 'Segoe UI', sans-serif" font-size="11.5" fill="#52514e" text-anchor="start" font-weight="400">Shannon I(S;O) — throughput headline</text><rect x="330" y="64" width="12" height="12" rx="3" fill="#c0562f"/><text x="348" y="75" font-family="system-ui, -apple-system, 'Segoe UI', sans-serif" font-size="11.5" fill="#52514e" text-anchor="start" font-weight="400">min-entropy leakage — one-guess risk</text><line x1="60" y1="300" x2="740" y2="300" stroke="#e1e0d9" stroke-width="1"/><text x="52" y="304" font-family="system-ui, -apple-system, 'Segoe UI', sans-serif" font-size="10.5" fill="#898781" text-anchor="end" font-weight="400" font-variant-numeric="tabular-nums">0</text><line x1="60" y1="249" x2="740" y2="249" stroke="#e1e0d9" stroke-width="1"/><text x="52" y="253" font-family="system-ui, -apple-system, 'Segoe UI', sans-serif" font-size="10.5" fill="#898781" text-anchor="end" font-weight="400" font-variant-numeric="tabular-nums">3</text><line x1="60" y1="198" x2="740" y2="198" stroke="#e1e0d9" stroke-width="1"/><text x="52" y="202" font-family="system-ui, -apple-system, 'Segoe UI', sans-serif" font-size="10.5" fill="#898781" text-anchor="end" font-weight="400" font-variant-numeric="tabular-nums">7</text><line x1="60" y1="146.99999999999997" x2="740" y2="146.99999999999997" stroke="#e1e0d9" stroke-width="1"/><text x="52" y="150.99999999999997" font-family="system-ui, -apple-system, 'Segoe UI', sans-serif" font-size="10.5" fill="#898781" text-anchor="end" font-weight="400" font-variant-numeric="tabular-nums">10</text><line x1="60" y1="96" x2="740" y2="96" stroke="#e1e0d9" stroke-width="1"/><text x="52" y="100" font-family="system-ui, -apple-system, 'Segoe UI', sans-serif" font-size="10.5" fill="#898781" text-anchor="end" font-weight="400" font-variant-numeric="tabular-nums">14</text><text x="400" y="340" font-family="system-ui, -apple-system, 'Segoe UI', sans-serif" font-size="12" fill="#52514e" text-anchor="middle" font-weight="400">q = P(channel reveals the secret)</text><path d="M 85 300 L 85 300 Q 85 298.03036284663136 86.96963715336864 298.03036284663136 L 123.03036284663136 298.03036284663136 Q 125 298.03036284663136 125 300 L 125 300 Z" fill="#898781" opacity="1"/><text x="105" y="292.03036284663136" font-family="system-ui, -apple-system, 'Segoe UI', sans-serif" font-size="10" fill="#0b0b0b" text-anchor="middle" font-weight="400" font-variant-numeric="tabular-nums">0.1</text><path d="M 131 300 L 131 205.30747131053454 Q 131 201.30747131053454 135 201.30747131053454 L 167 201.30747131053454 Q 171 201.30747131053454 171 205.30747131053454 L 171 300 Z" fill="#c0562f" opacity="1"/><text x="151" y="195.30747131053454" font-family="system-ui, -apple-system, 'Segoe UI', sans-serif" font-size="10" fill="#0b0b0b" text-anchor="middle" font-weight="400" font-variant-numeric="tabular-nums">6.7</text><text x="128" y="320" font-family="system-ui, -apple-system, 'Segoe UI', sans-serif" font-size="11" fill="#52514e" text-anchor="middle" font-weight="400" font-variant-numeric="tabular-nums">0.01</text><path d="M 221 300 L 221 294.1518142331569 Q 221 290.1518142331569 225 290.1518142331569 L 257 290.1518142331569 Q 261 290.1518142331569 261 294.1518142331569 L 261 300 Z" fill="#898781" opacity="1"/><text x="241" y="284.1518142331569" font-family="system-ui, -apple-system, 'Segoe UI', sans-serif" font-size="10" fill="#0b0b0b" text-anchor="middle" font-weight="400" font-variant-numeric="tabular-nums">0.7</text><path d="M 267 300 L 267 171.05961702103863 Q 267 167.05961702103863 271 167.05961702103863 L 303 167.05961702103863 Q 307 167.05961702103863 307 171.05961702103863 L 307 300 Z" fill="#c0562f" opacity="1"/><text x="287" y="161.05961702103863" font-family="system-ui, -apple-system, 'Segoe UI', sans-serif" font-size="10" fill="#0b0b0b" text-anchor="middle" font-weight="400" font-variant-numeric="tabular-nums">9.0</text><text x="264" y="320" font-family="system-ui, -apple-system, 'Segoe UI', sans-serif" font-size="11" fill="#52514e" text-anchor="middle" font-weight="400" font-variant-numeric="tabular-nums">0.05</text><path d="M 357 300 L 357 284.3036284663138 Q 357 280.3036284663138 361 280.3036284663138 L 393 280.3036284663138 Q 397 280.3036284663138 397 284.3036284663138 L 397 300 Z" fill="#898781" opacity="1"/><text x="377" y="274.3036284663138" font-family="system-ui, -apple-system, 'Segoe UI', sans-serif" font-size="10" fill="#0b0b0b" text-anchor="middle" font-weight="400" font-variant-numeric="tabular-nums">1.3</text><path d="M 403 300 L 403 156.2579755958024 Q 403 152.2579755958024 407 152.2579755958024 L 439 152.2579755958024 Q 443 152.2579755958024 443 156.2579755958024 L 443 300 Z" fill="#c0562f" opacity="1"/><text x="423" y="146.2579755958024" font-family="system-ui, -apple-system, 'Segoe UI', sans-serif" font-size="10" fill="#0b0b0b" text-anchor="middle" font-weight="400" font-variant-numeric="tabular-nums">10.0</text><text x="400" y="320" font-family="system-ui, -apple-system, 'Segoe UI', sans-serif" font-size="11" fill="#52514e" text-anchor="middle" font-weight="400" font-variant-numeric="tabular-nums">0.10</text><path d="M 493 300 L 493 254.75907116578452 Q 493 250.75907116578452 497 250.75907116578452 L 529 250.75907116578452 Q 533 250.75907116578452 533 254.75907116578452 L 533 300 Z" fill="#898781" opacity="1"/><text x="513" y="244.75907116578452" font-family="system-ui, -apple-system, 'Segoe UI', sans-serif" font-size="10" fill="#0b0b0b" text-anchor="middle" font-weight="400" font-variant-numeric="tabular-nums">3.3</text><path d="M 539 300 L 539 136.67586329307912 Q 539 132.67586329307912 543 132.67586329307912 L 575 132.67586329307912 Q 579 132.67586329307912 579 136.67586329307912 L 579 300 Z" fill="#c0562f" opacity="1"/><text x="559" y="126.67586329307912" font-family="system-ui, -apple-system, 'Segoe UI', sans-serif" font-size="10" fill="#0b0b0b" text-anchor="middle" font-weight="400" font-variant-numeric="tabular-nums">11.3</text><text x="536" y="320" font-family="system-ui, -apple-system, 'Segoe UI', sans-serif" font-size="11" fill="#52514e" text-anchor="middle" font-weight="400" font-variant-numeric="tabular-nums">0.25</text><path d="M 629 300 L 629 205.51814233156904 Q 629 201.51814233156904 633 201.51814233156904 L 665 201.51814233156904 Q 669 201.51814233156904 669 205.51814233156904 L 669 300 Z" fill="#898781" opacity="1"/><text x="649" y="195.51814233156904" font-family="system-ui, -apple-system, 'Segoe UI', sans-serif" font-size="10" fill="#0b0b0b" text-anchor="middle" font-weight="400" font-variant-numeric="tabular-nums">6.6</text><path d="M 675 300 L 675 121.85714285714286 Q 675 117.85714285714286 679 117.85714285714286 L 711 117.85714285714286 Q 715 117.85714285714286 715 121.85714285714286 L 715 300 Z" fill="#c0562f" opacity="1"/><text x="695" y="111.85714285714286" font-family="system-ui, -apple-system, 'Segoe UI', sans-serif" font-size="10" fill="#0b0b0b" text-anchor="middle" font-weight="400" font-variant-numeric="tabular-nums">12.3</text><text x="672" y="320" font-family="system-ui, -apple-system, 'Segoe UI', sans-serif" font-size="11" fill="#52514e" text-anchor="middle" font-weight="400" font-variant-numeric="tabular-nums">0.50</text></svg>