<svg xmlns="http://www.w3.org/2000/svg" width="760" height="368" viewBox="0 0 760 368" role="img">
<rect width="760" height="368" fill="#fcfcfb" rx="8"/>
<text x="16" y="28" font-family="system-ui, -apple-system, 'Segoe UI', sans-serif" font-size="15" fill="#0b0b0b" text-anchor="start" font-weight="600">Weak-model pass rate climbs from 74% to 100% as platform gaps close</text><text x="16" y="46" font-family="system-ui, -apple-system, 'Segoe UI', sans-serif" font-size="12" fill="#52514e" text-anchor="start" font-weight="400">Scratchpad arm · 5 budget models × 7 tasks per version (n = 35) · deterministic grading</text><line x1="56" y1="304" x2="736" y2="304" stroke="#e1e0d9" stroke-width="1"/><text x="48" y="308" font-family="system-ui, -apple-system, 'Segoe UI', sans-serif" font-size="11" fill="#898781" text-anchor="end" font-weight="400" font-variant-numeric="tabular-nums">0%</text><line x1="56" y1="249" x2="736" y2="249" stroke="#e1e0d9" stroke-width="1"/><text x="48" y="253" font-family="system-ui, -apple-system, 'Segoe UI', sans-serif" font-size="11" fill="#898781" text-anchor="end" font-weight="400" font-variant-numeric="tabular-nums">25%</text><line x1="56" y1="194" x2="736" y2="194" stroke="#e1e0d9" stroke-width="1"/><text x="48" y="198" font-family="system-ui, -apple-system, 'Segoe UI', sans-serif" font-size="11" fill="#898781" text-anchor="end" font-weight="400" font-variant-numeric="tabular-nums">50%</text><line x1="56" y1="139" x2="736" y2="139" stroke="#e1e0d9" stroke-width="1"/><text x="48" y="143" font-family="system-ui, -apple-system, 'Segoe UI', sans-serif" font-size="11" fill="#898781" text-anchor="end" font-weight="400" font-variant-numeric="tabular-nums">75%</text><line x1="56" y1="84" x2="736" y2="84" stroke="#e1e0d9" stroke-width="1"/><text x="48" y="88" font-family="system-ui, -apple-system, 'Segoe UI', sans-serif" font-size="11" fill="#898781" text-anchor="end" font-weight="400" font-variant-numeric="tabular-nums">100%</text><path d="M 112 304 L 112 144.57142857142856 Q 112 140.57142857142856 116 140.57142857142856 L 132 140.57142857142856 Q 136 140.57142857142856 136 144.57142857142856 L 136 304 Z" fill="#86b6ef"/><text x="124" y="132.57142857142856" font-family="system-ui, -apple-system, 'Segoe UI', sans-serif" font-size="12.5" fill="#0b0b0b" text-anchor="middle" font-weight="600" font-variant-numeric="tabular-nums">26/35</text><text x="124" y="324" font-family="system-ui, -apple-system, 'Segoe UI', sans-serif" font-size="12.5" fill="#0b0b0b" text-anchor="middle" font-weight="600">v1</text><text x="124" y="340" font-family="system-ui, -apple-system, 'Segoe UI', sans-serif" font-size="11" fill="#898781" text-anchor="middle" font-weight="400">initial</text><path d="M 248 304 L 248 150.85714285714286 Q 248 146.85714285714286 252 146.85714285714286 L 268 146.85714285714286 Q 272 146.85714285714286 272 150.85714285714286 L 272 304 Z" fill="#5598e7"/><text x="260" y="138.85714285714286" font-family="system-ui, -apple-system, 'Segoe UI', sans-serif" font-size="12.5" fill="#0b0b0b" text-anchor="middle" font-weight="600" font-variant-numeric="tabular-nums">25/35</text><text x="260" y="324" font-family="system-ui, -apple-system, 'Segoe UI', sans-serif" font-size="12.5" fill="#0b0b0b" text-anchor="middle" font-weight="600">v2</text><text x="260" y="340" font-family="system-ui, -apple-system, 'Segoe UI', sans-serif" font-size="11" fill="#898781" text-anchor="middle" font-weight="400">engine fix + preamble</text><path d="M 384 304 L 384 94.28571428571428 Q 384 90.28571428571428 388 90.28571428571428 L 404 90.28571428571428 Q 408 90.28571428571428 408 94.28571428571428 L 408 304 Z" fill="#2a78d6"/><text x="396" y="82.28571428571428" font-family="system-ui, -apple-system, 'Segoe UI', sans-serif" font-size="12.5" fill="#0b0b0b" text-anchor="middle" font-weight="600" font-variant-numeric="tabular-nums">34/35</text><text x="396" y="324" font-family="system-ui, -apple-system, 'Segoe UI', sans-serif" font-size="12.5" fill="#0b0b0b" text-anchor="middle" font-weight="600">v3</text><text x="396" y="340" font-family="system-ui, -apple-system, 'Segoe UI', sans-serif" font-size="11" fill="#898781" text-anchor="middle" font-weight="400">+ enum hints</text><path d="M 520 304 L 520 94.28571428571428 Q 520 90.28571428571428 524 90.28571428571428 L 540 90.28571428571428 Q 544 90.28571428571428 544 94.28571428571428 L 544 304 Z" fill="#1c5cab"/><text x="532" y="82.28571428571428" font-family="system-ui, -apple-system, 'Segoe UI', sans-serif" font-size="12.5" fill="#0b0b0b" text-anchor="middle" font-weight="600" font-variant-numeric="tabular-nums">34/35</text><text x="532" y="324" font-family="system-ui, -apple-system, 'Segoe UI', sans-serif" font-size="12.5" fill="#0b0b0b" text-anchor="middle" font-weight="600">v4</text><text x="532" y="340" font-family="system-ui, -apple-system, 'Segoe UI', sans-serif" font-size="11" fill="#898781" text-anchor="middle" font-weight="400">+ read-your-writes</text><path d="M 656 304 L 656 88 Q 656 84 660 84 L 676 84 Q 680 84 680 88 L 680 304 Z" fill="#104281"/><text x="668" y="76" font-family="system-ui, -apple-system, 'Segoe UI', sans-serif" font-size="12.5" fill="#0b0b0b" text-anchor="middle" font-weight="600" font-variant-numeric="tabular-nums">35/35</text><text x="668" y="324" font-family="system-ui, -apple-system, 'Segoe UI', sans-serif" font-size="12.5" fill="#0b0b0b" text-anchor="middle" font-weight="600">v5</text><text x="668" y="340" font-family="system-ui, -apple-system, 'Segoe UI', sans-serif" font-size="11" fill="#898781" text-anchor="middle" font-weight="400">+ parity batches</text><line x1="56" y1="304" x2="736" y2="304" stroke="#c3c2b7" stroke-width="1"/></svg>