<svg xmlns="http://www.w3.org/2000/svg" width="760" height="368" viewBox="0 0 760 368" role="img">
<rect width="760" height="368" fill="#fcfcfb" rx="8"/>
<text x="16" y="28" font-family="system-ui, -apple-system, 'Segoe UI', sans-serif" font-size="15" fill="#0b0b0b" text-anchor="start" font-weight="600">The Lisp arm repeats the SQL arc: 81% → 96% in four transcript-driven batches</text><text x="16" y="46" font-family="system-ui, -apple-system, 'Segoe UI', sans-serif" font-size="12" fill="#52514e" text-anchor="start" font-weight="400">11 models × 7 tasks per run (n = 77) · same grading · two residual misses are provider 429s</text><line x1="56" y1="304" x2="736" y2="304" stroke="#e1e0d9" stroke-width="1"/><text x="48" y="308" font-family="system-ui, -apple-system, 'Segoe UI', sans-serif" font-size="11" fill="#898781" text-anchor="end" font-weight="400" font-variant-numeric="tabular-nums">0%</text><line x1="56" y1="249" x2="736" y2="249" stroke="#e1e0d9" stroke-width="1"/><text x="48" y="253" font-family="system-ui, -apple-system, 'Segoe UI', sans-serif" font-size="11" fill="#898781" text-anchor="end" font-weight="400" font-variant-numeric="tabular-nums">25%</text><line x1="56" y1="194" x2="736" y2="194" stroke="#e1e0d9" stroke-width="1"/><text x="48" y="198" font-family="system-ui, -apple-system, 'Segoe UI', sans-serif" font-size="11" fill="#898781" text-anchor="end" font-weight="400" font-variant-numeric="tabular-nums">50%</text><line x1="56" y1="139" x2="736" y2="139" stroke="#e1e0d9" stroke-width="1"/><text x="48" y="143" font-family="system-ui, -apple-system, 'Segoe UI', sans-serif" font-size="11" fill="#898781" text-anchor="end" font-weight="400" font-variant-numeric="tabular-nums">75%</text><line x1="56" y1="84" x2="736" y2="84" stroke="#e1e0d9" stroke-width="1"/><text x="48" y="88" font-family="system-ui, -apple-system, 'Segoe UI', sans-serif" font-size="11" fill="#898781" text-anchor="end" font-weight="400" font-variant-numeric="tabular-nums">100%</text><path d="M 112 304 L 112 130.85714285714283 Q 112 126.85714285714283 116 126.85714285714283 L 132 126.85714285714283 Q 136 126.85714285714283 136 130.85714285714283 L 136 304 Z" fill="#86b6ef"/><text x="124" y="118.85714285714283" font-family="system-ui, -apple-system, 'Segoe UI', sans-serif" font-size="12.5" fill="#0b0b0b" text-anchor="middle" font-weight="600" font-variant-numeric="tabular-nums">62/77</text><text x="124" y="324" font-family="system-ui, -apple-system, 'Segoe UI', sans-serif" font-size="12.5" fill="#0b0b0b" text-anchor="middle" font-weight="600">run 1</text><text x="124" y="340" font-family="system-ui, -apple-system, 'Segoe UI', sans-serif" font-size="11" fill="#898781" text-anchor="middle" font-weight="400">as designed</text><path d="M 248 304 L 248 125.14285714285717 Q 248 121.14285714285717 252 121.14285714285717 L 268 121.14285714285717 Q 272 121.14285714285717 272 125.14285714285717 L 272 304 Z" fill="#5598e7"/><text x="260" y="113.14285714285717" font-family="system-ui, -apple-system, 'Segoe UI', sans-serif" font-size="12.5" fill="#0b0b0b" text-anchor="middle" font-weight="600" font-variant-numeric="tabular-nums">64/77</text><text x="260" y="324" font-family="system-ui, -apple-system, 'Segoe UI', sans-serif" font-size="12.5" fill="#0b0b0b" text-anchor="middle" font-weight="600">run 2</text><text x="260" y="340" font-family="system-ui, -apple-system, 'Segoe UI', sans-serif" font-size="11" fill="#898781" text-anchor="middle" font-weight="400">+ batch 1</text><path d="M 384 304 L 384 102.2857142857143 Q 384 98.2857142857143 388 98.2857142857143 L 404 98.2857142857143 Q 408 98.2857142857143 408 102.2857142857143 L 408 304 Z" fill="#2a78d6"/><text x="396" y="90.2857142857143" font-family="system-ui, -apple-system, 'Segoe UI', sans-serif" font-size="12.5" fill="#0b0b0b" text-anchor="middle" font-weight="600" font-variant-numeric="tabular-nums">72/77</text><text x="396" y="324" font-family="system-ui, -apple-system, 'Segoe UI', sans-serif" font-size="12.5" fill="#0b0b0b" text-anchor="middle" font-weight="600">run 3</text><text x="396" y="340" font-family="system-ui, -apple-system, 'Segoe UI', sans-serif" font-size="11" fill="#898781" text-anchor="middle" font-weight="400">+ batch 2</text><path d="M 520 304 L 520 99.42857142857144 Q 520 95.42857142857144 524 95.42857142857144 L 540 95.42857142857144 Q 544 95.42857142857144 544 99.42857142857144 L 544 304 Z" fill="#1c5cab"/><text x="532" y="87.42857142857144" font-family="system-ui, -apple-system, 'Segoe UI', sans-serif" font-size="12.5" fill="#0b0b0b" text-anchor="middle" font-weight="600" font-variant-numeric="tabular-nums">73/77</text><text x="532" y="324" font-family="system-ui, -apple-system, 'Segoe UI', sans-serif" font-size="12.5" fill="#0b0b0b" text-anchor="middle" font-weight="600">run 4</text><text x="532" y="340" font-family="system-ui, -apple-system, 'Segoe UI', sans-serif" font-size="11" fill="#898781" text-anchor="middle" font-weight="400">+ batch 3</text><path d="M 656 304 L 656 96.57142857142858 Q 656 92.57142857142858 660 92.57142857142858 L 676 92.57142857142858 Q 680 92.57142857142858 680 96.57142857142858 L 680 304 Z" fill="#104281"/><text x="668" y="84.57142857142858" font-family="system-ui, -apple-system, 'Segoe UI', sans-serif" font-size="12.5" fill="#0b0b0b" text-anchor="middle" font-weight="600" font-variant-numeric="tabular-nums">74/77</text><text x="668" y="324" font-family="system-ui, -apple-system, 'Segoe UI', sans-serif" font-size="12.5" fill="#0b0b0b" text-anchor="middle" font-weight="600">run 5</text><text x="668" y="340" font-family="system-ui, -apple-system, 'Segoe UI', sans-serif" font-size="11" fill="#898781" text-anchor="middle" font-weight="400">+ batch 4</text><line x1="56" y1="304" x2="736" y2="304" stroke="#c3c2b7" stroke-width="1"/></svg>