<svg xmlns="http://www.w3.org/2000/svg" width="900" height="336" viewBox="0 0 900 336" role="img">
<rect width="900" height="336" fill="#fcfcfb" rx="8"/>
<text x="16" y="28" font-family="system-ui, -apple-system, 'Segoe UI', sans-serif" font-size="15" fill="#0b0b0b" text-anchor="start" font-weight="600">Progressive discovery cuts function mode's peak context toward SQL's — accuracy intact</text><text x="16" y="46" font-family="system-ui, -apple-system, 'Segoe UI', sans-serif" font-size="12" fill="#52514e" text-anchor="start" font-weight="400">40 servers · 367 tools · 3 hard scenarios × 4 models · primed catalog (full) vs discover servers→functions→schemas (progressive)</text><rect x="16" y="58" width="12" height="12" rx="3" fill="#898781"/><text x="34" y="68" font-family="system-ui, -apple-system, 'Segoe UI', sans-serif" font-size="12" fill="#52514e" text-anchor="start" font-weight="400">full (every signature primed)</text><rect x="250" y="58" width="12" height="12" rx="3" fill="#2a78d6"/><text x="268" y="68" font-family="system-ui, -apple-system, 'Segoe UI', sans-serif" font-size="12" fill="#52514e" text-anchor="start" font-weight="400">progressive (nothing primed)</text><line x1="150" y1="90" x2="150" y2="282" stroke="#e1e0d9" stroke-width="1"/><text x="150" y="298" font-family="system-ui, -apple-system, 'Segoe UI', sans-serif" font-size="10.5" fill="#898781" text-anchor="middle" font-weight="400" font-variant-numeric="tabular-nums">0</text><line x1="265.38461538461536" y1="90" x2="265.38461538461536" y2="282" stroke="#e1e0d9" stroke-width="1"/><text x="265.38461538461536" y="298" font-family="system-ui, -apple-system, 'Segoe UI', sans-serif" font-size="10.5" fill="#898781" text-anchor="middle" font-weight="400" font-variant-numeric="tabular-nums">5k</text><line x1="380.7692307692308" y1="90" x2="380.7692307692308" y2="282" stroke="#e1e0d9" stroke-width="1"/><text x="380.7692307692308" y="298" font-family="system-ui, -apple-system, 'Segoe UI', sans-serif" font-size="10.5" fill="#898781" text-anchor="middle" font-weight="400" font-variant-numeric="tabular-nums">10k</text><line x1="496.15384615384613" y1="90" x2="496.15384615384613" y2="282" stroke="#e1e0d9" stroke-width="1"/><text x="496.15384615384613" y="298" font-family="system-ui, -apple-system, 'Segoe UI', sans-serif" font-size="10.5" fill="#898781" text-anchor="middle" font-weight="400" font-variant-numeric="tabular-nums">15k</text><line x1="611.5384615384615" y1="90" x2="611.5384615384615" y2="282" stroke="#e1e0d9" stroke-width="1"/><text x="611.5384615384615" y="298" font-family="system-ui, -apple-system, 'Segoe UI', sans-serif" font-size="10.5" fill="#898781" text-anchor="middle" font-weight="400" font-variant-numeric="tabular-nums">20k</text><line x1="726.9230769230769" y1="90" x2="726.9230769230769" y2="282" stroke="#e1e0d9" stroke-width="1"/><text x="726.9230769230769" y="298" font-family="system-ui, -apple-system, 'Segoe UI', sans-serif" font-size="10.5" fill="#898781" text-anchor="middle" font-weight="400" font-variant-numeric="tabular-nums">25k</text><line x1="253.8230769230769" y1="90" x2="253.8230769230769" y2="282" stroke="#0ca30c" stroke-width="1.5" stroke-dasharray="4 3"/><text x="253.8230769230769" y="84" font-family="system-ui, -apple-system, 'Segoe UI', sans-serif" font-size="10.5" fill="#006300" text-anchor="middle" font-weight="600" font-variant-numeric="tabular-nums">SQL 4.5k</text><text x="138" y="116" font-family="system-ui, -apple-system, 'Segoe UI', sans-serif" font-size="12.5" fill="#0b0b0b" text-anchor="end" font-weight="600">pyrepl</text><text x="138" y="132" font-family="system-ui, -apple-system, 'Segoe UI', sans-serif" font-size="10" fill="#898781" text-anchor="end" font-weight="400">median peak</text><path d="M 150 102 L 628.7692307692307 102 Q 632.7692307692307 102 632.7692307692307 106 L 632.7692307692307 116 Q 632.7692307692307 120 628.7692307692307 120 L 150 120 Z" fill="#898781"/><text x="640.7692307692307" y="115" font-family="system-ui, -apple-system, 'Segoe UI', sans-serif" font-size="10.5" fill="#52514e" text-anchor="start" font-weight="400" font-variant-numeric="tabular-nums">20.9k · pass 10/12</text><path d="M 150 124 L 280.37692307692305 124 Q 284.37692307692305 124 284.37692307692305 128 L 284.37692307692305 138 Q 284.37692307692305 142 280.37692307692305 142 L 150 142 Z" fill="#2a78d6"/><text x="292.37692307692305" y="137" font-family="system-ui, -apple-system, 'Segoe UI', sans-serif" font-size="10.5" fill="#006300" text-anchor="start" font-weight="600" font-variant-numeric="tabular-nums">5.8k · pass 8/12  (3.6× smaller)</text><text x="138" y="178" font-family="system-ui, -apple-system, 'Segoe UI', sans-serif" font-size="12.5" fill="#0b0b0b" text-anchor="end" font-weight="600">jsrepl</text><text x="138" y="194" font-family="system-ui, -apple-system, 'Segoe UI', sans-serif" font-size="10" fill="#898781" text-anchor="end" font-weight="400">median peak</text><path d="M 150 164 L 628.6076923076923 164 Q 632.6076923076923 164 632.6076923076923 168 L 632.6076923076923 178 Q 632.6076923076923 182 628.6076923076923 182 L 150 182 Z" fill="#898781"/><text x="640.6076923076923" y="177" font-family="system-ui, -apple-system, 'Segoe UI', sans-serif" font-size="10.5" fill="#52514e" text-anchor="start" font-weight="400" font-variant-numeric="tabular-nums">20.9k · pass 8/11</text><path d="M 150 186 L 306.3153846153846 186 Q 310.3153846153846 186 310.3153846153846 190 L 310.3153846153846 200 Q 310.3153846153846 204 306.3153846153846 204 L 150 204 Z" fill="#1baf7a"/><text x="318.3153846153846" y="199" font-family="system-ui, -apple-system, 'Segoe UI', sans-serif" font-size="10.5" fill="#006300" text-anchor="start" font-weight="600" font-variant-numeric="tabular-nums">6.9k · pass 9/12  (3.0× smaller)</text><text x="138" y="240" font-family="system-ui, -apple-system, 'Segoe UI', sans-serif" font-size="12.5" fill="#0b0b0b" text-anchor="end" font-weight="600">lispfns</text><text x="138" y="256" font-family="system-ui, -apple-system, 'Segoe UI', sans-serif" font-size="10" fill="#898781" text-anchor="end" font-weight="400">median peak</text><path d="M 150 226 L 700.2384615384616 226 Q 704.2384615384616 226 704.2384615384616 230 L 704.2384615384616 240 Q 704.2384615384616 244 700.2384615384616 244 L 150 244 Z" fill="#898781"/><text x="712.2384615384616" y="239" font-family="system-ui, -apple-system, 'Segoe UI', sans-serif" font-size="10.5" fill="#52514e" text-anchor="start" font-weight="400" font-variant-numeric="tabular-nums">24.0k · pass 8/12</text><path d="M 150 248 L 269.2769230769231 248 Q 273.2769230769231 248 273.2769230769231 252 L 273.2769230769231 262 Q 273.2769230769231 266 269.2769230769231 266 L 150 266 Z" fill="#b07820"/><text x="281.2769230769231" y="261" font-family="system-ui, -apple-system, 'Segoe UI', sans-serif" font-size="10.5" fill="#006300" text-anchor="start" font-weight="600" font-variant-numeric="tabular-nums">5.3k · pass 8/11  (4.5× smaller)</text><line x1="150" y1="282" x2="750" y2="282" stroke="#c3c2b7" stroke-width="1"/><text x="16" y="328" font-family="system-ui, -apple-system, 'Segoe UI', sans-serif" font-size="10.5" fill="#898781" text-anchor="start" font-weight="400">Baseline (367 tools folded) sits at 47k — off this scale. Progressive discovery pays a few discovery round-trips to reach SQL-class context without the primed catalog.</text></svg>