<svg xmlns="http://www.w3.org/2000/svg" width="820" height="236" viewBox="0 0 820 236" role="img">
<rect width="820" height="236" fill="#fcfcfb" rx="8"/>
<text x="16" y="28" font-family="system-ui, -apple-system, 'Segoe UI', sans-serif" font-size="15" fill="#0b0b0b" text-anchor="start" font-weight="600">Head-to-head, same servers and tasks: the surfaces mostly tie</text><text x="16" y="46" font-family="system-ui, -apple-system, 'Segoe UI', sans-serif" font-size="12" fill="#52514e" text-anchor="start" font-weight="400">Per-cell wins across 60 shared cells · a gray middle = both arms passed (or both failed) — the parity is the point</text><text x="138" y="102" font-family="system-ui, -apple-system, 'Segoe UI', sans-serif" font-size="12" fill="#0b0b0b" text-anchor="end" font-weight="600">pyrepl vs jsrepl</text><path d="M 150 88 L 167.53333333333333 88 Q 171.53333333333333 88 171.53333333333333 92 L 171.53333333333333 104 Q 171.53333333333333 108 167.53333333333333 108 L 150 108 Z" fill="#2a78d6"/><rect x="173.53333333333333" y="88" width="566.6333333333333" height="20" fill="#e1e0d9"/><path d="M 744.1666666666666 88 L 792 88 Q 796 88 796 92 L 796 104 Q 796 108 792 108 L 744.1666666666666 108 Z" fill="#1baf7a"/><text x="456.85" y="102" font-family="system-ui, -apple-system, 'Segoe UI', sans-serif" font-size="11" fill="#52514e" text-anchor="middle" font-weight="400" font-variant-numeric="tabular-nums">53 ties</text><text x="179.53333333333333" y="102" font-family="system-ui, -apple-system, 'Segoe UI', sans-serif" font-size="10.5" fill="#0b0b0b" text-anchor="start" font-weight="600" font-variant-numeric="tabular-nums">2 pyrepl</text><text x="734.1666666666666" y="102" font-family="system-ui, -apple-system, 'Segoe UI', sans-serif" font-size="10.5" fill="#0b0b0b" text-anchor="end" font-weight="600" font-variant-numeric="tabular-nums">jsrepl 5</text><text x="138" y="142" font-family="system-ui, -apple-system, 'Segoe UI', sans-serif" font-size="12" fill="#0b0b0b" text-anchor="end" font-weight="600">pyrepl vs lispfns</text><path d="M 150 128 L 167.53333333333333 128 Q 171.53333333333333 128 171.53333333333333 132 L 171.53333333333333 144 Q 171.53333333333333 148 167.53333333333333 148 L 150 148 Z" fill="#2a78d6"/><rect x="173.53333333333333" y="128" width="566.6333333333333" height="20" fill="#e1e0d9"/><path d="M 744.1666666666666 128 L 792 128 Q 796 128 796 132 L 796 144 Q 796 148 792 148 L 744.1666666666666 148 Z" fill="#b07820"/><text x="456.85" y="142" font-family="system-ui, -apple-system, 'Segoe UI', sans-serif" font-size="11" fill="#52514e" text-anchor="middle" font-weight="400" font-variant-numeric="tabular-nums">53 ties</text><text x="179.53333333333333" y="142" font-family="system-ui, -apple-system, 'Segoe UI', sans-serif" font-size="10.5" fill="#0b0b0b" text-anchor="start" font-weight="600" font-variant-numeric="tabular-nums">2 pyrepl</text><text x="734.1666666666666" y="142" font-family="system-ui, -apple-system, 'Segoe UI', sans-serif" font-size="10.5" fill="#0b0b0b" text-anchor="end" font-weight="600" font-variant-numeric="tabular-nums">lispfns 5</text><text x="138" y="182" font-family="system-ui, -apple-system, 'Segoe UI', sans-serif" font-size="12" fill="#0b0b0b" text-anchor="end" font-weight="600">jsrepl vs lispfns</text><path d="M 150 168 L 178.3 168 Q 182.3 168 182.3 172 L 182.3 184 Q 182.3 188 178.3 188 L 150 188 Z" fill="#1baf7a"/><rect x="184.3" y="168" width="577.4" height="20" fill="#e1e0d9"/><path d="M 765.7 168 L 792 168 Q 796 168 796 172 L 796 184 Q 796 188 792 188 L 765.7 188 Z" fill="#b07820"/><text x="473" y="182" font-family="system-ui, -apple-system, 'Segoe UI', sans-serif" font-size="11" fill="#52514e" text-anchor="middle" font-weight="400" font-variant-numeric="tabular-nums">54 ties</text><text x="190.3" y="182" font-family="system-ui, -apple-system, 'Segoe UI', sans-serif" font-size="10.5" fill="#0b0b0b" text-anchor="start" font-weight="600" font-variant-numeric="tabular-nums">3 jsrepl</text><text x="755.7" y="182" font-family="system-ui, -apple-system, 'Segoe UI', sans-serif" font-size="10.5" fill="#0b0b0b" text-anchor="end" font-weight="600" font-variant-numeric="tabular-nums">lispfns 3</text></svg>