<svg xmlns="http://www.w3.org/2000/svg" width="780" height="340" viewBox="0 0 780 340" role="img"><rect width="780" height="340" fill="#fcfcfb" rx="8"/><text x="16" y="30" font-family="system-ui, -apple-system, 'Segoe UI', sans-serif" font-size="14.5" fill="#0b0b0b" text-anchor="start" font-weight="600">Where the delegated dollar goes — orchestration is cheap, classification is cheaper</text><text x="16" y="48" font-family="system-ui, -apple-system, 'Segoe UI', sans-serif" font-size="11.5" fill="#52514e" text-anchor="start" font-weight="400">Delegated cost split into planner (orchestration) and delegate (per-ticket classification); the faint bar is the solo cost for the same planner</text><rect x="16" y="64" width="12" height="12" rx="3" fill="#2a78d6"/><text x="34" y="75" font-family="system-ui, -apple-system, 'Segoe UI', sans-serif" font-size="11.5" fill="#52514e" text-anchor="start" font-weight="400">planner $</text><rect x="166" y="64" width="12" height="12" rx="3" fill="#d99a2b"/><text x="184" y="75" font-family="system-ui, -apple-system, 'Segoe UI', sans-serif" font-size="11.5" fill="#52514e" text-anchor="start" font-weight="400">delegate $</text><rect x="316" y="64" width="12" height="12" rx="3" fill="#c3c2b7"/><text x="334" y="75" font-family="system-ui, -apple-system, 'Segoe UI', sans-serif" font-size="11.5" fill="#52514e" text-anchor="start" font-weight="400">solo $ (reference)</text><line x1="50" y1="280" x2="764" y2="280" stroke="#e1e0d9" stroke-width="1"/><text x="42" y="284" font-family="system-ui, -apple-system, 'Segoe UI', sans-serif" font-size="9.5" fill="#898781" text-anchor="end" font-weight="400" font-variant-numeric="tabular-nums">$0.000</text><line x1="50" y1="232" x2="764" y2="232" stroke="#e1e0d9" stroke-width="1"/><text x="42" y="236" font-family="system-ui, -apple-system, 'Segoe UI', sans-serif" font-size="9.5" fill="#898781" text-anchor="end" font-weight="400" font-variant-numeric="tabular-nums">$0.011</text><line x1="50" y1="184" x2="764" y2="184" stroke="#e1e0d9" stroke-width="1"/><text x="42" y="188" font-family="system-ui, -apple-system, 'Segoe UI', sans-serif" font-size="9.5" fill="#898781" text-anchor="end" font-weight="400" font-variant-numeric="tabular-nums">$0.023</text><line x1="50" y1="136" x2="764" y2="136" stroke="#e1e0d9" stroke-width="1"/><text x="42" y="140" font-family="system-ui, -apple-system, 'Segoe UI', sans-serif" font-size="9.5" fill="#898781" text-anchor="end" font-weight="400" font-variant-numeric="tabular-nums">$0.034</text><line x1="50" y1="88" x2="764" y2="88" stroke="#e1e0d9" stroke-width="1"/><text x="42" y="92" font-family="system-ui, -apple-system, 'Segoe UI', sans-serif" font-size="9.5" fill="#898781" text-anchor="end" font-weight="400" font-variant-numeric="tabular-nums">$0.045</text><rect x="103.25" y="239.15542015157996" width="72" height="40.84457984842004" fill="#c3c2b7" opacity="0.3" rx="3"/><path d="M 109.25 280 L 109.25 280 Q 109.25 278.9660697822121 110.28393021778788 278.9660697822121 L 168.21606978221212 278.9660697822121 Q 169.25 278.9660697822121 169.25 280 L 169.25 280 Z" fill="#d99a2b"/><path d="M 109.25 278.9660697822121 L 109.25 251.28414652605534 Q 109.25 247.28414652605534 113.25 247.28414652605534 L 165.25 247.28414652605534 Q 169.25 247.28414652605534 169.25 251.28414652605534 L 169.25 278.9660697822121 Z" fill="#2a78d6"/><text x="139.25" y="241.28414652605534" font-family="system-ui, -apple-system, 'Segoe UI', sans-serif" font-size="10" fill="#0b0b0b" text-anchor="middle" font-weight="600" font-variant-numeric="tabular-nums">$0.008</text><text x="139.25" y="298" font-family="system-ui, -apple-system, 'Segoe UI', sans-serif" font-size="11" fill="#52514e" text-anchor="middle" font-weight="400">deepseek</text><rect x="281.75" y="113.04347826086956" width="72" height="166.95652173913044" fill="#c3c2b7" opacity="0.3" rx="3"/><path d="M 287.75 280 L 287.75 280 Q 287.75 278.9711463626595 288.7788536373405 278.9711463626595 L 346.7211463626595 278.9711463626595 Q 347.75 278.9711463626595 347.75 280 L 347.75 280 Z" fill="#d99a2b"/><path d="M 287.75 278.9711463626595 L 287.75 251.48006868745549 Q 287.75 247.48006868745549 291.75 247.48006868745549 L 343.75 247.48006868745549 Q 347.75 247.48006868745549 347.75 251.48006868745549 L 347.75 278.9711463626595 Z" fill="#2a78d6"/><text x="317.75" y="241.48006868745549" font-family="system-ui, -apple-system, 'Segoe UI', sans-serif" font-size="10" fill="#0b0b0b" text-anchor="middle" font-weight="600" font-variant-numeric="tabular-nums">$0.008</text><text x="317.75" y="298" font-family="system-ui, -apple-system, 'Segoe UI', sans-serif" font-size="11" fill="#52514e" text-anchor="middle" font-weight="400">glm5</text><rect x="460.25" y="263.66483326536684" width="72" height="16.335166734633162" fill="#c3c2b7" opacity="0.3" rx="3"/><path d="M 466.25 280 L 466.25 280 Q 466.25 278.96987721754766 467.28012278245234 278.96987721754766 L 525.2198772175477 278.96987721754766 Q 526.25 278.96987721754766 526.25 280 L 526.25 280 Z" fill="#d99a2b"/><path d="M 466.25 278.96987721754766 L 466.25 276.5797315793783 Q 466.25 272.5797315793783 470.25 272.5797315793783 L 522.25 272.5797315793783 Q 526.25 272.5797315793783 526.25 276.5797315793783 L 526.25 278.96987721754766 Z" fill="#2a78d6"/><text x="496.25" y="266.5797315793783" font-family="system-ui, -apple-system, 'Segoe UI', sans-serif" font-size="10" fill="#0b0b0b" text-anchor="middle" font-weight="600" font-variant-numeric="tabular-nums">$0.002</text><text x="496.25" y="298" font-family="system-ui, -apple-system, 'Segoe UI', sans-serif" font-size="11" fill="#52514e" text-anchor="middle" font-weight="400">minimax</text><rect x="638.75" y="189.99011342567997" width="72" height="90.00988657432003" fill="#c3c2b7" opacity="0.3" rx="3"/><path d="M 644.75 280 L 644.75 280 Q 644.75 278.96733892732396 645.7826610726761 278.96733892732396 L 703.7173389273239 278.96733892732396 Q 704.75 278.96733892732396 704.75 280 L 704.75 280 Z" fill="#d99a2b"/><path d="M 644.75 278.96733892732396 L 644.75 270.0685941072125 Q 644.75 266.0685941072125 648.75 266.0685941072125 L 700.75 266.0685941072125 Q 704.75 266.0685941072125 704.75 270.0685941072125 L 704.75 278.96733892732396 Z" fill="#2a78d6"/><text x="674.75" y="260.0685941072125" font-family="system-ui, -apple-system, 'Segoe UI', sans-serif" font-size="10" fill="#0b0b0b" text-anchor="middle" font-weight="600" font-variant-numeric="tabular-nums">$0.003</text><text x="674.75" y="298" font-family="system-ui, -apple-system, 'Segoe UI', sans-serif" font-size="11" fill="#52514e" text-anchor="middle" font-weight="400">kimi27</text></svg>