<svg xmlns="http://www.w3.org/2000/svg" width="780" height="400" viewBox="0 0 780 400" role="img"><rect width="780" height="400" fill="#fcfcfb" rx="8"/><text x="16" y="30" font-family="system-ui, -apple-system, 'Segoe UI', sans-serif" font-size="14.5" fill="#0b0b0b" text-anchor="start" font-weight="600">Delegating triage to a cheap model matches quality and cuts cost</text><text x="16" y="48" font-family="system-ui, -apple-system, 'Segoe UI', sans-serif" font-size="11.5" fill="#52514e" text-anchor="start" font-weight="400">Per SOTA open-source planner: escalation F1 and total run cost, solo vs delegating each ticket to Qwen3-30B</text><rect x="16" y="66" width="12" height="12" rx="3" fill="#c0562f"/><text x="34" y="77" font-family="system-ui, -apple-system, 'Segoe UI', sans-serif" font-size="11.5" fill="#52514e" text-anchor="start" font-weight="400">solo · planner does it all</text><rect x="256" y="66" width="12" height="12" rx="3" fill="#12887a"/><text x="274" y="77" font-family="system-ui, -apple-system, 'Segoe UI', sans-serif" font-size="11.5" fill="#52514e" text-anchor="start" font-weight="400">delegated · Qwen3-30B classifier</text><line x1="16" y1="252" x2="367" y2="252" stroke="#e1e0d9" stroke-width="1"/><line x1="16" y1="200" x2="367" y2="200" stroke="#e1e0d9" stroke-width="1"/><line x1="16" y1="148" x2="367" y2="148" stroke="#e1e0d9" stroke-width="1"/><line x1="16" y1="96" x2="367" y2="96" stroke="#e1e0d9" stroke-width="1"/><line x1="16" y1="304" x2="367" y2="304" stroke="#c3c2b7"/><path d="M 29.875 304 L 29.875 118.9090909090909 Q 29.875 114.9090909090909 33.875 114.9090909090909 L 53.875 114.9090909090909 Q 57.875 114.9090909090909 57.875 118.9090909090909 L 57.875 304 Z" fill="#c0562f"/><path d="M 61.875 304 L 61.875 129.71428571428572 Q 61.875 125.71428571428572 65.875 125.71428571428572 L 85.875 125.71428571428572 Q 89.875 125.71428571428572 89.875 129.71428571428572 L 89.875 304 Z" fill="#12887a"/><text x="43.875" y="109.9090909090909" font-family="system-ui, -apple-system, 'Segoe UI', sans-serif" font-size="8.5" fill="#0b0b0b" text-anchor="middle" font-weight="400" font-variant-numeric="tabular-nums">91%</text><text x="75.875" y="120.71428571428572" font-family="system-ui, -apple-system, 'Segoe UI', sans-serif" font-size="8.5" fill="#0b0b0b" text-anchor="middle" font-weight="400" font-variant-numeric="tabular-nums">86%</text><text x="59.875" y="320" font-family="system-ui, -apple-system, 'Segoe UI', sans-serif" font-size="10" fill="#52514e" text-anchor="middle" font-weight="400">deepseek</text><path d="M 117.625 304 L 117.625 100 Q 117.625 96 121.625 96 L 141.625 96 Q 145.625 96 145.625 100 L 145.625 304 Z" fill="#c0562f"/><path d="M 149.625 304 L 149.625 129.71428571428572 Q 149.625 125.71428571428572 153.625 125.71428571428572 L 173.625 125.71428571428572 Q 177.625 125.71428571428572 177.625 129.71428571428572 L 177.625 304 Z" fill="#12887a"/><text x="131.625" y="91" font-family="system-ui, -apple-system, 'Segoe UI', sans-serif" font-size="8.5" fill="#0b0b0b" text-anchor="middle" font-weight="400" font-variant-numeric="tabular-nums">100%</text><text x="163.625" y="120.71428571428572" font-family="system-ui, -apple-system, 'Segoe UI', sans-serif" font-size="8.5" fill="#0b0b0b" text-anchor="middle" font-weight="400" font-variant-numeric="tabular-nums">86%</text><text x="147.625" y="320" font-family="system-ui, -apple-system, 'Segoe UI', sans-serif" font-size="10" fill="#52514e" text-anchor="middle" font-weight="400">glm5</text><path d="M 205.375 304 L 205.375 118.9090909090909 Q 205.375 114.9090909090909 209.375 114.9090909090909 L 229.375 114.9090909090909 Q 233.375 114.9090909090909 233.375 118.9090909090909 L 233.375 304 Z" fill="#c0562f"/><path d="M 237.375 304 L 237.375 116 Q 237.375 112 241.375 112 L 261.375 112 Q 265.375 112 265.375 116 L 265.375 304 Z" fill="#12887a"/><text x="219.375" y="109.9090909090909" font-family="system-ui, -apple-system, 'Segoe UI', sans-serif" font-size="8.5" fill="#0b0b0b" text-anchor="middle" font-weight="400" font-variant-numeric="tabular-nums">91%</text><text x="251.375" y="107" font-family="system-ui, -apple-system, 'Segoe UI', sans-serif" font-size="8.5" fill="#0b0b0b" text-anchor="middle" font-weight="400" font-variant-numeric="tabular-nums">92%</text><text x="235.375" y="320" font-family="system-ui, -apple-system, 'Segoe UI', sans-serif" font-size="10" fill="#52514e" text-anchor="middle" font-weight="400">minimax</text><path d="M 293.125 304 L 293.125 118.9090909090909 Q 293.125 114.9090909090909 297.125 114.9090909090909 L 317.125 114.9090909090909 Q 321.125 114.9090909090909 321.125 118.9090909090909 L 321.125 304 Z" fill="#c0562f"/><path d="M 325.125 304 L 325.125 116 Q 325.125 112 329.125 112 L 349.125 112 Q 353.125 112 353.125 116 L 353.125 304 Z" fill="#12887a"/><text x="307.125" y="109.9090909090909" font-family="system-ui, -apple-system, 'Segoe UI', sans-serif" font-size="8.5" fill="#0b0b0b" text-anchor="middle" font-weight="400" font-variant-numeric="tabular-nums">91%</text><text x="339.125" y="107" font-family="system-ui, -apple-system, 'Segoe UI', sans-serif" font-size="8.5" fill="#0b0b0b" text-anchor="middle" font-weight="400" font-variant-numeric="tabular-nums">92%</text><text x="323.125" y="320" font-family="system-ui, -apple-system, 'Segoe UI', sans-serif" font-size="10" fill="#52514e" text-anchor="middle" font-weight="400">kimi27</text><text x="191.5" y="344" font-family="system-ui, -apple-system, 'Segoe UI', sans-serif" font-size="12.5" fill="#0b0b0b" text-anchor="middle" font-weight="600">Escalation F1 (quality)</text><line x1="413" y1="252" x2="764" y2="252" stroke="#e1e0d9" stroke-width="1"/><line x1="413" y1="200" x2="764" y2="200" stroke="#e1e0d9" stroke-width="1"/><line x1="413" y1="148" x2="764" y2="148" stroke="#e1e0d9" stroke-width="1"/><line x1="413" y1="96" x2="764" y2="96" stroke="#e1e0d9" stroke-width="1"/><line x1="413" y1="304" x2="764" y2="304" stroke="#c3c2b7"/><path d="M 426.875 304 L 426.875 265.5953841157028 Q 426.875 261.5953841157028 430.875 261.5953841157028 L 450.875 261.5953841157028 Q 454.875 261.5953841157028 454.875 265.5953841157028 L 454.875 304 Z" fill="#c0562f"/><path d="M 458.875 304 L 458.875 274.0345826780922 Q 458.875 270.0345826780922 462.875 270.0345826780922 L 482.875 270.0345826780922 Q 486.875 270.0345826780922 486.875 274.0345826780922 L 486.875 304 Z" fill="#12887a"/><text x="440.875" y="256.5953841157028" font-family="system-ui, -apple-system, 'Segoe UI', sans-serif" font-size="8.5" fill="#0b0b0b" text-anchor="middle" font-weight="400" font-variant-numeric="tabular-nums">$0.010</text><text x="472.875" y="265.0345826780922" font-family="system-ui, -apple-system, 'Segoe UI', sans-serif" font-size="8.5" fill="#0b0b0b" text-anchor="middle" font-weight="400" font-variant-numeric="tabular-nums">$0.008</text><text x="456.875" y="320" font-family="system-ui, -apple-system, 'Segoe UI', sans-serif" font-size="10" fill="#52514e" text-anchor="middle" font-weight="400">deepseek</text><path d="M 514.625 304 L 514.625 134.66666666666666 Q 514.625 130.66666666666666 518.625 130.66666666666666 L 538.625 130.66666666666666 Q 542.625 130.66666666666666 542.625 134.66666666666666 L 542.625 304 Z" fill="#c0562f"/><path d="M 546.625 304 L 546.625 274.23798797760134 Q 546.625 270.23798797760134 550.625 270.23798797760134 L 570.625 270.23798797760134 Q 574.625 270.23798797760134 574.625 274.23798797760134 L 574.625 304 Z" fill="#12887a"/><text x="528.625" y="125.66666666666666" font-family="system-ui, -apple-system, 'Segoe UI', sans-serif" font-size="8.5" fill="#0b0b0b" text-anchor="middle" font-weight="400" font-variant-numeric="tabular-nums">$0.039</text><text x="560.625" y="265.23798797760134" font-family="system-ui, -apple-system, 'Segoe UI', sans-serif" font-size="8.5" fill="#0b0b0b" text-anchor="middle" font-weight="400" font-variant-numeric="tabular-nums">$0.008</text><text x="544.625" y="320" font-family="system-ui, -apple-system, 'Segoe UI', sans-serif" font-size="10" fill="#52514e" text-anchor="middle" font-weight="400">glm5</text><path d="M 602.375 304 L 602.375 291.0409206470302 Q 602.375 287.0409206470302 606.375 287.0409206470302 L 626.375 287.0409206470302 Q 630.375 287.0409206470302 630.375 291.0409206470302 L 630.375 304 Z" fill="#c0562f"/><path d="M 634.375 304 L 634.375 300.29631854942403 Q 634.375 296.29631854942403 638.375 296.29631854942403 L 658.375 296.29631854942403 Q 662.375 296.29631854942403 662.375 300.29631854942403 L 662.375 304 Z" fill="#12887a"/><text x="616.375" y="282.0409206470302" font-family="system-ui, -apple-system, 'Segoe UI', sans-serif" font-size="8.5" fill="#0b0b0b" text-anchor="middle" font-weight="400" font-variant-numeric="tabular-nums">$0.004</text><text x="648.375" y="291.29631854942403" font-family="system-ui, -apple-system, 'Segoe UI', sans-serif" font-size="8.5" fill="#0b0b0b" text-anchor="middle" font-weight="400" font-variant-numeric="tabular-nums">$0.002</text><text x="632.375" y="320" font-family="system-ui, -apple-system, 'Segoe UI', sans-serif" font-size="10" fill="#52514e" text-anchor="middle" font-weight="400">minimax</text><path d="M 690.125 304 L 690.125 214.55223581346638 Q 690.125 210.55223581346638 694.125 210.55223581346638 L 714.125 210.55223581346638 Q 718.125 210.55223581346638 718.125 214.55223581346638 L 718.125 304 Z" fill="#c0562f"/><path d="M 722.125 304 L 722.125 293.53649179880745 Q 722.125 289.53649179880745 726.125 289.53649179880745 L 746.125 289.53649179880745 Q 750.125 289.53649179880745 750.125 293.53649179880745 L 750.125 304 Z" fill="#12887a"/><text x="704.125" y="205.55223581346638" font-family="system-ui, -apple-system, 'Segoe UI', sans-serif" font-size="8.5" fill="#0b0b0b" text-anchor="middle" font-weight="400" font-variant-numeric="tabular-nums">$0.021</text><text x="736.125" y="284.53649179880745" font-family="system-ui, -apple-system, 'Segoe UI', sans-serif" font-size="8.5" fill="#0b0b0b" text-anchor="middle" font-weight="400" font-variant-numeric="tabular-nums">$0.003</text><text x="720.125" y="320" font-family="system-ui, -apple-system, 'Segoe UI', sans-serif" font-size="10" fill="#52514e" text-anchor="middle" font-weight="400">kimi27</text><text x="588.5" y="344" font-family="system-ui, -apple-system, 'Segoe UI', sans-serif" font-size="12.5" fill="#0b0b0b" text-anchor="middle" font-weight="600">Total cost per run ($)</text></svg>