<svg xmlns="http://www.w3.org/2000/svg" width="780" height="340" viewBox="0 0 780 340" role="img"><rect width="780" height="340" fill="#fcfcfb" rx="8"/><text x="16" y="30" font-family="system-ui, -apple-system, 'Segoe UI', sans-serif" font-size="14.5" fill="#0b0b0b" text-anchor="start" font-weight="600">The delegate you pick matters — a cheap model is not a cheap model</text><text x="16" y="48" font-family="system-ui, -apple-system, 'Segoe UI', sans-serif" font-size="11.5" fill="#52514e" text-anchor="start" font-weight="400">Escalation F1 by delegate, per planner. Both delegates are cheap; one triages at par, the other does not — delegation quality is a choice, not a given.</text><rect x="16" y="66" width="12" height="12" rx="3" fill="#12887a"/><text x="34" y="77" font-family="system-ui, -apple-system, 'Segoe UI', sans-serif" font-size="11.5" fill="#52514e" text-anchor="start" font-weight="400">delegate: dsflash</text><rect x="196" y="66" width="12" height="12" rx="3" fill="#d99a2b"/><text x="214" y="77" font-family="system-ui, -apple-system, 'Segoe UI', sans-serif" font-size="11.5" fill="#52514e" text-anchor="start" font-weight="400">delegate: qwen30b</text><line x1="44" y1="284" x2="764" y2="284" stroke="#e1e0d9" stroke-width="1"/><text x="36" y="288" font-family="system-ui, -apple-system, 'Segoe UI', sans-serif" font-size="9.5" fill="#898781" text-anchor="end" font-weight="400" font-variant-numeric="tabular-nums">0%</text><line x1="44" y1="236" x2="764" y2="236" stroke="#e1e0d9" stroke-width="1"/><text x="36" y="240" font-family="system-ui, -apple-system, 'Segoe UI', sans-serif" font-size="9.5" fill="#898781" text-anchor="end" font-weight="400" font-variant-numeric="tabular-nums">25%</text><line x1="44" y1="188" x2="764" y2="188" stroke="#e1e0d9" stroke-width="1"/><text x="36" y="192" font-family="system-ui, -apple-system, 'Segoe UI', sans-serif" font-size="9.5" fill="#898781" text-anchor="end" font-weight="400" font-variant-numeric="tabular-nums">50%</text><line x1="44" y1="140" x2="764" y2="140" stroke="#e1e0d9" stroke-width="1"/><text x="36" y="144" font-family="system-ui, -apple-system, 'Segoe UI', sans-serif" font-size="9.5" fill="#898781" text-anchor="end" font-weight="400" font-variant-numeric="tabular-nums">75%</text><line x1="44" y1="92" x2="764" y2="92" stroke="#e1e0d9" stroke-width="1"/><text x="36" y="96" font-family="system-ui, -apple-system, 'Segoe UI', sans-serif" font-size="9.5" fill="#898781" text-anchor="end" font-weight="400" font-variant-numeric="tabular-nums">100%</text><path d="M 92 284 L 92 160.00000000000003 Q 92 156.00000000000003 96 156.00000000000003 L 126 156.00000000000003 Q 130 156.00000000000003 130 160.00000000000003 L 130 284 Z" fill="#12887a"/><text x="111" y="151.00000000000003" font-family="system-ui, -apple-system, 'Segoe UI', sans-serif" font-size="9" fill="#0b0b0b" text-anchor="middle" font-weight="400" font-variant-numeric="tabular-nums">67</text><path d="M 138 284 L 138 123.42857142857144 Q 138 119.42857142857144 142 119.42857142857144 L 172 119.42857142857144 Q 176 119.42857142857144 176 123.42857142857144 L 176 284 Z" fill="#d99a2b"/><text x="157" y="114.42857142857144" font-family="system-ui, -apple-system, 'Segoe UI', sans-serif" font-size="9" fill="#0b0b0b" text-anchor="middle" font-weight="400" font-variant-numeric="tabular-nums">86</text><text x="134" y="302" font-family="system-ui, -apple-system, 'Segoe UI', sans-serif" font-size="11" fill="#52514e" text-anchor="middle" font-weight="400">deepseek</text><path d="M 272 284 L 272 148.36363636363637 Q 272 144.36363636363637 276 144.36363636363637 L 306 144.36363636363637 Q 310 144.36363636363637 310 148.36363636363637 L 310 284 Z" fill="#12887a"/><text x="291" y="139.36363636363637" font-family="system-ui, -apple-system, 'Segoe UI', sans-serif" font-size="9" fill="#0b0b0b" text-anchor="middle" font-weight="400" font-variant-numeric="tabular-nums">73</text><path d="M 318 284 L 318 123.42857142857144 Q 318 119.42857142857144 322 119.42857142857144 L 352 119.42857142857144 Q 356 119.42857142857144 356 123.42857142857144 L 356 284 Z" fill="#d99a2b"/><text x="337" y="114.42857142857144" font-family="system-ui, -apple-system, 'Segoe UI', sans-serif" font-size="9" fill="#0b0b0b" text-anchor="middle" font-weight="400" font-variant-numeric="tabular-nums">86</text><text x="314" y="302" font-family="system-ui, -apple-system, 'Segoe UI', sans-serif" font-size="11" fill="#52514e" text-anchor="middle" font-weight="400">glm5</text><path d="M 452 284 L 452 160.00000000000003 Q 452 156.00000000000003 456 156.00000000000003 L 486 156.00000000000003 Q 490 156.00000000000003 490 160.00000000000003 L 490 284 Z" fill="#12887a"/><text x="471" y="151.00000000000003" font-family="system-ui, -apple-system, 'Segoe UI', sans-serif" font-size="9" fill="#0b0b0b" text-anchor="middle" font-weight="400" font-variant-numeric="tabular-nums">67</text><path d="M 498 284 L 498 110.76923076923077 Q 498 106.76923076923077 502 106.76923076923077 L 532 106.76923076923077 Q 536 106.76923076923077 536 110.76923076923077 L 536 284 Z" fill="#d99a2b"/><text x="517" y="101.76923076923077" font-family="system-ui, -apple-system, 'Segoe UI', sans-serif" font-size="9" fill="#0b0b0b" text-anchor="middle" font-weight="400" font-variant-numeric="tabular-nums">92</text><text x="494" y="302" font-family="system-ui, -apple-system, 'Segoe UI', sans-serif" font-size="11" fill="#52514e" text-anchor="middle" font-weight="400">minimax</text><path d="M 632 284 L 632 160.00000000000003 Q 632 156.00000000000003 636 156.00000000000003 L 666 156.00000000000003 Q 670 156.00000000000003 670 160.00000000000003 L 670 284 Z" fill="#12887a"/><text x="651" y="151.00000000000003" font-family="system-ui, -apple-system, 'Segoe UI', sans-serif" font-size="9" fill="#0b0b0b" text-anchor="middle" font-weight="400" font-variant-numeric="tabular-nums">67</text><path d="M 678 284 L 678 110.76923076923077 Q 678 106.76923076923077 682 106.76923076923077 L 712 106.76923076923077 Q 716 106.76923076923077 716 110.76923076923077 L 716 284 Z" fill="#d99a2b"/><text x="697" y="101.76923076923077" font-family="system-ui, -apple-system, 'Segoe UI', sans-serif" font-size="9" fill="#0b0b0b" text-anchor="middle" font-weight="400" font-variant-numeric="tabular-nums">92</text><text x="674" y="302" font-family="system-ui, -apple-system, 'Segoe UI', sans-serif" font-size="11" fill="#52514e" text-anchor="middle" font-weight="400">kimi27</text></svg>