<svg xmlns="http://www.w3.org/2000/svg" width="780" height="340" viewBox="0 0 780 340" role="img"><rect width="780" height="340" fill="#fcfcfb" rx="8"/><text x="16" y="30" font-family="system-ui, -apple-system, 'Segoe UI', sans-serif" font-size="14.5" fill="#0b0b0b" text-anchor="start" font-weight="600">The customer's data never reaches the planner when the judgement is delegated</text><text x="16" y="48" font-family="system-ui, -apple-system, 'Segoe UI', sans-serif" font-size="11.5" fill="#52514e" text-anchor="start" font-weight="400">Averaged over runs · a customer pasted an SSN/card/key into 3 of 15 tickets; solo reads every body, delegated sends bodies only to the classifier</text><rect x="16" y="66" width="12" height="12" rx="3" fill="#c0562f"/><text x="34" y="77" font-family="system-ui, -apple-system, 'Segoe UI', sans-serif" font-size="11.5" fill="#52514e" text-anchor="start" font-weight="400">solo</text><rect x="126" y="66" width="12" height="12" rx="3" fill="#12887a"/><text x="144" y="77" font-family="system-ui, -apple-system, 'Segoe UI', sans-serif" font-size="11.5" fill="#52514e" text-anchor="start" font-weight="400">delegated</text><line x1="16" y1="215" x2="238.66666666666666" y2="215" stroke="#e1e0d9" stroke-width="1"/><line x1="16" y1="174" x2="238.66666666666666" y2="174" stroke="#e1e0d9" stroke-width="1"/><line x1="16" y1="133" x2="238.66666666666666" y2="133" stroke="#e1e0d9" stroke-width="1"/><line x1="16" y1="92" x2="238.66666666666666" y2="92" stroke="#e1e0d9" stroke-width="1"/><line x1="16" y1="256" x2="238.66666666666666" y2="256" stroke="#c3c2b7"/><path d="M 65.33333333333333 256 L 65.33333333333333 96 Q 65.33333333333333 92 69.33333333333333 92 L 117.33333333333333 92 Q 121.33333333333333 92 121.33333333333333 96 L 121.33333333333333 256 Z" fill="#c0562f"/><text x="93.33333333333333" y="86" font-family="system-ui, -apple-system, 'Segoe UI', sans-serif" font-size="11" fill="#0b0b0b" text-anchor="middle" font-weight="600" font-variant-numeric="tabular-nums">100%</text><rect x="133.33333333333331" y="255" width="56" height="2.5" fill="#12887a" opacity="0.7"/><text x="161.33333333333331" y="250" font-family="system-ui, -apple-system, 'Segoe UI', sans-serif" font-size="11" fill="#0b0b0b" text-anchor="middle" font-weight="600" font-variant-numeric="tabular-nums">0%</text><text x="127.33333333333333" y="278" font-family="system-ui, -apple-system, 'Segoe UI', sans-serif" font-size="12" fill="#0b0b0b" text-anchor="middle" font-weight="600">PII leak rate</text><line x1="278.66666666666663" y1="215" x2="501.33333333333326" y2="215" stroke="#e1e0d9" stroke-width="1"/><line x1="278.66666666666663" y1="174" x2="501.33333333333326" y2="174" stroke="#e1e0d9" stroke-width="1"/><line x1="278.66666666666663" y1="133" x2="501.33333333333326" y2="133" stroke="#e1e0d9" stroke-width="1"/><line x1="278.66666666666663" y1="92" x2="501.33333333333326" y2="92" stroke="#e1e0d9" stroke-width="1"/><line x1="278.66666666666663" y1="256" x2="501.33333333333326" y2="256" stroke="#c3c2b7"/><path d="M 327.99999999999994 256 L 327.99999999999994 123.33333333333331 Q 327.99999999999994 119.33333333333331 331.99999999999994 119.33333333333331 L 379.99999999999994 119.33333333333331 Q 383.99999999999994 119.33333333333331 383.99999999999994 123.33333333333331 L 383.99999999999994 256 Z" fill="#c0562f"/><text x="355.99999999999994" y="113.33333333333331" font-family="system-ui, -apple-system, 'Segoe UI', sans-serif" font-size="11" fill="#0b0b0b" text-anchor="middle" font-weight="600" font-variant-numeric="tabular-nums">5.4k</text><path d="M 395.99999999999994 256 L 395.99999999999994 236.18049627865884 Q 395.99999999999994 232.18049627865884 399.99999999999994 232.18049627865884 L 447.99999999999994 232.18049627865884 Q 451.99999999999994 232.18049627865884 451.99999999999994 236.18049627865884 L 451.99999999999994 256 Z" fill="#12887a"/><text x="423.99999999999994" y="226.18049627865884" font-family="system-ui, -apple-system, 'Segoe UI', sans-serif" font-size="11" fill="#0b0b0b" text-anchor="middle" font-weight="600" font-variant-numeric="tabular-nums">970</text><text x="389.99999999999994" y="278" font-family="system-ui, -apple-system, 'Segoe UI', sans-serif" font-size="12" fill="#0b0b0b" text-anchor="middle" font-weight="600">Bytes crossing into planner</text><line x1="541.3333333333333" y1="215" x2="763.9999999999999" y2="215" stroke="#e1e0d9" stroke-width="1"/><line x1="541.3333333333333" y1="174" x2="763.9999999999999" y2="174" stroke="#e1e0d9" stroke-width="1"/><line x1="541.3333333333333" y1="133" x2="763.9999999999999" y2="133" stroke="#e1e0d9" stroke-width="1"/><line x1="541.3333333333333" y1="92" x2="763.9999999999999" y2="92" stroke="#e1e0d9" stroke-width="1"/><line x1="541.3333333333333" y1="256" x2="763.9999999999999" y2="256" stroke="#c3c2b7"/><path d="M 590.6666666666666 256 L 590.6666666666666 123.33333333333334 Q 590.6666666666666 119.33333333333334 594.6666666666666 119.33333333333334 L 642.6666666666666 119.33333333333334 Q 646.6666666666666 119.33333333333334 646.6666666666666 123.33333333333334 L 646.6666666666666 256 Z" fill="#c0562f"/><text x="618.6666666666666" y="113.33333333333334" font-family="system-ui, -apple-system, 'Segoe UI', sans-serif" font-size="11" fill="#0b0b0b" text-anchor="middle" font-weight="600" font-variant-numeric="tabular-nums">4.0k</text><path d="M 658.6666666666666 256 L 658.6666666666666 187.43728728097818 Q 658.6666666666666 183.43728728097818 662.6666666666666 183.43728728097818 L 710.6666666666666 183.43728728097818 Q 714.6666666666666 183.43728728097818 714.6666666666666 187.43728728097818 L 714.6666666666666 256 Z" fill="#12887a"/><text x="686.6666666666666" y="177.43728728097818" font-family="system-ui, -apple-system, 'Segoe UI', sans-serif" font-size="11" fill="#0b0b0b" text-anchor="middle" font-weight="600" font-variant-numeric="tabular-nums">2.1k</text><text x="652.6666666666666" y="278" font-family="system-ui, -apple-system, 'Segoe UI', sans-serif" font-size="12" fill="#0b0b0b" text-anchor="middle" font-weight="600">Peak context (tokens)</text></svg>