<svg width="72" height="72" viewBox="0 0 72 72" fill="none" xmlns="http://www.w3.org/2000/svg">
<rect width="72" height="72" fill="#FBF8F1"/>
<path d="M20 16.4C21.3255 16.4 22.4 15.3255 22.4 14C22.4 12.6745 21.3255 11.6 20 11.6C18.6745 11.6 17.6 12.6745 17.6 14C17.6 15.3255 18.6745 16.4 20 16.4Z" fill="#1B1815"/>
<path d="M20 22.4C21.3255 22.4 22.4 21.3255 22.4 20C22.4 18.6745 21.3255 17.6 20 17.6C18.6745 17.6 17.6 18.6745 17.6 20C17.6 21.3255 18.6745 22.4 20 22.4Z" fill="#1B1815"/>
<path d="M20 28.4C21.3255 28.4 22.4 27.3255 22.4 26C22.4 24.6745 21.3255 23.6 20 23.6C18.6745 23.6 17.6 24.6745 17.6 26C17.6 27.3255 18.6745 28.4 20 28.4Z" fill="#1B1815"/>
<path d="M20 34.4C21.3255 34.4 22.4 33.3255 22.4 32C22.4 30.6745 21.3255 29.6 20 29.6C18.6745 29.6 17.6 30.6745 17.6 32C17.6 33.3255 18.6745 34.4 20 34.4Z" fill="#1B1815"/>
<path d="M20 40.4C21.3255 40.4 22.4 39.3255 22.4 38C22.4 36.6745 21.3255 35.6 20 35.6C18.6745 35.6 17.6 36.6745 17.6 38C17.6 39.3255 18.6745 40.4 20 40.4Z" fill="#1B1815"/>
<path d="M20 46.4C21.3255 46.4 22.4 45.3255 22.4 44C22.4 42.6745 21.3255 41.6 20 41.6C18.6745 41.6 17.6 42.6745 17.6 44C17.6 45.3255 18.6745 46.4 20 46.4Z" fill="#1B1815"/>
<path d="M20 52.4C21.3255 52.4 22.4 51.3255 22.4 50C22.4 48.6745 21.3255 47.6 20 47.6C18.6745 47.6 17.6 48.6745 17.6 50C17.6 51.3255 18.6745 52.4 20 52.4Z" fill="#1B1815"/>
<path d="M20 58.4C21.3255 58.4 22.4 57.3255 22.4 56C22.4 54.6745 21.3255 53.6 20 53.6C18.6745 53.6 17.6 54.6745 17.6 56C17.6 57.3255 18.6745 58.4 20 58.4Z" fill="#1B1815"/>
<path d="M20 64.4C21.3255 64.4 22.4 63.3255 22.4 62C22.4 60.6745 21.3255 59.6 20 59.6C18.6745 59.6 17.6 60.6745 17.6 62C17.6 63.3255 18.6745 64.4 20 64.4Z" fill="#1B1815"/>
<path d="M26 16.4C27.3255 16.4 28.4 15.3255 28.4 14C28.4 12.6745 27.3255 11.6 26 11.6C24.6745 11.6 23.6 12.6745 23.6 14C23.6 15.3255 24.6745 16.4 26 16.4Z" fill="#1B1815"/>
<path d="M32 16.4C33.3255 16.4 34.4 15.3255 34.4 14C34.4 12.6745 33.3255 11.6 32 11.6C30.6745 11.6 29.6 12.6745 29.6 14C29.6 15.3255 30.6745 16.4 32 16.4Z" fill="#1B1815"/>
<path d="M38 16.4C39.3255 16.4 40.4 15.3255 40.4 14C40.4 12.6745 39.3255 11.6 38 11.6C36.6745 11.6 35.6 12.6745 35.6 14C35.6 15.3255 36.6745 16.4 38 16.4Z" fill="#1B1815"/>
<path d="M44 16.4C45.3255 16.4 46.4 15.3255 46.4 14C46.4 12.6745 45.3255 11.6 44 11.6C42.6745 11.6 41.6 12.6745 41.6 14C41.6 15.3255 42.6745 16.4 44 16.4Z" fill="#1B1815"/>
<path d="M44 22.4C45.3255 22.4 46.4 21.3255 46.4 20C46.4 18.6745 45.3255 17.6 44 17.6C42.6745 17.6 41.6 18.6745 41.6 20C41.6 21.3255 42.6745 22.4 44 22.4Z" fill="#1B1815"/>
<path d="M44 28.4C45.3255 28.4 46.4 27.3255 46.4 26C46.4 24.6745 45.3255 23.6 44 23.6C42.6745 23.6 41.6 24.6745 41.6 26C41.6 27.3255 42.6745 28.4 44 28.4Z" fill="#1B1815"/>
<path d="M44 34.4C45.3255 34.4 46.4 33.3255 46.4 32C46.4 30.6745 45.3255 29.6 44 29.6C42.6745 29.6 41.6 30.6745 41.6 32C41.6 33.3255 42.6745 34.4 44 34.4Z" fill="#1B1815"/>
<path d="M26 40.4C27.3255 40.4 28.4 39.3255 28.4 38C28.4 36.6745 27.3255 35.6 26 35.6C24.6745 35.6 23.6 36.6745 23.6 38C23.6 39.3255 24.6745 40.4 26 40.4Z" fill="#1B1815"/>
<path d="M32 40.4C33.3255 40.4 34.4 39.3255 34.4 38C34.4 36.6745 33.3255 35.6 32 35.6C30.6745 35.6 29.6 36.6745 29.6 38C29.6 39.3255 30.6745 40.4 32 40.4Z" fill="#1B1815"/>
<path d="M38 40.4C39.3255 40.4 40.4 39.3255 40.4 38C40.4 36.6745 39.3255 35.6 38 35.6C36.6745 35.6 35.6 36.6745 35.6 38C35.6 39.3255 36.6745 40.4 38 40.4Z" fill="#1B1815"/>
<path d="M44 40.4C45.3255 40.4 46.4 39.3255 46.4 38C46.4 36.6745 45.3255 35.6 44 35.6C42.6745 35.6 41.6 36.6745 41.6 38C41.6 39.3255 42.6745 40.4 44 40.4Z" fill="#1B1815"/>
<path d="M58 25C59.6569 25 61 23.6569 61 22C61 20.3431 59.6569 19 58 19C56.3431 19 55 20.3431 55 22C55 23.6569 56.3431 25 58 25Z" fill="#D2734F"/>
</svg>
